<svg width="360" height="360" viewBox="0 0 360 360" fill="none" xmlns="http://www.w3.org/2000/svg">
<circle cx="180" cy="180" r="180" fill="#2684FF"/>
<path fill-rule="evenodd" clip-rule="evenodd" d="M127.447 72.9961C123.028 72.9961 119.447 76.5778 119.447 80.9961V279.005C119.447 283.424 123.028 287.005 127.447 287.005H233.313C237.731 287.005 241.313 283.424 241.313 279.005V80.9961C241.313 76.5778 237.731 72.9961 233.313 72.9961H127.447ZM134.72 87.0975C133.615 87.0975 132.72 87.9929 132.72 89.0975V253.485C132.72 254.589 133.615 255.485 134.72 255.485H226.111C227.216 255.485 228.111 254.589 228.111 253.485V89.0975C228.111 87.9929 227.216 87.0975 226.111 87.0975H134.72Z" fill="white"/>
<path d="M187.465 272.49C187.465 276.842 183.937 280.37 179.585 280.37C175.233 280.37 171.705 276.842 171.705 272.49C171.705 268.137 175.233 264.609 179.585 264.609C183.937 264.609 187.465 268.137 187.465 272.49Z" fill="#2684FF"/>
<rect x="156.772" y="79.6289" width="52.2581" height="2.48848" rx="1.24424" fill="#FED136"/>
<rect x="150.968" y="79.6289" width="2.48848" height="2.48848" rx="1.24424" fill="#FED136"/>
</svg>
