<svg width="40" height="40" viewBox="0 0 40 40" fill="none" xmlns="http://www.w3.org/2000/svg">
<circle cx="20" cy="20" r="20" fill="#2883F7"/>
<path d="M29.3333 14.5V18.1667M29.3333 18.1667V21.8333M29.3333 18.1667H33M29.3333 18.1667H25.6667M22.9167 13.125C22.9167 13.6667 22.81 14.2031 22.6027 14.7036C22.3954 15.204 22.0915 15.6588 21.7085 16.0418C21.3254 16.4248 20.8707 16.7287 20.3702 16.936C19.8698 17.1433 19.3334 17.25 18.7917 17.25C18.25 17.25 17.7136 17.1433 17.2131 16.936C16.7126 16.7287 16.2579 16.4248 15.8749 16.0418C15.4918 15.6588 15.188 15.204 14.9807 14.7036C14.7734 14.2031 14.6667 13.6667 14.6667 13.125C14.6667 12.031 15.1013 10.9818 15.8749 10.2082C16.6484 9.4346 17.6976 9 18.7917 9C19.8857 9 20.9349 9.4346 21.7085 10.2082C22.4821 10.9818 22.9167 12.031 22.9167 13.125V13.125ZM11 28.8428V28.7083C11 26.6418 11.8209 24.66 13.2821 23.1988C14.7433 21.7376 16.7252 20.9167 18.7917 20.9167C20.8581 20.9167 22.84 21.7376 24.3012 23.1988C25.7624 24.66 26.5833 26.6418 26.5833 28.7083V28.8415C24.2311 30.2582 21.5363 31.0046 18.7904 31C15.9414 31 13.2758 30.2116 11 28.8415V28.8428Z" stroke="white" stroke-width="1.5" stroke-linecap="round" stroke-linejoin="round"/>
</svg>
