<svg width="781" height="875" viewBox="0 0 781 875" fill="none" xmlns="http://www.w3.org/2000/svg">
<circle cx="326" cy="704" r="92" fill="#FF5454" fill-opacity="0.81"/>
<circle cx="149" cy="597" r="46" fill="#2468C3"/>
<circle cx="157" cy="429" r="46" fill="#FFB017"/>
<circle cx="275" cy="331" r="46" fill="#FF9898"/>
<circle cx="430" cy="366" r="46" fill="#2CE6FF"/>
<path d="M333.64 848.084C309.065 850.594 284.236 848.074 260.667 840.678C237.854 833.646 215.38 822.224 193.869 806.731C178.923 795.922 164.992 783.776 152.248 770.442C131.307 748.379 113.07 723.899 97.922 697.521C55.1791 623.39 40.021 538.503 55.2462 458.494C62.5644 420.019 76.4948 384.517 96.6423 352.967C116.7 321.235 143.325 294.17 174.723 273.595C211.921 249.329 252.254 234.768 294.592 230.318C315.188 228.19 335.958 228.382 356.511 230.889C373.303 232.926 389.891 236.392 406.093 241.251C430.329 248.515 446.431 256.719 450.786 259.066C450.966 259.162 451.013 259.188 451.019 259.189C458.58 263.616 465.92 268.296 472.837 273.101C486.272 282.553 498.658 293.417 509.781 305.506C527.726 325.297 539.954 347.014 546.127 370.053C551.416 389.53 552.161 409.961 548.304 429.771C545.551 444.44 540.068 458.461 532.14 471.106C525.125 482.033 516.765 490.218 508.605 494.167C477.38 509.243 460.638 525.297 454.317 546.219C447.13 570.008 453.137 601.105 473.218 644.079C486.244 671.961 485.837 708.66 472.095 744.764C458.353 780.868 433.491 810.541 403.89 826.132C381.03 838.203 357.395 845.588 333.64 848.084ZM316.001 616.269C293.004 618.712 271.916 630.177 257.362 648.149C242.808 666.121 235.977 689.132 238.368 712.134C240.793 735.179 252.264 756.318 270.263 770.912C288.261 785.505 311.316 792.358 334.363 789.966C357.359 787.523 378.447 776.058 393 758.086C407.553 740.115 414.383 717.104 411.992 694.103C409.568 671.059 398.097 649.92 380.099 635.326C362.102 620.733 339.048 613.879 316.001 616.269V616.269ZM144.983 553.829C133.479 555.038 122.927 560.767 115.647 569.757C108.367 578.746 104.957 590.259 106.166 601.763C107.375 613.267 113.105 623.819 122.094 631.099C131.084 638.379 142.597 641.789 154.101 640.58L154.155 640.574C159.847 639.992 165.368 638.286 170.397 635.556C175.426 632.825 179.863 629.124 183.452 624.667C187.491 619.664 190.38 613.834 191.914 607.589L191.942 607.474C193.564 600.752 193.566 593.741 191.948 587.018C190.33 580.295 187.137 574.053 182.633 568.806C178.129 563.559 172.443 559.458 166.043 556.839C159.643 554.221 152.713 553.16 145.823 553.745C145.545 553.771 145.265 553.799 144.983 553.829ZM152.777 384.888C141.259 386.099 130.695 391.835 123.407 400.835C116.119 409.835 112.704 421.361 113.915 432.878C115.125 444.396 120.862 454.96 129.861 462.248C138.861 469.536 150.388 472.951 161.905 471.74L161.941 471.736C167.645 471.132 173.174 469.41 178.212 466.669C183.25 463.928 187.699 460.221 191.304 455.76C194.909 451.298 197.6 446.171 199.223 440.669C200.846 435.168 201.369 429.401 200.763 423.697L200.734 423.424L200.709 423.185L200.706 423.157C199.625 413.702 195.452 404.869 188.836 398.028L188.736 397.926L188.716 397.905L188.684 397.872C187.468 396.62 186.178 395.441 184.82 394.343C183.751 393.478 182.626 392.654 181.478 391.894L181.288 391.768L181.134 391.667L181.112 391.653C172.986 386.348 163.31 383.936 153.645 384.804L153.385 384.832L153.276 384.843L153.12 384.859L152.782 384.895L152.777 384.888ZM424.127 323.478C412.63 324.7 402.086 330.432 394.81 339.418C387.533 348.403 384.118 359.908 385.313 371.408C386.536 382.945 392.279 393.529 401.286 400.842C410.293 408.155 421.831 411.602 433.373 410.429L433.24 410.224L433.409 410.206C444.86 408.979 455.362 403.276 462.626 394.339C469.89 385.402 473.327 373.956 472.188 362.496C470.965 350.958 465.221 340.374 456.213 333.062C447.204 325.749 435.666 322.303 424.123 323.478L424.127 323.478ZM279.84 375.204L279.969 375.19C291.472 373.981 302.024 368.252 309.303 359.263C316.582 350.274 319.992 338.762 318.783 327.258C317.574 315.755 311.845 305.203 302.856 297.924C293.867 290.645 282.354 287.235 270.851 288.444L270.577 288.473C259.073 289.684 248.523 295.415 241.245 304.405C233.967 313.396 230.559 324.909 231.77 336.412C232.981 347.915 238.712 358.466 247.702 365.744C256.693 373.021 268.206 376.429 279.709 375.218L279.84 375.205L279.84 375.204Z" fill="#4A90E2"/>
<path d="M386.929 684.893C401.608 629.906 413.475 617.483 414.115 615.874C405.569 626.413 395.15 635.282 383.381 642.035C384.958 612.242 384.716 582.648 401.796 556.81C425.485 521.021 438.101 516.46 457.809 502.334C458.452 478.965 473.467 427.178 498.395 361.85C498.406 361.582 498.378 361.314 498.311 361.055L499.304 358.595L554.276 383.107L552.986 385.518L552.616 386.218C521.292 445.928 493.562 490.322 476.25 507.798C481.494 522.224 483.959 537.513 483.515 552.856C483.851 572.268 479.949 591.521 472.079 609.269C454.399 646.924 421.565 665.668 388.474 688.333C388.208 688.545 387.895 688.693 387.561 688.764C386.823 688.839 386.675 687.742 386.929 684.893ZM499.672 358.7C513.011 323.853 528.759 285.293 547.246 244.903C611.206 102.842 676.657 -6.14312 693.444 1.65288C710.231 9.44888 671.909 129.99 607.949 272.047C590.106 312.369 571.467 349.981 554.272 383.103L499.672 358.7Z" fill="#FCA70C"/>
<path d="M576.248 799.648L576.513 799.08L576.248 799.648Z" fill="#253858"/>
<path d="M536.454 781.742C536.424 781.544 536.403 781.348 536.392 781.155L536.454 781.742Z" fill="#253858"/>
</svg>
