<svg width="360" height="360" viewBox="0 0 360 360" fill="none" xmlns="http://www.w3.org/2000/svg">
<rect width="360" height="360" rx="180" fill="#2684FF"/>
<path d="M135.714 220.17L114.366 175.211L191.237 80.6665C193.092 78.3848 196.692 78.8177 197.954 81.4742L260.846 213.929C262.103 216.576 260.181 219.632 257.25 219.644L135.714 220.17Z" fill="white"/>
<rect x="65.3027" y="197.588" width="49.7696" height="49.7696" rx="24.8848" transform="rotate(-25.3995 65.3027 197.588)" fill="white"/>
<rect x="65.3027" y="197.588" width="49.7696" height="49.7696" rx="24.8848" transform="rotate(-25.3995 65.3027 197.588)" fill="white"/>
<rect x="87.7822" y="186.914" width="24.8848" height="49.7696" transform="rotate(-25.3995 87.7822 186.914)" fill="white"/>
<path d="M222.66 122.875C235.075 116.98 249.918 122.266 255.813 134.681C261.708 147.096 256.423 161.939 244.008 167.834L222.66 122.875Z" fill="white"/>
<rect x="259.241" y="130.297" width="26.5438" height="4.97696" rx="2.48848" transform="rotate(-25.3995 259.241 130.297)" fill="white"/>
<rect x="254.097" y="119.459" width="35.6487" height="4.97696" rx="2.48848" transform="rotate(-55.3995 254.097 119.459)" fill="white"/>
<rect x="266.825" y="140.469" width="35.7187" height="4.97696" rx="2.48848" transform="rotate(4.60052 266.825 140.469)" fill="white"/>
<rect x="231.667" y="260.58" width="83.779" height="4.97696" rx="2.48848" transform="rotate(-179.573 231.667 260.58)" fill="white"/>
<rect x="231.667" y="260.58" width="4.97696" height="34.8387" rx="2.48848" transform="rotate(-179.573 231.667 260.58)" fill="white"/>
<rect x="151.309" y="259.982" width="4.97696" height="34.8387" rx="2.48848" transform="rotate(-179.573 151.309 259.982)" fill="white"/>
</svg>
