<svg height="512pt" viewBox="-26 0 512 512" width="512pt" xmlns="http://www.w3.org/2000/svg"><path d="m260 230c0-16.542969-13.457031-30-30-30s-30 13.457031-30 30 13.457031 30 30 30 30-13.457031 30-30zm-30 10c-5.515625 0-10-4.484375-10-10s4.484375-10 10-10 10 4.484375 10 10-4.484375 10-10 10zm0 0"/><path d="m0 230c0 22.054688 17.945312 40 40 40 8.613281 0 16.589844-2.746094 23.125-7.390625 4.328125 22.324219 13.097656 43.445313 25.863281 62.300781-8.148437 1.359375-15.660156 5.199219-21.617187 11.160156-15.636719 15.625-15.644532 40.933594-.003906 56.558594 15.617187 15.628906 40.933593 15.648438 56.5625.007813 5.96875-5.964844 9.808593-13.484375 11.164062-21.644531 7.765625 5.246093 15.949219 9.832031 24.523438 13.738281l-40.527344 107.269531h-49.089844c-5.523438 0-10 4.476562-10 10s4.476562 10 10 10h115c5.519531 0 10-4.476562 10-10s-4.480469-10-10-10h-44.53125l37.804688-100.058594c6.285156 2.015625 12.667968 3.65625 19.132812 4.917969-4.65625 6.539063-7.40625 14.523437-7.40625 23.140625 0 22.054688 17.945312 40 40 40s40-17.945312 40-40c0-8.617188-2.75-16.601562-7.40625-23.140625 6.464844-1.261719 12.847656-2.902344 19.132812-4.917969l37.804688 100.058594h-44.53125c-5.519531 0-10 4.476562-10 10s4.480469 10 10 10h115c5.523438 0 10-4.476562 10-10s-4.476562-10-10-10h-49.089844l-40.527344-107.273438c8.574219-3.902343 16.761719-8.492187 24.523438-13.734374 1.359375 8.160156 5.195312 15.679687 11.160156 21.636718 15.617188 15.628906 40.933594 15.648438 56.5625.003906 15.640625-15.625 15.644532-40.933593.003906-56.566406-5.960937-5.960937-13.472656-9.796875-21.621093-11.15625 12.769531-18.855468 21.539062-39.976562 25.867187-62.304687 6.53125 4.648437 14.507813 7.394531 23.121094 7.394531 22.054688 0 40-17.945312 40-40s-17.945312-40-40-40c-8.613281 0-16.589844 2.746094-23.125 7.390625-4.328125-22.324219-13.097656-43.445313-25.863281-62.300781 8.152343-1.359375 15.664062-5.199219 21.617187-11.15625 15.632813-15.621094 15.648438-40.933594.003906-56.5625-15.625-15.636719-40.933593-15.644532-56.5625-.003906-5.960937 5.957031-9.800781 13.46875-11.160156 21.621093-18.855468-12.769531-39.972656-21.539062-62.300781-25.867187 4.644531-6.53125 7.390625-14.507813 7.390625-23.121094 0-22.054688-17.945312-40-40-40s-40 17.945312-40 40c0 8.613281 2.746094 16.589844 7.390625 23.125-22.324219 4.328125-43.445313 13.09375-62.300781 25.863281-1.359375-8.152343-5.195313-15.660156-11.15625-21.621093-15.621094-15.625-40.933594-15.640626-56.5625 0-15.632813 15.617187-15.648438 40.933593-.003906 56.5625 5.957031 5.960937 13.46875 9.800781 21.621093 11.160156-12.769531 18.855468-21.535156 39.976562-25.863281 62.304687-6.535156-4.648437-14.511719-7.394531-23.125-7.394531-22.054688 0-40 17.945312-40 40zm286.046875 41.90625c7.054687-9.390625 11.582031-20.3125 13.238281-31.917969h80.378906c-2.164062 32.9375-14.988281 63.847657-36.820312 88.714844zm-56.046875 8.09375c-27.523438 0-50-22.367188-50-50 0-27.597656 22.425781-50 50-50 27.597656 0 50 22.425781 50 50 0 27.652344-22.503906 50-50 50zm-112.84375 48.703125c-21.832031-24.863281-34.65625-55.765625-36.820312-88.703125h80.378906c1.65625 11.597656 6.183594 22.511719 13.238281 31.902344zm182.128906-108.703125c-1.65625-11.601562-6.183594-22.515625-13.238281-31.902344l56.796875-56.800781c21.832031 24.863281 34.65625 55.765625 36.820312 88.703125zm-27.378906-46.046875c-9.390625-7.054687-20.304688-11.582031-31.90625-13.238281v-80.378906c32.9375 2.164062 63.835938 14.988281 88.703125 36.820312zm-51.90625-13.238281c-11.601562 1.65625-22.511719 6.183594-31.902344 13.238281l-56.800781-56.796875c24.863281-21.832031 55.765625-34.65625 88.703125-36.820312zm-46.046875 27.378906c-7.054687 9.390625-11.582031 20.304688-13.238281 31.90625h-80.378906c2.164062-32.9375 14.988281-63.835938 36.820312-88.703125zm-64.167969 190.398438c-7.738281 7.746093-20.390625 7.886718-28.277344-.007813-7.816406-7.808594-7.816406-20.460937 0-28.269531.003907 0 .003907-.003906.007813-.003906 7.707031-7.71875 20.367187-7.914063 28.277344.003906 7.796875 7.789062 7.835937 20.4375-.007813 28.277344zm21.515625-35.648438 56.800781-56.804688c2.257813 1.695313 4.609376 3.242188 7.046876 4.644532l-28.445313 75.285156c-12.851563-5.988281-24.703125-13.730469-35.402344-23.125zm82.429688-44.753906c2.070312.496094 4.160156.898437 6.269531 1.199218v80.378907c-11.816406-.777344-23.410156-2.941407-34.648438-6.457031zm36.269531 121.910156c0 11.027344-8.972656 20-20 20s-20-8.972656-20-20 8.972656-20 20-20 20 8.972656 20 20zm-10-40.332031v-80.378907c2.109375-.300781 4.199219-.703124 6.269531-1.199218l28.382813 75.121094c-11.238282 3.519531-22.832032 5.679687-34.652344 6.457031zm24.851562-88.984375c2.4375-1.402344 4.789063-2.949219 7.046876-4.644532l56.804687 56.804688c-10.699219 9.390625-22.550781 17.132812-35.40625 23.125zm113.640626 59.53125c7.796874 7.789062 7.839843 20.4375-.007813 28.277344-7.722656 7.730468-20.378906 7.898437-28.277344-.007813-7.796875-7.789063-7.839843-20.4375.007813-28.277344 7.808594-7.816406 20.460937-7.816406 28.269531 0 .003906.003907.003906.003907.007813.007813zm41.507812-140.214844c11.027344 0 20 8.972656 20 20s-8.972656 20-20 20-20-8.972656-20-20 8.972656-20 20-20zm-69.792969-128.484375c.003907-.003906.003907-.003906.007813-.007813 7.738281-7.746093 20.390625-7.886718 28.277344.007813 7.71875 7.710937 7.914062 20.363281-.007813 28.277344-7.707031 7.714843-20.367187 7.910156-28.277344-.007813-7.816406-7.8125-7.816406-20.460937 0-28.269531zm-140.207031-41.515625c0-11.027344 8.972656-20 20-20s20 8.972656 20 20-8.972656 20-20 20-20-8.972656-20-20zm-128.484375 41.507812c7.808594-7.816406 20.460937-7.816406 28.269531 0 .003906.003907.003906.003907.007813.007813 7.796875 7.789063 7.839843 20.4375-.007813 28.277344-7.722656 7.730469-20.375 7.898437-28.277344-.007813-7.796874-7.789062-7.839843-20.4375.007813-28.277344zm-41.515625 128.492188c11.027344 0 20 8.972656 20 20s-8.972656 20-20 20-20-8.972656-20-20 8.972656-20 20-20zm0 0"/><path d="m240 502c0 5.523438-4.476562 10-10 10s-10-4.476562-10-10 4.476562-10 10-10 10 4.476562 10 10zm0 0"/></svg>