<svg width="360" height="360" viewBox="0 0 360 360" fill="none" xmlns="http://www.w3.org/2000/svg">
<circle cx="180" cy="180" r="180" fill="#2684FF"/>
<rect x="156.772" y="79.6289" width="52.2581" height="2.48848" rx="1.24424" fill="#2684FF"/>
<rect x="150.968" y="79.6289" width="2.48848" height="2.48848" rx="1.24424" fill="#2684FF"/>
<path d="M266.709 145.023H266.8C266.8 155.248 263.132 165.054 256.604 172.285C250.076 179.515 241.221 183.577 231.989 183.577H128.811C119.579 183.577 110.724 179.515 104.196 172.285C97.6676 165.054 94 155.248 94 145.023H94.0065C94 144.672 94 144.629 94 144.629V144.614C93.9988 132.748 97.9263 121.292 105.039 112.417C112.151 103.542 121.955 97.8629 132.594 96.4551C135.901 83.5388 143.313 72.3826 153.465 65.0446C163.616 57.7067 175.821 54.6822 187.828 56.529C199.835 58.3758 210.834 64.9695 218.795 75.0934C226.757 85.2174 231.144 98.1885 231.147 111.614C231.147 111.851 231.147 112.08 231.14 112.317C233.032 111.949 234.952 111.788 236.873 111.836C240.802 111.836 244.693 112.695 248.321 114.364C251.95 116.034 255.245 118.481 258.017 121.564C260.79 124.648 262.985 128.308 264.476 132.334C265.968 136.359 266.727 140.672 266.709 145.023Z" fill="white"/>
<path d="M230.487 234.086C232.798 234.086 235.038 234.974 236.825 236.598C238.612 238.222 239.835 240.482 240.286 242.993C240.737 245.504 240.388 248.111 239.298 250.369C238.209 252.627 236.446 254.396 234.311 255.376C232.175 256.356 229.799 256.486 227.587 255.743C225.374 255 223.463 253.43 222.179 251.302C220.894 249.173 220.316 246.617 220.542 244.07C220.768 241.522 221.785 239.139 223.419 237.329C224.346 236.299 225.448 235.483 226.661 234.927C227.874 234.37 229.174 234.084 230.487 234.086Z" fill="white"/>
<path d="M180.405 236.59C182.717 236.59 184.957 237.478 186.743 239.102C188.53 240.726 189.753 242.986 190.204 245.497C190.655 248.007 190.306 250.614 189.217 252.872C188.127 255.129 186.364 256.899 184.229 257.879C182.093 258.858 179.717 258.988 177.505 258.245C175.293 257.502 173.382 255.933 172.097 253.805C170.813 251.676 170.234 249.12 170.461 246.573C170.687 244.025 171.704 241.643 173.338 239.832C174.265 238.803 175.366 237.987 176.579 237.43C177.792 236.874 179.092 236.588 180.405 236.59Z" fill="white"/>
<path d="M130.315 234.086C132.627 234.086 134.867 234.974 136.654 236.598C138.44 238.222 139.663 240.482 140.114 242.993C140.565 245.504 140.216 248.111 139.127 250.369C138.037 252.627 136.275 254.396 134.139 255.376C132.003 256.356 129.627 256.486 127.415 255.743C125.203 255 123.292 253.43 122.007 251.302C120.723 249.173 120.145 246.617 120.371 244.07C120.597 241.522 121.614 239.139 123.248 237.329C124.175 236.299 125.277 235.483 126.489 234.927C127.702 234.37 129.002 234.084 130.315 234.086Z" fill="white"/>
<path d="M176.515 236.594V184.088H184.288V236.58L176.515 236.594Z" fill="white"/>
<path d="M126.429 234.112V212.54C126.429 211.398 126.839 210.304 127.568 209.496C128.296 208.689 129.285 208.236 130.316 208.236H151.9V184.088H159.673V212.54C159.673 213.682 159.263 214.777 158.534 215.584C157.806 216.391 156.817 216.845 155.786 216.845H134.202V234.091L126.429 234.112Z" fill="white"/>
<path d="M226.603 234.112V216.845H206.146C205.115 216.845 204.127 216.391 203.398 215.584C202.669 214.777 202.259 213.682 202.259 212.54V184.088H210.033V208.236H230.489C231.52 208.236 232.509 208.689 233.238 209.496C233.966 210.304 234.376 211.398 234.376 212.54V234.091L226.603 234.112Z" fill="white"/>
<path d="M180.403 262.999C177.195 262.994 174.088 261.758 171.612 259.501C169.135 257.244 167.441 254.106 166.819 250.621C166.197 247.136 166.686 243.52 168.201 240.389C169.716 237.259 172.164 234.806 175.129 233.45C178.093 232.094 181.39 231.918 184.459 232.952C187.527 233.987 190.177 236.167 191.957 239.122C193.737 242.077 194.536 245.624 194.22 249.159C193.903 252.694 192.49 255.998 190.22 258.508C188.931 259.936 187.401 261.067 185.716 261.838C184.031 262.609 182.225 263.003 180.403 262.999ZM180.403 240.882C178.99 240.882 177.622 241.424 176.53 242.417C175.438 243.409 174.691 244.79 174.415 246.324C174.14 247.858 174.353 249.45 175.019 250.83C175.684 252.21 176.761 253.291 178.066 253.89C179.371 254.488 180.823 254.568 182.174 254.114C183.526 253.66 184.694 252.701 185.479 251.401C186.264 250.101 186.617 248.539 186.479 246.982C186.341 245.426 185.72 243.97 184.722 242.864C184.156 242.234 183.483 241.734 182.741 241.394C182 241.053 181.205 240.879 180.403 240.882Z" fill="white"/>
<path d="M130.317 260.526C128.034 260.526 125.787 259.903 123.774 258.711C121.761 257.519 120.044 255.796 118.776 253.694C117.508 251.592 116.728 249.176 116.504 246.661C116.281 244.145 116.621 241.607 117.494 239.272C118.368 236.936 119.748 234.875 121.513 233.272C123.277 231.668 125.371 230.571 127.61 230.078C129.849 229.585 132.163 229.711 134.347 230.445C136.531 231.179 138.518 232.499 140.132 234.286C142.072 236.437 143.393 239.175 143.928 242.157C144.463 245.138 144.188 248.229 143.137 251.037C142.087 253.845 140.308 256.246 138.026 257.935C135.744 259.623 133.061 260.525 130.316 260.525L130.317 260.526ZM130.317 238.392C128.904 238.392 127.536 238.935 126.444 239.927C125.352 240.919 124.605 242.3 124.329 243.834C124.053 245.368 124.266 246.961 124.932 248.34C125.597 249.72 126.674 250.801 127.979 251.4C129.284 251.999 130.735 252.079 132.087 251.625C133.439 251.172 134.607 250.213 135.392 248.913C136.177 247.612 136.531 246.051 136.393 244.494C136.255 242.938 135.634 241.482 134.636 240.375C134.07 239.745 133.397 239.245 132.656 238.904C131.914 238.564 131.119 238.39 130.317 238.392Z" fill="white"/>
<path d="M230.487 260.529C228.664 260.534 226.857 260.139 225.172 259.366C223.487 258.592 221.958 257.456 220.672 256.024C218.403 253.509 216.991 250.201 216.678 246.662C216.364 243.124 217.168 239.575 218.952 236.619C220.736 233.664 223.39 231.485 226.463 230.454C229.535 229.422 232.834 229.603 235.8 230.964C238.765 232.325 241.213 234.783 242.726 237.919C244.238 241.054 244.723 244.674 244.096 248.161C243.47 251.648 241.771 254.786 239.29 257.041C236.808 259.297 233.697 260.529 230.487 260.529ZM226.169 249.937C227.167 251.044 228.481 251.733 229.887 251.887C231.293 252.041 232.704 251.65 233.879 250.781C235.053 249.913 235.92 248.619 236.33 247.122C236.741 245.625 236.67 244.017 236.13 242.571C235.589 241.125 234.613 239.932 233.367 239.194C232.122 238.456 230.683 238.219 229.298 238.524C227.912 238.829 226.665 239.657 225.769 240.867C224.872 242.076 224.382 243.592 224.382 245.157C224.38 246.045 224.537 246.925 224.843 247.745C225.15 248.565 225.601 249.311 226.169 249.937Z" fill="white"/>
</svg>
