<svg width="40" height="40" viewBox="0 0 40 40" fill="none" xmlns="http://www.w3.org/2000/svg">
<circle cx="20" cy="20" r="20" fill="#2883F7"/>
<path d="M9 10V24.375C9 25.1375 9.31607 25.8688 9.87868 26.4079C10.4413 26.9471 11.2044 27.25 12 27.25H15M9 10H7M9 10H31M31 10H33M31 10V24.375C31 25.1375 30.6839 25.8688 30.1213 26.4079C29.5587 26.9471 28.7957 27.25 28 27.25H25M15 27.25H25M15 27.25L13.6667 31.0833M25 27.25L26.3333 31.0833M26.3333 31.0833L27 33M26.3333 31.0833H13.6667M13.6667 31.0833L13 33M14 21.5L18 17.6667L20.864 20.4113C22.2096 18.5602 23.9629 17.0148 26 15.8842" stroke="white" stroke-width="1.5" stroke-linecap="round" stroke-linejoin="round"/>
</svg>
