<svg width="3863" height="720" viewBox="0 0 3863 720" fill="none" xmlns="http://www.w3.org/2000/svg">
<g clip-path="url(#clip0)">
<rect width="3863" height="720" fill="#253858"/>
<g filter="url(#filter0_d)">
<path d="M3559 -150H287H0V198V429L11.8798 419.199C198.506 265.233 459.345 238.419 673.393 351.196L753.891 393.609C941.507 492.461 1170.24 468.22 1332.97 332.241C1517.9 177.712 1784.49 169.571 1978.5 312.528L2060.4 372.875C2260.27 520.145 2537.76 499.242 2713.31 323.693L2735.24 301.765C2874.36 162.636 3086.71 127.686 3263.09 214.885L3299.49 232.882C3508.81 336.366 3762.33 248.689 3863 38V-150H3559Z" fill="white"/>
</g>
</g>
<defs>
<filter id="filter0_d" x="-121" y="-159" width="4105" height="862.765" filterUnits="userSpaceOnUse" color-interpolation-filters="sRGB">
<feFlood flood-opacity="0" result="BackgroundImageFix"/>
<feColorMatrix in="SourceAlpha" type="matrix" values="0 0 0 0 0 0 0 0 0 0 0 0 0 0 0 0 0 0 127 0"/>
<feOffset dy="112"/>
<feGaussianBlur stdDeviation="60.5"/>
<feColorMatrix type="matrix" values="0 0 0 0 0 0 0 0 0 0.121667 0 0 0 0 0.304167 0 0 0 0.25 0"/>
<feBlend mode="normal" in2="BackgroundImageFix" result="effect1_dropShadow"/>
<feBlend mode="normal" in="SourceGraphic" in2="effect1_dropShadow" result="shape"/>
</filter>
<clipPath id="clip0">
<rect width="3863" height="720" fill="white"/>
</clipPath>
</defs>
</svg>
