<svg width="360" height="360" viewBox="0 0 360 360" fill="none" xmlns="http://www.w3.org/2000/svg">
<circle cx="180" cy="180" r="180" fill="#2684FF"/>
<path d="M187.465 272.49C187.465 276.842 183.937 280.37 179.585 280.37C175.233 280.37 171.705 276.842 171.705 272.49C171.705 268.137 175.233 264.609 179.585 264.609C183.937 264.609 187.465 268.137 187.465 272.49Z" fill="#2684FF"/>
<rect x="156.773" y="79.6289" width="52.2581" height="2.48848" rx="1.24424" fill="#2684FF"/>
<rect x="150.966" y="79.6289" width="2.48848" height="2.48848" rx="1.24424" fill="#2684FF"/>
<g clip-path="url(#clip0)">
<path d="M207.605 77.3955C206.974 76.7065 206.083 76.3145 205.149 76.3145H156.14C155.213 76.3145 154.329 76.7004 153.699 77.3793C153.068 78.0581 152.749 78.969 152.818 79.8925L157.586 143.836C157.716 145.575 159.164 146.919 160.908 146.919H199.54C201.267 146.919 202.707 145.6 202.858 143.879L208.467 79.9358C208.548 79.0059 208.236 78.0836 207.605 77.3955Z" fill="white"/>
<path d="M202.83 143.074H157.172L148.291 199.913C148.184 200.597 148.293 201.297 148.603 201.917L176.671 258.052V192.905C173.295 191.572 170.898 188.284 170.898 184.441C170.898 179.422 174.981 175.338 180.001 175.338C185.02 175.338 189.104 179.422 189.104 184.441C189.104 188.284 186.706 191.572 183.331 192.905V258.052L211.399 201.917C211.708 201.298 211.817 200.597 211.711 199.913L202.83 143.074Z" fill="white"/>
<path d="M156.14 76.3145C155.213 76.3145 154.329 76.7004 153.699 77.3793C153.068 78.0581 152.749 78.969 152.818 79.8925L157.586 143.836C157.716 145.575 159.164 146.919 160.908 146.919H180.002V76.3145H156.14Z" fill="white"/>
<path d="M157.172 143.074L148.291 199.913C148.184 200.597 148.293 201.297 148.603 201.917L176.671 258.052V192.905C173.295 191.572 170.898 188.284 170.898 184.441C170.898 179.422 174.981 175.338 180.001 175.338V143.074H157.172Z" fill="white"/>
<path d="M227.96 274.808H132.044C130.205 274.808 128.714 273.316 128.714 271.477C128.714 269.638 130.204 268.146 132.044 268.146H227.96C229.8 268.146 231.291 269.638 231.291 271.477C231.291 273.316 229.8 274.808 227.96 274.808Z" fill="white"/>
<path d="M132.044 259.266H114.282C112.442 259.266 110.951 260.757 110.951 262.596V280.358C110.951 282.197 112.442 283.689 114.282 283.689H132.044C133.883 283.689 135.374 282.197 135.374 280.358V262.596C135.374 260.757 133.883 259.266 132.044 259.266Z" fill="white"/>
<path d="M245.721 259.266H227.959C226.12 259.266 224.629 260.757 224.629 262.596V280.358C224.629 282.197 226.119 283.689 227.959 283.689H245.721C247.561 283.689 249.052 282.197 249.052 280.358V262.596C249.052 260.757 247.561 259.266 245.721 259.266Z" fill="white"/>
<path d="M180.001 267.701C133.112 267.701 94.9648 229.554 94.9648 182.665C94.9648 180.825 96.4553 179.334 98.2954 179.334C100.135 179.334 101.626 180.825 101.626 182.665C101.626 225.881 136.785 261.04 180.001 261.04C223.217 261.04 258.377 225.88 258.377 182.665C258.377 180.825 259.867 179.334 261.707 179.334C263.547 179.334 265.038 180.825 265.038 182.665C265.038 229.554 226.891 267.701 180.001 267.701Z" fill="white"/>
</g>
<defs>
<clipPath id="clip0">
<rect width="207.373" height="207.373" fill="white" transform="translate(76.3149 76.3145)"/>
</clipPath>
</defs>
</svg>
