<svg width="360" height="360" viewBox="0 0 360 360" fill="none" xmlns="http://www.w3.org/2000/svg">
<circle cx="180" cy="180" r="180" fill="#2684FF"/>
<path d="M187.465 272.49C187.465 276.842 183.937 280.37 179.585 280.37C175.233 280.37 171.705 276.842 171.705 272.49C171.705 268.137 175.233 264.609 179.585 264.609C183.937 264.609 187.465 268.137 187.465 272.49Z" fill="#2684FF"/>
<rect x="156.772" y="79.6289" width="52.2581" height="2.48848" rx="1.24424" fill="#2684FF"/>
<rect x="150.968" y="79.6289" width="2.48848" height="2.48848" rx="1.24424" fill="#2684FF"/>
<g clip-path="url(#clip0)">
<path d="M141.836 140.313H130.384L161.605 228.567L179.084 178.62L165.533 140.313H153.45V131.904H206.956V140.313H194.426L225.646 228.567L236.869 196.496C251.591 155.407 224.803 142.608 224.803 133.438C224.803 124.268 232.237 116.835 241.406 116.835C241.902 116.835 242.384 116.862 242.856 116.906C227.319 102.239 206.369 93.2441 183.316 93.2441C153.194 93.2441 126.661 108.598 111.107 131.904H141.835V140.313H141.836Z" fill="white"/>
<path d="M96.5605 180.002C96.5605 213.217 115.229 242.067 142.643 256.646L103.492 145.973C99.0318 156.421 96.5605 167.923 96.5605 180.002Z" fill="white"/>
<path d="M258.821 137.25C260.062 144.557 259.687 152.769 257.782 161.014H258.127L256.815 164.762C256.038 167.469 255.059 170.238 253.948 172.958L224.096 256.589C251.452 241.993 270.073 213.173 270.073 180C270.073 164.456 265.981 149.869 258.821 137.25Z" fill="white"/>
<path d="M156.561 262.546C164.989 265.276 173.979 266.757 183.317 266.757C192.224 266.757 200.817 265.413 208.905 262.919L183.528 191.184L156.561 262.546Z" fill="white"/>
<path d="M256.635 106.683C237.051 87.0997 211.013 76.3145 183.317 76.3145C155.621 76.3145 129.584 87.0997 110 106.683C90.4161 126.267 79.6309 152.305 79.6309 180.001C79.6309 207.697 90.4161 233.735 110 253.318C129.584 272.902 155.622 283.687 183.317 283.687C211.013 283.687 237.051 272.902 256.635 253.318C276.219 233.735 287.004 207.696 287.004 180.001C287.004 152.305 276.218 126.267 256.635 106.683ZM183.317 276.373C130.177 276.373 86.9452 233.141 86.9452 180.001C86.9452 126.861 130.177 83.6288 183.317 83.6288C236.457 83.6288 279.689 126.861 279.689 180.001C279.689 233.141 236.457 276.373 183.317 276.373Z" fill="white"/>
</g>
<defs>
<clipPath id="clip0">
<rect width="207.373" height="207.373" fill="white" transform="translate(79.6309 76.3145)"/>
</clipPath>
</defs>
</svg>
