<svg width="68" height="25" viewBox="0 0 68 25" fill="none" xmlns="http://www.w3.org/2000/svg">
<path d="M6.03021 1.25L12.5927 18.6875L19.1396 1.25H24.249V24H20.3115V16.5L20.7021 6.46875L13.9833 24H11.1552L4.45208 6.48438L4.84271 16.5V24H0.905209V1.25H6.03021ZM46.3906 21.0469C45.5677 22.1198 44.4271 22.9323 42.9688 23.4844C41.5104 24.0365 39.8542 24.3125 38 24.3125C36.0938 24.3125 34.4062 23.8802 32.9375 23.0156C31.4688 22.151 30.3333 20.9167 29.5312 19.3125C28.7396 17.6979 28.3281 15.8177 28.2969 13.6719V11.8906C28.2969 8.45312 29.1198 5.77083 30.7656 3.84375C32.4115 1.90625 34.7083 0.9375 37.6562 0.9375C40.1875 0.9375 42.1979 1.5625 43.6875 2.8125C45.1771 4.0625 46.0729 5.86458 46.375 8.21875H42.5C42.0625 5.47917 40.474 4.10938 37.7344 4.10938C35.9635 4.10938 34.6146 4.75 33.6875 6.03125C32.7708 7.30208 32.2969 9.17188 32.2656 11.6406V13.3906C32.2656 15.849 32.7812 17.7604 33.8125 19.125C34.8542 20.4792 36.2969 21.1562 38.1406 21.1562C40.1615 21.1562 41.599 20.6979 42.4531 19.7812V15.3281H37.7656V12.3281H46.3906V21.0469ZM59.1104 15.2344H54.7042V24H50.751V1.25H58.751C61.376 1.25 63.4021 1.83854 64.8292 3.01562C66.2562 4.19271 66.9698 5.89583 66.9698 8.125C66.9698 9.64583 66.6 10.9219 65.8604 11.9531C65.1312 12.974 64.1104 13.7604 62.7979 14.3125L67.9073 23.7969V24H63.6729L59.1104 15.2344ZM54.7042 12.0625H58.7667C60.1 12.0625 61.1417 11.7292 61.8917 11.0625C62.6417 10.3854 63.0167 9.46354 63.0167 8.29688C63.0167 7.07812 62.6677 6.13542 61.9698 5.46875C61.2823 4.80208 60.251 4.45833 58.876 4.4375H54.7042V12.0625Z" fill="white"/>
</svg>
