<svg xmlns="http://www.w3.org/2000/svg" xmlns:xlink="http://www.w3.org/1999/xlink" width="8000" height="8000" viewBox="0 0 8000 8000">
  <defs>
    <filter id="Ellipse_30" x="4518.377" y="1174.434" width="314.03" height="296.091" filterUnits="userSpaceOnUse">
      <feOffset dy="3" input="SourceAlpha"/>
      <feGaussianBlur stdDeviation="4.5" result="blur"/>
      <feFlood flood-color="#f6aabd"/>
      <feComposite operator="in" in2="blur"/>
      <feComposite in="SourceGraphic"/>
    </filter>
    <filter id="Ellipse_31" x="5163.639" y="977.564" width="403.727" height="421.666" filterUnits="userSpaceOnUse">
      <feOffset dy="3" input="SourceAlpha"/>
      <feGaussianBlur stdDeviation="4.5" result="blur-2"/>
      <feFlood flood-color="#f6aabd"/>
      <feComposite operator="in" in2="blur-2"/>
      <feComposite in="SourceGraphic"/>
    </filter>
    <filter id="Path_169" x="5754.639" y="28" width="2278.361" height="1829.875" filterUnits="userSpaceOnUse">
      <feOffset input="SourceAlpha"/>
      <feGaussianBlur stdDeviation="3" result="blur-3"/>
      <feFlood flood-color="#d62230"/>
      <feComposite operator="in" in2="blur-3"/>
      <feComposite in="SourceGraphic"/>
    </filter>
    <clipPath id="clip-RubyDeveloper">
      <rect width="8000" height="8000"/>
    </clipPath>
  </defs>
  <g id="RubyDeveloper" clip-path="url(#clip-RubyDeveloper)">
    <g id="Group_255" data-name="Group 255" transform="translate(3825 18475)">
      <path id="Path_96" data-name="Path 96" d="M1835.056,117.61H1065.241A753.86,753.86,0,0,0,312.685,914.128L417.7,2772.394H2482.267L2587.612,914.126A753.694,753.694,0,0,0,1835.056,117.61Z" transform="translate(-1429.064 -16127.406)" fill="#253858"/>
      <path id="Path_101" data-name="Path 101" d="M689.859,128.591h668.7a348.112,348.112,0,0,1,348.274,348.6v290.96H341.75V477.189a348.109,348.109,0,0,1,348.109-348.6Z" transform="translate(-966.416 -15973.907)" fill="#ffb5b8"/>
      <path id="Path_170" data-name="Path 170" d="M318.71,46.242c-58.033,61.41-50.818,133.042-46.979,209.015,3.027,60.029-16.712,115.605-49.238,165.326C160.16,515.923,59.206,584.264,17.4,693.137-23.37,799.245,15.034,862.63,55.411,957.707c33.82,79.658,29.7,149.557,9.453,231.014-22.722,91.414-45.509,175.853-46.321,272.948-.329,39.346-9.5,97.314,3.992,134.4,17.063,47,77.268,83.584,118.742,105.012C213,1738.17,299.19,1719.9,349.371,1654.871c66.565-86.194,43.272-208.511,121.746-287.971,85.536-86.83,168.375-183.179,181.534-310.431,8.619-83.343-23.161-163.944-13.839-247.528,7.808-70.184,58.713-131.594,74.46-201.778,19.564-87.225,25.836-166.686,8.005-256.609-9.782-49.392-17.546-95.691-37.548-143.24C651.248,130.045,634.755,59.6,551.061,25.625,474.8-5.409,379.813-18.393,318.71,46.242Z" transform="translate(-177.373 -17112.777) rotate(-22)" fill="#c1272d"/>
      <rect id="Rectangle_44" data-name="Rectangle 44" width="7829.939" height="145.328" rx="8.87" transform="translate(-3801 -10625.078)" fill="#4a90e2"/>
      <path id="Path_98" data-name="Path 98" d="M513.617,169.44,323.931,880.964A123.745,123.745,0,0,0,444.582,1036.62l385.72-3.093" transform="translate(-1302.725 -15334.842)" fill="#ffb5b8"/>
      <path id="Path_99" data-name="Path 99" d="M740.236,169.44,930.084,880.964A123.907,123.907,0,0,1,809.435,1036.62l-385.885-3.093" transform="translate(283.66 -15334.842)" fill="#ffb5b8"/>
      <path id="Path_102" data-name="Path 102" d="M695.163,353.695V113.86H420V353.695H372.29a252.7,252.7,0,0,0,370.417,0Z" transform="translate(-499.699 -16205.498)" fill="#f6d4b4"/>
      <path id="Path_103" data-name="Path 103" d="M888.96,46.52H813.9C532.872,46.52,317.462,305.4,358,593.759l44.126,310.172c20.275,161.483,156.395,283.365,319.127,285.75H980.791c162.807-2.113,299.032-124.152,318.965-285.75l44.123-310.172C1384.912,305.4,1169.5,46.52,888.96,46.52Z" transform="translate(-793.143 -17252.006)" fill="#f6d4b4"/>
      <ellipse id="Ellipse_24" data-name="Ellipse 24" cx="133.35" cy="175.683" rx="133.35" ry="175.683" transform="matrix(0.497, -0.868, 0.868, 0.497, -669.215, -16380.102)" fill="#f6d4b4"/>
      <ellipse id="Ellipse_25" data-name="Ellipse 25" cx="175.683" cy="133.35" rx="175.683" ry="133.35" transform="matrix(0.868, -0.497, 0.497, 0.868, 338.5, -16437)" fill="#f6d4b4"/>
      <path id="Path_104" data-name="Path 104" d="M813.8,569.941H606.534A125.7,125.7,0,0,1,481,444.407V317.081A125.534,125.534,0,0,1,606.536,191.71H813.8A125.37,125.37,0,0,1,939.175,317.081V444.407A125.53,125.53,0,0,1,813.8,569.941ZM606.534,255.535a61.71,61.71,0,0,0-61.545,61.546V444.407a61.545,61.545,0,0,0,61.545,61.546H813.8a61.545,61.545,0,0,0,61.546-61.546V317.081A61.708,61.708,0,0,0,813.8,255.535Z" transform="translate(1161.609 -14991.976)" fill="#253858"/>
      <path id="Path_105" data-name="Path 105" d="M765.91,184.13H465.67l56.825,624.9H940.78L997.6,184.13Z" transform="translate(927.338 -15107.909)" fill="#253858"/>
      <path id="Path_106" data-name="Path 106" d="M1519.531,142.91H464.293a134.977,134.977,0,0,0-134.816,142.3L386.79,1315.542A135.14,135.14,0,0,0,521.6,1443.519h1494.2a135.306,135.306,0,0,0,134.978-127.978L2208.1,285.214a135.143,135.143,0,0,0-134.815-142.3Z" transform="translate(-1157.016 -15745.185)" fill="#fff"/>
      <circle id="Ellipse_26" data-name="Ellipse 26" cx="165.588" cy="165.588" r="165.588" transform="translate(-122.484 -15022.292) rotate(-45)" fill="#fff"/>
      <path id="Path_107" data-name="Path 107" d="M530.9,247.923A74.246,74.246,0,1,1,457.147,174,74.244,74.244,0,0,1,530.9,247.923Z" transform="translate(-345.045 -15269.785)" fill="#253858"/>
      <g id="Group_145" data-name="Group 145" transform="translate(-827.734 -15601.638)">
        <path id="Path_108" data-name="Path 108" d="M1772.226,939.467c-216.877-57.313-439.615-87.6-656.654-147.678-127-35.332-252.859-81.41-360.484-158.262A751.739,751.739,0,0,1,458.1,179.1c-2.442-12.049-4.722-24.1-6.512-36.147A134.977,134.977,0,0,0,329.477,284.6l57.312,1030.326A135.138,135.138,0,0,0,521.6,1442.906h1494.2a135.3,135.3,0,0,0,134.979-127.977l12.372-223.714a1649.976,1649.976,0,0,0-390.931-151.747Z" transform="translate(-329.278 -142.95)" fill="rgba(13,5,242,0.06)"/>
      </g>
      <rect id="Rectangle_46" data-name="Rectangle 46" width="1794.443" height="110.881" rx="1.79" transform="translate(-785.531 -14400.312)" fill="#e9e9e9"/>
      <path id="Path_109" data-name="Path 109" d="M179.09,203.52H1293.756A85.481,85.481,0,0,1,1379.238,289V407.7a85.48,85.48,0,0,1-85.482,85.479H179.09Z" transform="translate(-2752.059 -14808.742)" fill="#cdebed"/>
      <g id="Group_146" data-name="Group 146" transform="translate(-2572.971 -14605.859)">
        <path id="Path_110" data-name="Path 110" d="M1362.305,388.648a141.2,141.2,0,0,1-4.885,35.332,144.258,144.258,0,0,0-123.091-220.458H179.09V243.9H1217.4a144.911,144.911,0,0,1,144.91,144.748Z" transform="translate(-179.09 -203.52)" fill="#cdebed"/>
      </g>
      <path id="Path_111" data-name="Path 111" d="M1260.156,202.25H177.4v41.356H1260.156a124.232,124.232,0,1,1,0,248.3H177.4v41.52H1260.156a165.588,165.588,0,1,0,0-331.176Z" transform="translate(-2777.887 -14828.168)" fill="#253858"/>
      <path id="Path_112" data-name="Path 112" d="M1150.3,222H189.658a6.839,6.839,0,0,1,0-13.677H1150.3a6.84,6.84,0,1,1,0,13.677Z" transform="translate(-2695.057 -14736.439)" fill="#fff"/>
      <path id="Path_113" data-name="Path 113" d="M1150.3,225.676H189.658a6.838,6.838,0,1,1,0-13.676H1150.3a6.838,6.838,0,1,1,0,13.676Z" transform="translate(-2695.057 -14679.163)" fill="#fff"/>
      <path id="Path_114" data-name="Path 114" d="M1149.453,229.586H188.813a7,7,0,0,1,0-13.839h960.64a7,7,0,1,1,0,13.839Z" transform="translate(-3394.338 -14622.105)" fill="#fff"/>
      <path id="Path_115" data-name="Path 115" d="M185.85,171.44h856.435a74.083,74.083,0,0,1,74.083,74.246v102.9a74.083,74.083,0,0,1-74.083,74.083H185.85Z" transform="translate(-2648.752 -15308.864)" fill="#cdebed"/>
      <g id="Group_147" data-name="Group 147" transform="translate(-2462.906 -15137.886)">
        <path id="Path_116" data-name="Path 116" d="M1101.714,331.982a125.024,125.024,0,0,1-4.232,30.61A125.047,125.047,0,0,0,990.835,171.441H185.85v35.006H976.018A125.7,125.7,0,0,1,1101.714,331.982Z" transform="translate(-185.85 -171.44)" fill="#cdebed"/>
      </g>
      <path id="Path_117" data-name="Path 117" d="M1013.3,170.34H184.38v35.984H1013.3a107.624,107.624,0,1,1,0,215.247H184.38V457.88H1013.3a143.607,143.607,0,0,0,0-287.215Z" transform="translate(-2671.217 -15325.738)" fill="#59afec"/>
      <path id="Path_118" data-name="Path 118" d="M917.863,187.649H195.1a6.024,6.024,0,1,1,0-12.048H917.863a6.024,6.024,0,0,1,0,12.049Z" transform="translate(-2599.393 -15245.938)" fill="#fff"/>
      <path id="Path_119" data-name="Path 119" d="M917.863,190.839H195.1a6.024,6.024,0,1,1,0-12.048H917.863a6.024,6.024,0,0,1,0,12.049Z" transform="translate(-2599.393 -15196.232)" fill="#fff"/>
      <path id="Path_120" data-name="Path 120" d="M917.863,194.028H195.1a6.024,6.024,0,1,1,0-12.048H917.863a6.024,6.024,0,0,1,0,12.048Z" transform="translate(-2599.393 -15146.57)" fill="#fff"/>
      <path id="Path_121" data-name="Path 121" d="M171,188.9h991.9a61.22,61.22,0,0,1,61.22,61.22v85.155A61.221,61.221,0,0,1,1162.9,396.5H171Z" transform="translate(-2875.69 -15037.222)" fill="#cdebed"/>
      <g id="Group_148" data-name="Group 148" transform="translate(-2704.695 -14849.4)">
        <path id="Path_122" data-name="Path 122" d="M1212.072,321.4a108.578,108.578,0,0,1-3.419,25.4,103.228,103.228,0,0,0-88.249-157.935H171v28.82h937.193A103.713,103.713,0,0,1,1212.072,321.4Z" transform="translate(-171 -188.86)" fill="#cdebed"/>
      </g>
      <path id="Path_123" data-name="Path 123" d="M1138.9,188.077H169.79V217.71H1138.9a89.062,89.062,0,0,1,0,177.962H169.79v29.633H1138.9a118.7,118.7,0,1,0,0-237.229Z" transform="translate(-2894.183 -15051.067)" fill="#fca70c"/>
      <path id="Path_124" data-name="Path 124" d="M1059.073,202.262H177.89a5.047,5.047,0,0,1,0-9.932h881.672a5.047,5.047,0,0,1,0,9.932Z" transform="translate(-2833.736 -14985.467)" fill="#fff"/>
      <path id="Path_125" data-name="Path 125" d="M1059.768,204.9H178.584a5.046,5.046,0,0,1-4.884-5.047,4.884,4.884,0,0,1,4.884-4.884h881.672a4.723,4.723,0,0,1,4.885,4.885,4.885,4.885,0,0,1-5.373,5.048Z" transform="translate(-2834.432 -14944.348)" fill="#fff"/>
      <path id="Path_126" data-name="Path 126" d="M1059.768,207.532H178.584a4.884,4.884,0,0,1-4.884-4.884,5.047,5.047,0,0,1,4.884-5.048h881.672a4.886,4.886,0,0,1,4.885,5.048,4.722,4.722,0,0,1-5.373,4.884Z" transform="translate(-2834.432 -14903.398)" fill="#fff"/>
      <path id="Path_127" data-name="Path 127" d="M474.235,68.7,377.52,465.167H577.626Z" transform="translate(-419.771 -16908.844)" fill="#f6d4b4"/>
      <path id="Path_128" data-name="Path 128" d="M427.285,132.466c0,27.191-12.7,48.846-28.168,48.846s-28.168-21.981-28.168-48.846S383.486,83.62,399.117,83.62,427.285,106.089,427.285,132.466Z" transform="translate(-520.176 -16677.656)" fill="#070707"/>
      <path id="Path_129" data-name="Path 129" d="M449.257,132.466c0,27.191-12.537,48.846-28.168,48.846s-28.17-21.981-28.17-48.846,12.7-48.846,28.17-48.846S449.257,106.089,449.257,132.466Z" transform="translate(-184.426 -16677.656)" fill="#070707"/>
      <path id="Path_130" data-name="Path 130" d="M466.769,183.3a90.043,90.043,0,0,1-88.25-68.384,15.306,15.306,0,0,1,29.634-7.49,60.406,60.406,0,0,0,117.067,0,15.305,15.305,0,1,1,29.635,7.49A88.9,88.9,0,0,1,466.769,183.3Z" transform="translate(-408.885 -16399.906)" fill="#c1272d"/>
      <path id="Path_131" data-name="Path 131" d="M402.978,158.534a167.216,167.216,0,0,1,157.935-37.612A22.958,22.958,0,0,0,573.125,76.8a215.412,215.412,0,0,0-202.549,48.846c-21.981,19.7,10.42,51.94,32.564,32.564Z" transform="translate(-637.844 -16903.797)" fill="#253858"/>
      <path id="Path_132" data-name="Path 132" d="M575.746,158.535a167.541,167.541,0,0,0-158.1-37.612A22.958,22.958,0,0,1,405.436,76.8a215.409,215.409,0,0,1,202.547,48.846c21.982,19.7-10.419,51.939-32.564,32.564Z" transform="translate(-225.113 -16903.797)" fill="#253858"/>
      <path id="Path_143" data-name="Path 143" d="M551.445,327.263,316.007,2634.589a30.609,30.609,0,0,0,27.352,31.1h0a36.311,36.311,0,0,0,44.614-24.748L726.965,282.65" transform="translate(-1359.932 -13530.536)" fill="#253858"/>
      <path id="Path_144" data-name="Path 144" d="M601.329,327.264,836.278,2634.589a30.772,30.772,0,0,1-27.353,31.1h0a36.311,36.311,0,0,1-44.614-24.75L425.32,282.65" transform="translate(310.707 -13530.536)" fill="#253858"/>
      <path id="Path_145" data-name="Path 145" d="M709.242,581.077l16.282,348.434s280.212,43.8,294.7,217.039c-491.878,4.07-635-26.051-635-26.051L493.994,382.11" transform="translate(-301.949 -12010.592)" fill="#f6d4b4"/>
      <rect id="Rectangle_52" data-name="Rectangle 52" width="2353.405" height="606.831" rx="10.97" transform="translate(-1124.848 -13845.381)" fill="#132f5f"/>
      <path id="Path_146" data-name="Path 146" d="M410.408,265.25,387.45,2420.5l360.159,11.724L1004.051,293.256" transform="translate(-268.023 -13796.465)" fill="#272829"/>
      <path id="Path_147" data-name="Path 147" d="M1027.327,768.023C1012.673,592.5,728.714,548.052,728.714,548.052L722.69,412.26a2525.389,2525.389,0,0,0-288.843-2.442L385,741.483S528.771,772.745,1027.327,768.023Z" transform="translate(-305.465 -11633.025)" fill="#253858"/>
      <path id="Path_148" data-name="Path 148" d="M330.83,250.72s43.636,395.164,232.508,431.8,997.6-49.824,997.6-49.824l-51.289-252.208Z" transform="translate(-1133.293 -14071.679)" fill="#272829"/>
      <path id="Path_149" data-name="Path 149" d="M465.67,505.355l200.757,75.711S621,1057.313,807.755,1082.714c46.729-330.851,60.078-685.635,60.078-685.635L532.752,274.15" transform="translate(927.338 -13701.672)" fill="#f6d4b4"/>
      <path id="Path_150" data-name="Path 150" d="M572.509,700.847l1984.617,440.917L2673.38,830.125,1448.645,295.1,364.1,237.46S207.955,619.763,572.509,700.847Z" transform="translate(-1132.857 -14272.949)" fill="#272829"/>
      <path id="Path_151" data-name="Path 151" d="M554.16,277.87C524.04,351.628,500.1,429.292,475.03,505.818l48.848,18.562s-45.428,476.249,141.328,501.65c46.729-330.852,60.08-685.637,60.08-685.637Z" transform="translate(1070.379 -13644.475)" fill="#253858"/>
      <path id="Path_152" data-name="Path 152" d="M445.525,246.77,198.2,3446.512a40.706,40.706,0,0,0,28.819,43.148h0a38.425,38.425,0,0,0,46.892-34.355l399.4-3168.318" transform="translate(-3163.407 -14078.849)" fill="#253858"/>
      <path id="Path_153" data-name="Path 153" d="M767.35,246.77l247.159,3199.742a40.7,40.7,0,0,1-28.819,43.148h0A38.424,38.424,0,0,1,938.8,3455.3L539.4,286.986" transform="translate(2054.082 -14078.849)" fill="#253858"/>
      <rect id="Rectangle_53" data-name="Rectangle 53" width="6731.807" height="518.745" rx="5.13" transform="translate(-3314.128 -14229.98)" fill="#132f5f"/>
      <rect id="Rectangle_54" data-name="Rectangle 54" width="7688.375" height="199.292" rx="5.13" transform="translate(-3792.496 -14291.266)" fill="#253858"/>
      <ellipse id="Ellipse_27" data-name="Ellipse 27" cx="77.991" cy="60.081" rx="77.991" ry="60.081" transform="matrix(0.868, -0.497, 0.497, 0.868, 452.475, -16419.639)" fill="#fcca9c"/>
      <ellipse id="Ellipse_28" data-name="Ellipse 28" cx="77.991" cy="60.081" rx="77.991" ry="60.081" transform="translate(-438.584 -16315.099) rotate(-149.79)" fill="#fcca9c"/>
      <path id="Path_135" data-name="Path 135" d="M1197.662,74.91h-172.59A119.184,119.184,0,0,0,906.214,183.348c-67.407-36.8-113.974-18.4-142.144,0A119.018,119.018,0,0,0,645.7,74.91H473.112A119.185,119.185,0,0,0,354.09,193.932V294.554A119.185,119.185,0,0,0,473.112,413.576H645.7a119.185,119.185,0,0,0,119.02-119.022V221.937c19.213-16.282,62.36-54.87,141-3.745v76.363a119.022,119.022,0,0,0,118.858,119.022h172.59A119.185,119.185,0,0,0,1316.2,294.554V193.932A119.184,119.184,0,0,0,1197.662,74.91ZM727.111,294.554a81.409,81.409,0,0,1-81.409,81.41H473.112a81.409,81.409,0,0,1-81.41-81.41V193.932a81.41,81.41,0,0,1,81.41-81.41H645.7a81.409,81.409,0,0,1,81.409,81.41Zm551.473,0a81.41,81.41,0,0,1-81.41,81.41h-172.1a81.409,81.409,0,0,1-81.409-81.41V193.932a81.41,81.41,0,0,1,81.409-81.41h172.59a81.41,81.41,0,0,1,81.409,81.41Z" transform="translate(-777.832 -16812.322)" fill="#fff"/>
      <g transform="matrix(1, 0, 0, 1, -3825, -18475)" filter="url(#Ellipse_30)">
        <g id="Ellipse_30-2" data-name="Ellipse 30" transform="translate(4531.88 1184.93)" fill="#fff" stroke="#c1272d" stroke-width="6">
          <ellipse cx="143.515" cy="134.545" rx="143.515" ry="134.545" stroke="none"/>
          <ellipse cx="143.515" cy="134.545" rx="140.515" ry="131.545" fill="none"/>
        </g>
      </g>
      <g transform="matrix(1, 0, 0, 1, -3825, -18475)" filter="url(#Ellipse_31)">
        <g id="Ellipse_31-2" data-name="Ellipse 31" transform="translate(5177.14 988.06)" fill="#fff" stroke="#c1272d" stroke-width="5">
          <ellipse cx="188.363" cy="197.333" rx="188.363" ry="197.333" stroke="none"/>
          <ellipse cx="188.363" cy="197.333" rx="185.863" ry="194.833" fill="none"/>
        </g>
      </g>
      <g transform="matrix(1, 0, 0, 1, -3825, -18475)" filter="url(#Path_169)">
        <path id="Path_169-2" data-name="Path 169" d="M1130.181,0c624.182,0,1130.181,405.6,1130.181,905.938s-506,905.937-1130.181,905.937S0,1406.273,0,905.938,506,0,1130.181,0Z" transform="translate(5763.64 37)" fill="#fff"/>
      </g>
      <g id="OBJECTS" transform="translate(2494.76 -18043.33)">
        <path id="Path_155" data-name="Path 155" d="M1195.365,349.843,906.314,28H334.357L46.73,349.454l580.947,683.592Z" transform="translate(-46.471 -25.478)" fill="#d62230"/>
        <path id="Path_156" data-name="Path 156" d="M46.69,78,621.428,768.577,334.059,78Z" transform="translate(-46.69 247.917)" fill="#f15a24" opacity="0.8"/>
        <path id="Path_157" data-name="Path 157" d="M135.55,353.527h574.8L422.984,27.61Z" transform="translate(439.188 -27.61)" fill="#f15a24" opacity="0.8"/>
        <path id="Path_158" data-name="Path 158" d="M135.55,768.577,710.352,78H422.984Z" transform="translate(439.188 247.917)" fill="#d62230" opacity="0.8"/>
        <path id="Path_159" data-name="Path 159" d="M91.12,353.527h574.8L378.489,27.61Z" transform="translate(196.249 -27.61)" fill="#ff5468" opacity="0.9"/>
        <path id="Path_160" data-name="Path 160" d="M334.059,27.61,46.69,353.527H621.428Z" transform="translate(-46.69 -27.61)" fill="#f15a24" opacity="0.8"/>
        <path id="Path_161" data-name="Path 161" d="M91.05,78H666.758L378.871,768.577Z" transform="translate(195.866 247.917)" fill="#d62230" opacity="0.8"/>
        <path id="Path_162" data-name="Path 162" d="M136,774.14V78H420.976Z" transform="translate(441.648 247.917)" fill="#c1272d"/>
        <path id="Path_163" data-name="Path 163" d="M621.428,768.972,1196.23,78.46l-145.98,1.164-428.822,692-421-692L46.69,78.46Z" transform="translate(-46.69 250.433)" fill="#c1272d"/>
        <path id="Path_164" data-name="Path 164" d="M136,28.14V353.6L278.617,192.619Z" transform="translate(441.648 -24.712)" fill="#d40025"/>
        <path id="Path_165" data-name="Path 165" d="M179.99,27.61,323.383,353.527H180.443Z" transform="translate(682.181 -27.61)" fill="#d40025"/>
        <path id="Path_166" data-name="Path 166" d="M204.087,28.14,70.46,354.769,203.634,353.6Z" transform="translate(83.282 -24.712)" fill="#d40025"/>
        <path id="Path_167" data-name="Path 167" d="M665.923,28,378.489,349,91.12,28Z" transform="translate(196.249 -25.478)" fill="#d62230" opacity="0.8"/>
        <path id="Path_168" data-name="Path 168" d="M138.242,183.58l-1.682,2.782.582-1.423Z" transform="translate(444.711 825.218)" fill="#d62230"/>
      </g>
      <path id="Path_172" data-name="Path 172" d="M1260.575,8606.432c70.075-17.677,110.33-167.836,189.262-197.95,78.933-30.077,179.4,14.761,251.152-54.189s68.168-13.493,240.387,54.189c172.219,67.718,213.837,175.286,213.837,175.286-20.092-30.108,2.874-66.2,17.221-48.137,14.353,18.028,88.981,216.63,66.016,273.794s170.964-175.073,130.781-343.591c-40.185-168.472-118.881-293.589-302.578-404.911-65.03-39.407-149.395-65.476-217.665-80.247-110.068-23.838-203.045-9.322-321.713,27.564-48.763,15.2-92.17,39.812-131.558,62.706-79.108,45.863-129.988,100.817-154.875,137.9l-32.593,57.664-21.823,68.962-17.939,90.264-9.566,101.554c-3.586,38.866,60.392,319.829,81.921,310.446S1260.575,8606.432,1260.575,8606.432Z" transform="translate(-1690.473 -25399.408)" fill="#c1272d"/>
    </g>
  </g>
</svg>
