<svg width="1920" height="4390" viewBox="0 0 1920 4390" fill="none" xmlns="http://www.w3.org/2000/svg">
<path opacity="0.105263" d="M-311.066 3680.61C-256.825 3771.13 -70.0397 3932.7 243.178 3854.8C634.699 3757.43 818.724 3409.59 1175.1 3256.66C1438.14 3143.78 2127.6 3005.32 2487.21 3276.2" stroke="#D7AAAA" stroke-width="3"/>
<path opacity="0.157895" d="M-358.313 3501.38C-313.832 3597.07 -144.958 3777.28 174.686 3732.55C574.24 3676.64 793.616 3349.94 1164.03 3235.1C1437.42 3150.34 2137.58 3084.7 2466.9 3391.68" stroke="#D7AAAA" stroke-width="3"/>
<path opacity="0.210526" d="M-390.102 3321.37C-355.867 3421.2 -206.756 3618.07 115.813 3607C519.023 3593.15 771.346 3291.18 1151.73 3215.68C1432.49 3159.96 2135.67 3167.87 2431.1 3507.59" stroke="#D7AAAA" stroke-width="3"/>
<path opacity="0.263158" d="M-406.436 3142.22C-382.823 3245.07 -255.107 3456.45 66.8515 3479.16C469.3 3507.54 751.806 3233.59 1138 3198.27C1423.04 3172.2 2121.54 3253.57 2379.85 3622.31" stroke="#D7AAAA" stroke-width="3"/>
<path opacity="0.315789" d="M-407.488 2965.52C-394.756 3070.28 -289.834 3293.85 27.9871 3350.08C425.264 3420.38 734.858 3177.46 1122.63 3182.7C1408.83 3186.57 2095 3340.5 2313.35 3734.23" stroke="#D7AAAA" stroke-width="3"/>
<path opacity="0.368421" d="M-393.6 2792.86C-391.887 2898.37 -310.91 3131.69 -0.707915 3220.84C387.045 3332.27 720.335 3123.05 1105.43 3168.79C1389.67 3202.56 2055.99 3427.37 2231.98 3841.76" stroke="#D7AAAA" stroke-width="3"/>
<path opacity="0.421053" d="M-365.274 2625.78C-374.6 2730.89 -318.454 2971.4 -19.2701 3092.48C354.71 3243.84 708.045 3070.6 1086.25 3156.35C1365.4 3219.64 2004.57 3512.87 2136.28 3943.39" stroke="#D7AAAA" stroke-width="3"/>
<path opacity="0.473684" d="M-323.173 2465.76C-343.435 2569.32 -312.737 2814.38 -27.8486 2966.07C328.262 3155.69 697.769 3020.33 1064.94 3145.14C1335.94 3237.27 1940.96 3595.7 2026.95 4037.63" stroke="#D7AAAA" stroke-width="3"/>
<path opacity="0.526316" d="M-268.111 2314.2C-299.088 2415.08 -294.173 2662 -26.7012 2842.64C307.638 3068.44 689.27 2972.45 1041.38 3134.96C1301.27 3254.9 1865.51 3674.62 1904.83 4123.11" stroke="#D7AAAA" stroke-width="3"/>
<path opacity="0.578947" d="M-201.043 2172.4C-242.395 2269.49 -263.317 2515.57 -16.1929 2723.18C292.712 2982.7 682.287 2927.12 1015.49 3125.55C1261.41 3272 1778.68 3748.4 1770.91 4198.55" stroke="#D7AAAA" stroke-width="3"/>
<path opacity="0.631579" d="M-123.056 2041.58C-174.33 2133.82 -220.859 2376.36 3.20933 2608.67C283.295 2899.05 676.546 2884.5 987.178 3116.67C1216.45 3288.02 1681.09 3815.88 1626.31 4262.75" stroke="#D7AAAA" stroke-width="3"/>
<path opacity="0.684211" d="M-35.3567 1922.81C-95.9903 2009.18 -167.618 2245.53 30.9408 2499.99C279.139 2818.06 671.756 2844.69 956.418 3108.06C1166.52 3302.44 1573.44 3875.98 1472.25 4314.67" stroke="#D7AAAA" stroke-width="3"/>
<path opacity="0.736842" d="M60.7427 1817.04C-8.58681 1896.6 -104.528 2124.17 66.3456 2397.99C279.937 2740.26 667.619 2807.78 923.193 3099.46C1111.83 3314.74 1456.57 3927.67 1310.07 4353.38" stroke="#D7AAAA" stroke-width="3"/>
<path opacity="0.789474" d="M163.837 1725.08C86.5709 1796.95 -32.632 2013.25 108.684 2303.43C285.328 2666.15 663.828 2773.83 887.512 3090.63C1052.61 3324.44 1331.39 3970.05 1141.2 4378.12" stroke="#D7AAAA" stroke-width="3"/>
<path opacity="0.842105" d="M272.444 1647.58C188.089 1710.98 46.9299 1913.63 157.14 2216.99C294.902 2596.19 660.072 2742.85 849.417 3081.29C989.168 3331.08 1198.94 4002.29 967.139 4388.25" stroke="#D7AAAA" stroke-width="3"/>
<path opacity="0.894737" d="M385.024 1585.04C294.502 1639.28 132.934 1826.06 210.83 2139.28C308.201 2530.8 656.04 2714.83 808.972 3071.2C921.847 3334.24 1060.31 4023.7 789.435 4383.31" stroke="#D7AAAA" stroke-width="3"/>
<path opacity="0.947368" d="M499.988 1537.79C404.293 1582.27 224.086 1751.14 268.815 2070.79C324.727 2470.34 651.425 2689.72 766.267 3060.13C851.029 3333.52 916.668 4033.68 609.685 4363" stroke="#D7AAAA" stroke-width="3"/>
<path d="M615.727 1506C515.907 1540.23 319.034 1689.35 330.107 2011.91C343.947 2415.13 645.925 2667.45 721.419 3047.84C777.14 3328.59 769.232 4031.77 429.508 4327.2" stroke="#D7AAAA" stroke-width="3"/>
<path d="M668.592 -888.809C642.224 -607.296 644.186 -143.268 1347.7 -10.5359C2242.98 158.375 2341.68 -522.451 2803.94 44.8631" stroke="#F8E9E9" stroke-width="8.2894"/>
<path d="M589.014 -826.343C562.646 -544.83 564.607 -80.8015 1268.12 51.9303C2163.4 220.841 2262.1 -459.985 2724.36 107.329" stroke="#F8E9E9" stroke-width="8.2894"/>
<path d="M508.838 -764.238C482.47 -482.724 484.431 -18.696 1187.95 114.036C2083.22 282.947 2181.92 -397.88 2644.19 169.435" stroke="#F8E9E9" stroke-width="8.2894"/>
<path d="M430.281 -701.155C403.913 -419.641 405.874 44.387 1109.39 177.119C2004.66 346.03 2103.36 -334.797 2565.63 232.518" stroke="#F8E9E9" stroke-width="8.2894"/>
<path d="M354.974 -636.128C328.605 -354.615 330.567 109.414 1034.08 242.146C1929.36 411.056 2028.06 -269.77 2490.32 297.545" stroke="#F8E9E9" stroke-width="8.2894"/>
<path d="M284.094 -568.495C257.725 -286.982 259.687 177.046 963.203 309.778C1858.48 478.689 1957.18 -202.137 2419.44 365.177" stroke="#F8E9E9" stroke-width="8.2894"/>
<path d="M218.451 -497.836C192.083 -216.322 194.044 247.706 897.56 380.438C1792.83 549.349 1891.53 -131.478 2353.8 435.837" stroke="#F8E9E9" stroke-width="8.2894"/>
<path d="M158.1 -423.515C131.732 -142.002 133.694 322.027 837.21 454.758C1732.48 623.669 1831.18 -57.1571 2293.45 510.157" stroke="#F8E9E9" stroke-width="8.2894"/>
<path d="M101.847 -347.586C75.4785 -66.0726 77.4397 397.956 780.956 530.688C1676.23 699.598 1774.93 18.7723 2237.2 586.087" stroke="#F8E9E9" stroke-width="8.2894"/>
<path d="M48.798 -269.902C22.4298 11.6116 24.391 475.64 727.907 608.372C1623.18 777.283 1721.88 96.4564 2184.15 663.771" stroke="#F8E9E9" stroke-width="8.2894"/>
<path d="M-0.594979 -190.242C-26.9631 91.2709 -25.0019 555.299 678.514 688.031C1573.79 856.942 1672.49 176.116 2134.76 743.43" stroke="#F8E9E9" stroke-width="8.2894"/>
<path d="M-45.7641 -108.338C-72.1322 173.175 -70.171 637.204 633.345 769.936C1528.62 938.847 1627.32 258.02 2089.59 825.335" stroke="#F8E9E9" stroke-width="8.2894"/>
<path d="M-85.9821 -23.8481C-112.35 257.665 -110.389 721.694 593.127 854.426C1488.4 1023.34 1587.1 342.51 2049.37 909.825" stroke="#F8E9E9" stroke-width="8.2894"/>
<path d="M-120.286 63.6624C-146.654 345.176 -144.693 809.204 558.823 941.936C1454.1 1110.85 1552.8 430.02 2015.06 997.335" stroke="#F8E9E9" stroke-width="8.2894"/>
<path d="M-147.365 154.766C-173.733 436.28 -171.771 900.308 531.745 1033.04C1427.02 1201.95 1525.72 521.124 1987.99 1088.44" stroke="#F8E9E9" stroke-width="8.2894"/>
<path d="M-165.362 250.237C-191.73 531.751 -189.769 995.779 513.747 1128.51C1409.02 1297.42 1507.72 616.596 1969.99 1183.91" stroke="#F8E9E9" stroke-width="8.2894"/>
<path d="M-171.569 351.135C-197.937 632.649 -195.976 1096.68 507.54 1229.41C1402.81 1398.32 1501.51 717.493 1963.78 1284.81" stroke="#F8E9E9" stroke-width="8.2894"/>
<path d="M-162.035 458.809C-188.403 740.322 -186.442 1204.35 517.074 1337.08C1412.35 1505.99 1511.05 825.167 1973.32 1392.48" stroke="#F8E9E9" stroke-width="8.2894"/>
<path d="M-133.995 573.161C-160.363 854.675 -158.402 1318.7 545.114 1451.44C1440.39 1620.35 1539.09 939.519 2001.36 1506.83" stroke="#F8E9E9" stroke-width="8.2894"/>
</svg>