<svg width="121" height="32" viewBox="0 0 121 32" fill="none" xmlns="http://www.w3.org/2000/svg">
<rect x="0.5" y="0.5" width="119.47" height="30.9613" rx="15.4807" fill="white" stroke="#4285F4"/>
<path d="M30.02 16.4951V19H28.5551V11.8906H31.3286C31.8624 11.8906 32.3312 11.9883 32.7348 12.1836C33.1417 12.3789 33.4542 12.6572 33.6723 13.0186C33.8904 13.3766 33.9995 13.7852 33.9995 14.2441C33.9995 14.9408 33.7602 15.4909 33.2817 15.8945C32.8064 16.2949 32.1473 16.4951 31.3042 16.4951H30.02ZM30.02 15.3086H31.3286C31.7159 15.3086 32.0105 15.2174 32.2124 15.0352C32.4174 14.8529 32.52 14.5924 32.52 14.2539C32.52 13.9056 32.4174 13.624 32.2124 13.4092C32.0073 13.1943 31.7241 13.0837 31.3628 13.0771H30.02V15.3086ZM40.3911 11.8906V16.5732C40.3911 17.3512 40.1469 17.9665 39.6587 18.4189C39.1736 18.8714 38.5096 19.0977 37.6665 19.0977C36.8364 19.0977 36.1772 18.8779 35.6889 18.4385C35.2006 17.999 34.9516 17.3952 34.9419 16.627V11.8906H36.4067V16.583C36.4067 17.0485 36.5174 17.3887 36.7387 17.6035C36.9633 17.8151 37.2726 17.9209 37.6665 17.9209C38.49 17.9209 38.9083 17.488 38.9214 16.6221V11.8906H40.3911ZM47.3735 19H45.9087L43.0571 14.3223V19H41.5923V11.8906H43.0571L45.9135 16.5781V11.8906H47.3735V19ZM54.2339 16.6318C54.1785 17.3968 53.8953 17.999 53.3842 18.4385C52.8764 18.8779 52.2059 19.0977 51.3725 19.0977C50.4611 19.0977 49.7433 18.7917 49.2192 18.1797C48.6984 17.5645 48.438 16.7214 48.438 15.6504V15.2158C48.438 14.5322 48.5584 13.93 48.7993 13.4092C49.0402 12.8883 49.3836 12.4896 49.8296 12.2129C50.2788 11.9329 50.7996 11.793 51.3921 11.793C52.2124 11.793 52.8732 12.0127 53.3745 12.4521C53.8758 12.8916 54.1655 13.5085 54.2436 14.3027H52.7788C52.743 13.8438 52.6144 13.5117 52.393 13.3066C52.1749 13.0983 51.8413 12.9941 51.3921 12.9941C50.9038 12.9941 50.5376 13.1699 50.2934 13.5215C50.0525 13.8698 49.9288 14.4118 49.9223 15.1475V15.6846C49.9223 16.4528 50.0379 17.0143 50.269 17.3691C50.5034 17.724 50.8712 17.9014 51.3725 17.9014C51.825 17.9014 52.1619 17.7988 52.3833 17.5938C52.6079 17.3854 52.7365 17.0648 52.769 16.6318H54.2339ZM60.9819 19H59.5171V15.9531H56.6606V19H55.1958V11.8906H56.6606V14.7715H59.5171V11.8906H60.9819V19ZM64.5805 15.0938L66.06 11.8906H67.6616L65.3276 16.4219V19H63.8383V16.4219L61.5044 11.8906H63.1108L64.5805 15.0938ZM68.311 19V11.8906H70.4985C71.1235 11.8906 71.6818 12.0322 72.1733 12.3154C72.6681 12.5954 73.0538 12.9958 73.3305 13.5166C73.6072 14.0342 73.7456 14.6234 73.7456 15.2842V15.6113C73.7456 16.2721 73.6089 16.8597 73.3354 17.374C73.0652 17.8883 72.6827 18.2871 72.188 18.5703C71.6932 18.8535 71.1349 18.9967 70.5132 19H68.311ZM69.7758 13.0771V17.8232H70.4839C71.0568 17.8232 71.4946 17.6361 71.7973 17.2617C72.1001 16.8874 72.2547 16.3519 72.2612 15.6553V15.2793C72.2612 14.5566 72.1115 14.0098 71.812 13.6387C71.5125 13.2643 71.0747 13.0771 70.4985 13.0771H69.7758ZM78.7212 17.5352H76.1528L75.6645 19H74.1069L76.7534 11.8906H78.1108L80.7719 19H79.2143L78.7212 17.5352ZM76.5483 16.3486H78.3257L77.4321 13.6875L76.5483 16.3486ZM86.2016 13.0771H84.0239V19H82.5591V13.0771H80.4106V11.8906H86.2016V13.0771ZM90.4692 17.5352H87.9008L87.4126 19H85.8549L88.5014 11.8906H89.8589L92.52 19H90.9624L90.4692 17.5352ZM88.2964 16.3486H90.0737L89.1801 13.6875L88.2964 16.3486Z" fill="#4285F4"/>
</svg>
