<svg width="3840" height="2200" viewBox="0 0 3840 2200" fill="none" xmlns="http://www.w3.org/2000/svg">
<g clip-path="url(#clip0)">
<path d="M893.709 1635.42H893.8C893.8 1638.47 890.132 1641.39 883.604 1643.54C877.076 1645.69 868.221 1646.9 858.989 1646.9H755.811C746.579 1646.9 737.724 1645.69 731.196 1643.54C724.668 1641.39 721 1638.47 721 1635.42H721.006C721 1635.32 721 1635.31 721 1635.31V1635.3C720.999 1631.77 724.926 1628.36 732.039 1625.72C739.151 1623.08 748.955 1621.39 759.594 1620.97C762.901 1617.12 770.313 1613.8 780.465 1611.62C790.616 1609.44 802.821 1608.54 814.828 1609.09C826.835 1609.64 837.834 1611.6 845.795 1614.61C853.757 1617.62 858.144 1621.48 858.147 1625.48C858.147 1625.55 858.147 1625.62 858.14 1625.69C860.032 1625.58 861.952 1625.53 863.873 1625.55C867.802 1625.55 871.693 1625.8 875.321 1626.3C878.95 1626.8 882.245 1627.52 885.017 1628.44C887.79 1629.36 889.985 1630.45 891.476 1631.65C892.968 1632.85 893.727 1634.13 893.709 1635.42V1635.42Z" fill="white"/>
<path d="M857.487 1661.93C859.798 1661.93 862.038 1662.19 863.825 1662.68C865.612 1663.16 866.835 1663.83 867.286 1664.58C867.737 1665.33 867.388 1666.1 866.298 1666.78C865.209 1667.45 863.446 1667.97 861.311 1668.27C859.175 1668.56 856.799 1668.6 854.587 1668.38C852.374 1668.15 850.463 1667.69 849.179 1667.05C847.894 1666.42 847.316 1665.66 847.542 1664.9C847.768 1664.14 848.785 1663.43 850.419 1662.89C851.346 1662.59 852.448 1662.35 853.661 1662.18C854.874 1662.01 856.174 1661.93 857.487 1661.93Z" fill="white"/>
<path d="M807.404 1662.67C809.716 1662.67 811.956 1662.94 813.743 1663.42C815.53 1663.91 816.753 1664.58 817.204 1665.33C817.655 1666.07 817.306 1666.85 816.216 1667.52C815.127 1668.19 813.364 1668.72 811.228 1669.01C809.093 1669.3 806.717 1669.34 804.505 1669.12C802.292 1668.9 800.381 1668.43 799.097 1667.8C797.812 1667.16 797.234 1666.4 797.46 1665.65C797.686 1664.89 798.703 1664.18 800.337 1663.64C801.264 1663.33 802.366 1663.09 803.579 1662.92C804.792 1662.76 806.092 1662.67 807.404 1662.67V1662.67Z" fill="white"/>
<path d="M757.315 1661.93C759.626 1661.93 761.866 1662.19 763.653 1662.68C765.44 1663.16 766.663 1663.83 767.114 1664.58C767.565 1665.33 767.216 1666.1 766.126 1666.78C765.037 1667.45 763.274 1667.98 761.139 1668.27C759.003 1668.56 756.627 1668.6 754.415 1668.38C752.203 1668.15 750.291 1667.69 749.007 1667.05C747.722 1666.42 747.144 1665.66 747.37 1664.9C747.596 1664.14 748.613 1663.43 750.247 1662.9C751.175 1662.59 752.276 1662.35 753.489 1662.18C754.702 1662.02 756.002 1661.93 757.315 1661.93V1661.93Z" fill="white"/>
<path d="M803.516 1662.68V1647.05H811.289V1662.67L803.516 1662.68Z" fill="white"/>
<path d="M753.43 1661.94V1655.52C753.43 1655.18 753.839 1654.85 754.568 1654.61C755.297 1654.37 756.286 1654.24 757.316 1654.24H778.9V1647.05H786.673V1655.52C786.673 1655.86 786.264 1656.18 785.535 1656.42C784.806 1656.66 783.818 1656.8 782.787 1656.8H761.203V1661.93L753.43 1661.94Z" fill="white"/>
<path d="M853.603 1661.94V1656.8H833.146C832.116 1656.8 831.127 1656.66 830.398 1656.42C829.669 1656.18 829.26 1655.86 829.26 1655.52V1647.05H837.033V1654.24H857.49C858.521 1654.24 859.509 1654.37 860.238 1654.61C860.967 1654.85 861.376 1655.18 861.376 1655.52V1661.93L853.603 1661.94Z" fill="white"/>
<path d="M807.403 1670.54C804.196 1670.53 801.089 1670.17 798.612 1669.49C796.135 1668.82 794.442 1667.89 793.82 1666.85C793.198 1665.81 793.686 1664.74 795.201 1663.81C796.716 1662.87 799.164 1662.14 802.129 1661.74C805.093 1661.34 808.391 1661.28 811.459 1661.59C814.528 1661.9 817.178 1662.55 818.957 1663.43C820.737 1664.31 821.537 1665.36 821.22 1666.42C820.903 1667.47 819.49 1668.45 817.221 1669.2C815.932 1669.62 814.401 1669.96 812.716 1670.19C811.032 1670.42 809.226 1670.54 807.403 1670.54V1670.54ZM807.403 1663.95C805.991 1663.95 804.622 1664.11 803.53 1664.41C802.439 1664.7 801.691 1665.12 801.416 1665.57C801.14 1666.03 801.353 1666.5 802.019 1666.91C802.685 1667.32 803.762 1667.65 805.067 1667.82C806.371 1668 807.823 1668.03 809.175 1667.89C810.526 1667.76 811.694 1667.47 812.479 1667.08C813.264 1666.7 813.618 1666.23 813.48 1665.77C813.342 1665.3 812.721 1664.87 811.722 1664.54C811.156 1664.35 810.483 1664.21 809.742 1664.1C809.001 1664 808.206 1663.95 807.403 1663.95V1663.95Z" fill="white"/>
<path d="M757.317 1669.8C755.034 1669.8 752.787 1669.61 750.774 1669.26C748.761 1668.9 747.044 1668.39 745.776 1667.76C744.508 1667.14 743.728 1666.42 743.504 1665.67C743.281 1664.92 743.621 1664.17 744.494 1663.47C745.368 1662.78 746.748 1662.16 748.513 1661.69C750.277 1661.21 752.371 1660.88 754.61 1660.74C756.849 1660.59 759.163 1660.63 761.347 1660.85C763.531 1661.06 765.518 1661.46 767.132 1661.99C769.072 1662.63 770.393 1663.44 770.928 1664.33C771.463 1665.22 771.188 1666.14 770.137 1666.97C769.087 1667.81 767.308 1668.52 765.026 1669.03C762.744 1669.53 760.061 1669.8 757.316 1669.8L757.317 1669.8ZM757.317 1663.21C755.904 1663.21 754.536 1663.37 753.444 1663.67C752.352 1663.96 751.605 1664.37 751.329 1664.83C751.053 1665.29 751.266 1665.76 751.932 1666.17C752.597 1666.58 753.674 1666.9 754.979 1667.08C756.284 1667.26 757.735 1667.28 759.087 1667.15C760.439 1667.01 761.607 1666.73 762.392 1666.34C763.177 1665.95 763.531 1665.49 763.393 1665.03C763.255 1664.56 762.634 1664.13 761.636 1663.8C761.07 1663.61 760.397 1663.46 759.656 1663.36C758.914 1663.26 758.119 1663.21 757.317 1663.21Z" fill="white"/>
<path d="M857.487 1669.8C855.664 1669.8 853.857 1669.68 852.172 1669.45C850.487 1669.22 848.958 1668.89 847.672 1668.46C845.403 1667.71 843.991 1666.73 843.678 1665.67C843.364 1664.62 844.168 1663.56 845.952 1662.68C847.736 1661.8 850.39 1661.16 853.463 1660.85C856.535 1660.54 859.834 1660.6 862.8 1661C865.765 1661.41 868.213 1662.14 869.726 1663.07C871.238 1664 871.723 1665.08 871.096 1666.12C870.47 1667.16 868.771 1668.09 866.29 1668.76C863.808 1669.43 860.697 1669.8 857.487 1669.8V1669.8ZM853.169 1666.65C854.167 1666.98 855.481 1667.18 856.887 1667.23C858.293 1667.27 859.704 1667.16 860.879 1666.9C862.053 1666.64 862.92 1666.26 863.33 1665.81C863.741 1665.36 863.67 1664.89 863.13 1664.46C862.589 1664.03 861.613 1663.67 860.367 1663.45C859.122 1663.23 857.683 1663.16 856.298 1663.25C854.912 1663.34 853.665 1663.59 852.769 1663.95C851.872 1664.31 851.382 1664.76 851.382 1665.22C851.38 1665.49 851.537 1665.75 851.843 1666C852.15 1666.24 852.601 1666.46 853.169 1666.65Z" fill="white"/>
<path d="M6631.05 -6110L8734.1 -2809.53L1479.25 1813.24C1143.9 2026.92 698.823 1928.29 485.138 1592.94L-962.312 -678.649C-1110.7 -911.531 -1042.21 -1220.62 -809.329 -1369.01L6631.05 -6110Z" fill="url(#paint0_linear)"/>
<circle opacity="0.95" cx="475" cy="1709" r="451" fill="url(#paint1_linear)"/>
<circle opacity="0.75" cx="3540" cy="622" r="212" fill="url(#paint2_linear)"/>
</g>
<defs>
<linearGradient id="paint0_linear" x1="3238.36" y1="-975.199" x2="-179.477" y2="549.914" gradientUnits="userSpaceOnUse">
<stop stop-color="#0CFFFF"/>
<stop offset="1" stop-color="#073999"/>
</linearGradient>
<linearGradient id="paint1_linear" x1="24" y1="1425" x2="475" y2="2160" gradientUnits="userSpaceOnUse">
<stop stop-color="#FED136"/>
<stop offset="1" stop-color="#FE6636"/>
</linearGradient>
<linearGradient id="paint2_linear" x1="3328" y1="488.501" x2="3540" y2="834" gradientUnits="userSpaceOnUse">
<stop stop-color="#FED136"/>
<stop offset="1" stop-color="#FE6636"/>
</linearGradient>
<clipPath id="clip0">
<rect width="3840" height="2200" fill="white"/>
</clipPath>
</defs>
</svg>
