<svg xmlns="http://www.w3.org/2000/svg" xmlns:xlink="http://www.w3.org/1999/xlink" viewBox="0 0 750 500"><defs><style>.cls-1,.cls-46{fill:#8dceff;}.cls-2{isolation:isolate;}.cls-3{fill:#b8e1ff;}.cls-4,.cls-43{fill:none;stroke-miterlimit:10;}.cls-4{stroke:#64b5ff;stroke-dasharray:4.51;}.cls-5,.cls-6{fill:#fff;}.cls-5{opacity:0.63;}.cls-7{fill:#64b5ff;}.cls-8{fill:#2684ff;}.cls-9{fill:#f7c90b;}.cls-10{fill:#439dff;}.cls-11{fill:#ff005c;}.cls-12{fill:#ffc136;}.cls-13{fill:#00ead9;}.cls-14{fill:#d2eeff;}.cls-15{clip-path:url(#clip-path);}.cls-16{fill:#eef4ff;}.cls-17{fill:#16d6cc;}.cls-18,.cls-28,.cls-37,.cls-44{opacity:0.35;}.cls-18,.cls-23,.cls-28,.cls-37,.cls-40,.cls-41,.cls-44,.cls-46,.cls-47,.cls-49{mix-blend-mode:multiply;}.cls-19{fill:#60c6bc;}.cls-20{fill:#00ebd5;}.cls-21{fill:#51f4e0;}.cls-22{fill:#64aeff;}.cls-23{fill:#cbc2ff;opacity:0.5;}.cls-24{fill:#e4e5fb;}.cls-25{opacity:0.3;}.cls-26{fill:#3939d3;}.cls-27{fill:#fefefe;}.cls-28{fill:#527bba;}.cls-29{fill:#80bdff;}.cls-30{fill:#253858;}.cls-31{fill:#f2a181;}.cls-32{fill:#5e5dbb;}.cls-33{fill:#0d1d51;}.cls-34{fill:#ffbe9d;}.cls-35{fill:#e9e6ff;}.cls-36{fill:#ed9c80;}.cls-37{fill:#5273ba;}.cls-38{fill:#ffb9b0;}.cls-39{fill:#fca70c;}.cls-40,.cls-42{fill:#ce4a30;}.cls-40,.cls-41{opacity:0.25;}.cls-43{stroke:#a4a4f7;opacity:0.45;}.cls-44{fill:#5278ba;}.cls-45{fill:#7762ef;}.cls-46{opacity:0.55;}.cls-47{opacity:0.15;}.cls-48{opacity:0.26;}.cls-49{opacity:0.62;}.cls-50{fill:#d5dbda;}.cls-51{fill:#efefef;}</style><clipPath id="clip-path"><rect class="cls-1" x="345.72" y="224.79" width="93.47" height="76.15" rx="5.65" ry="5.65"/></clipPath></defs><title>decabits_feature_image</title><g class="cls-2"><g id="OBJECT"><path class="cls-3" d="M665.55,288.14c-11.43-16.13-27.39-30.05-32.26-49.21s2.43-38.85,8-57.75,8.93-40.83-2.28-57c-15.17-21.94-47.77-21.11-73.56-14.29s-53.62,17.12-78.08,6.49c-28.8-12.53-39.52-48.42-64.69-67.2-28.21-21-73.39-13.5-93.22,15.58-9.5,13.93-13.53,31.36-24.73,44-15.15,17.06-40.1,21.53-62.9,20.64s-45.51-6.06-68.23-4-46.72,13.89-54.13,35.47c-5.65,16.47-.43,34.67,6.83,50.5s16.65,31,19.83,48.16-1.77,37.41-17,45.8c-17.75,9.75-40.3-.36-59.88,4.82C47.08,316,34,341.87,38.51,364.28s23.2,40.16,44.63,48.08,45.17,7.23,67.66,3.2l380.46,4.06c26-1.21,46.06,1.92,70.54.8s49.69-9.84,65.52-28.55C691.37,363.44,687.09,318.51,665.55,288.14Z"/><path class="cls-4" d="M247.67,75.26l62.5,3.3c24.45,1.3,49.3,2.67,72.4,10.8s44.62,24.11,53.6,46.89,2.05,52.44-19.23,64.56"/><path class="cls-4" d="M39.07,286.06c-16.51,15.3-17.15,43.09-4.81,61.91s34.87,29.16,57.27,31.33,44.87-2.86,66.45-9.25a521.52,521.52,0,0,0,117.78-51.4"/><path class="cls-4" d="M625.14,307.17c-10.3,17.72-29.21,29.34-49.15,34.12s-40.88,3.33-61-.39a277.49,277.49,0,0,1-76.45-26.09c-12.41-6.39-24.64-13.83-38.38-16.35-22.43-4.12-46.87,6.84-58.71,26.34"/><path class="cls-4" d="M523.6,91.33c22.89-12.44,52.24-12,74.75,1.07s37.41,38.39,37.93,64.42S622.92,208.73,601,222.71c-28.56,18.15-65.12,15.44-98.79,12.09"/><path class="cls-5" d="M478.54,144.45a8.69,8.69,0,0,0,.54,1.3l-1.78,1.78,4.19,4.19,1.78-1.78a8.69,8.69,0,0,0,1.3.54V153h5.93v-2.51a8.69,8.69,0,0,0,1.3-.54l1.78,1.78,4.19-4.19L496,145.75a8.69,8.69,0,0,0,.54-1.3H499v-5.93h-2.51a8.69,8.69,0,0,0-.54-1.3l1.78-1.78-4.19-4.19L491.8,133a8.69,8.69,0,0,0-1.3-.54V130h-5.93v2.51a8.69,8.69,0,0,0-1.3.54l-1.78-1.78-4.19,4.19,1.78,1.78a8.69,8.69,0,0,0-.54,1.3H476v5.93Zm3-3a6,6,0,1,1,6,6A6,6,0,0,1,481.56,141.49Z"/><path class="cls-5" d="M141.51,334.42a10.74,10.74,0,0,0,.62,1.48l-2,2,4.79,4.79,2-2a10.74,10.74,0,0,0,1.48.62v2.87h6.77v-2.87a10.74,10.74,0,0,0,1.48-.62l2,2,4.79-4.79-2-2a10.74,10.74,0,0,0,.62-1.48h2.87v-6.77h-2.87a10.74,10.74,0,0,0-.62-1.48l2-2-4.79-4.79-2,2a10.74,10.74,0,0,0-1.48-.62V317.9H148.4v2.86a10.74,10.74,0,0,0-1.48.62l-2-2-4.79,4.79,2,2a10.74,10.74,0,0,0-.62,1.48h-2.87v6.77ZM145,331a6.82,6.82,0,1,1,6.82,6.82A6.82,6.82,0,0,1,145,331Z"/><path class="cls-5" d="M426.84,100.46a5.24,5.24,0,0,0,.28.69l-.93.93,2.2,2.2.93-.93a5.24,5.24,0,0,0,.69.28V105h3.11v-1.32a5.11,5.11,0,0,0,.68-.28l.93.93,2.21-2.2-.94-.93a5.28,5.28,0,0,0,.29-.69h1.31V97.35h-1.31a5.79,5.79,0,0,0-.29-.68l.94-.93-2.21-2.2-.93.93a5.15,5.15,0,0,0-.68-.29V92.87H430v1.31a5.28,5.28,0,0,0-.69.29l-.93-.93-2.2,2.2.93.93a5.72,5.72,0,0,0-.28.68h-1.32v3.11Zm1.59-1.55a3.14,3.14,0,1,1,3.13,3.13A3.14,3.14,0,0,1,428.43,98.91Z"/><path class="cls-5" d="M178.54,136a8.76,8.76,0,0,0-.25,1.32l-2.36.49,1.15,5.55,2.35-.49a9.11,9.11,0,0,0,.75,1.12l-1.31,2,4.73,3.12,1.32-2a8.76,8.76,0,0,0,1.32.25l.49,2.36,5.55-1.15-.49-2.35a9.11,9.11,0,0,0,1.12-.75l2,1.32,3.12-4.74-2-1.32a8.76,8.76,0,0,0,.25-1.32l2.36-.49-1.15-5.55-2.35.49a8.18,8.18,0,0,0-.76-1.12l1.32-2L191,127.65l-1.32,2a8.76,8.76,0,0,0-1.32-.25l-.49-2.36-5.55,1.15.49,2.35a9.2,9.2,0,0,0-1.12.76l-2-1.32-3.12,4.73Zm4-.78a5.71,5.71,0,1,1,1.63,7.91A5.72,5.72,0,0,1,182.51,135.26Zm24.22,8.1a6.32,6.32,0,0,0-.15.83l-1.48.31.72,3.49,1.48-.31a5.45,5.45,0,0,0,.47.71l-.83,1.26,3,2,.83-1.26a5.77,5.77,0,0,0,.83.15l.31,1.48,3.49-.72-.31-1.48a5.35,5.35,0,0,0,.7-.47l1.26.83,2-3-1.26-.83a5.79,5.79,0,0,0,.16-.83l1.48-.31-.72-3.49-1.48.31a5.43,5.43,0,0,0-.48-.7l.83-1.26-3-2-.83,1.26a6.38,6.38,0,0,0-.83-.16l-.31-1.48-3.49.72.3,1.48a6.22,6.22,0,0,0-.7.48l-1.26-.83-2,3Zm2.5-.49a3.59,3.59,0,1,1,1,5A3.6,3.6,0,0,1,209.23,142.87Z"/><path class="cls-5" d="M689,346.29a12,12,0,0,0,1-1.48l3.13.66,1.56-7.38-3.13-.66a12.06,12.06,0,0,0-.32-1.76l2.67-1.74-4.11-6.31-2.68,1.74a11.37,11.37,0,0,0-1.48-1l.66-3.13-7.37-1.56-.66,3.13a11.85,11.85,0,0,0-1.76.33l-1.74-2.68-6.32,4.12,1.74,2.67a13.33,13.33,0,0,0-1,1.48l-3.12-.66-1.56,7.37,3.13.66a11.82,11.82,0,0,0,.32,1.76l-2.67,1.75,4.11,6.31,2.67-1.74a12.09,12.09,0,0,0,1.48,1l-.66,3.13,7.38,1.55.66-3.12a11.85,11.85,0,0,0,1.76-.33l1.74,2.68,6.32-4.12Zm-5.26-1.17A7.59,7.59,0,1,1,686,334.61,7.59,7.59,0,0,1,683.75,345.12Zm-25.22-22.76a6.92,6.92,0,0,0,.63-.93l2,.41,1-4.63-2-.42a6.86,6.86,0,0,0-.2-1.1l1.68-1.1-2.59-4-1.68,1.09a7.58,7.58,0,0,0-.93-.63l.42-2-4.64-1-.41,2a8,8,0,0,0-1.11.2l-1.1-1.68-4,2.59,1.1,1.68a8.1,8.1,0,0,0-.64.93l-2-.41-1,4.63,2,.42a8.67,8.67,0,0,0,.21,1.11l-1.68,1.09,2.58,4,1.68-1.09a9.5,9.5,0,0,0,.93.63l-.41,2,4.64,1,.41-2a8.63,8.63,0,0,0,1.11-.2l1.09,1.68,4-2.59Zm-3.3-.73a4.78,4.78,0,1,1,1.39-6.61A4.78,4.78,0,0,1,655.23,321.63Z"/><path class="cls-6" d="M243.65,145.53a10.79,10.79,0,1,0,10.78-10.79A10.78,10.78,0,0,0,243.65,145.53Z"/><path class="cls-7" d="M254.43,137.34a24.33,24.33,0,0,0-.67,4.1c-.12,1.36-.17,2.72-.16,4.09l.83-.83c-1.2,0-2.4.06-3.61.2a22.76,22.76,0,0,0-3.61.63,22.76,22.76,0,0,0,3.61.63c1.21.13,2.41.18,3.61.2h.83v-.84a39.83,39.83,0,0,0-.15-4.09A23.39,23.39,0,0,0,254.43,137.34Z"/><circle class="cls-6" cx="602.81" cy="145.53" r="14.14" transform="translate(384.72 726.05) rotate(-82.98)"/><path class="cls-8" d="M603.15,148.07l4,6.83a1,1,0,1,0,1.76-1l-4-6.84a7,7,0,1,0-1.77,1Zm-6.83-4a4.93,4.93,0,1,1,6.74,1.79A4.94,4.94,0,0,1,596.32,144.09Z"/><path class="cls-6" d="M78.68,337.76a15.59,15.59,0,1,0,15.59-15.59A15.59,15.59,0,0,0,78.68,337.76Z"/><path class="cls-9" d="M90.67,343.52v.84H90.5v3.5H98v-3.5h-.18v-.84a8.37,8.37,0,0,1,2-5.23,7.14,7.14,0,0,0,1.51-5.83,7.25,7.25,0,1,0-12.76,5.85A8.24,8.24,0,0,1,90.67,343.52Zm5.69,0v.31h-.73c.74-2.55,1.57-6,.81-6.67a1,1,0,0,0-1-.14l-.13.06a1,1,0,0,0-.93-.54h0a1.29,1.29,0,0,0-1,.52,1,1,0,0,0-.78-.11.83.83,0,0,0-.51.42c-.62,1.12.33,4.66.88,6.46h-.76v-.31a9.73,9.73,0,0,0-2.37-6.17,5.64,5.64,0,0,1-1.29-3.61,5.75,5.75,0,0,1,11.41-1,5.67,5.67,0,0,1-1.19,4.62A9.78,9.78,0,0,0,96.36,343.52Zm-2.62.31c-.7-2.24-1.44-5.35-1-6.13,0,0,0-.07.07-.07a.58.58,0,0,1,.25.1,1.21,1.21,0,0,0,.2,1.07.65.65,0,0,0,1-.72,1.72,1.72,0,0,0-.35-.56.56.56,0,0,1,.44-.27c.09,0,.18.1.23.17a1.29,1.29,0,0,1,.09.16,1.43,1.43,0,0,0-.31.74.58.58,0,0,0,.33.54.6.6,0,0,0,.66-.08,1.09,1.09,0,0,0,.18-1l.14-.08c.14-.06.19,0,.23,0,.32.42-.3,3.38-1.1,6.14Z"/><path class="cls-3" d="M496.26,103.6c.61-.75,23.38-21.47,23.38-21.47l4,2.56Z"/><polygon class="cls-10" points="523.64 84.69 528.69 97.01 496.26 103.6 523.64 84.69"/><polygon class="cls-7" points="528.69 97.01 496.26 103.6 528.52 87.42 528.69 97.01"/><polygon class="cls-3" points="528.52 87.42 496.26 103.6 535.13 92.15 528.52 87.42"/><path class="cls-7" d="M650,294.36c-.84-.16-28-1.09-28-1.09l-1.22,4Z"/><polygon class="cls-10" points="620.77 297.27 624.4 308.43 649.95 294.36 620.77 297.27"/><polygon class="cls-8" points="624.4 308.43 649.95 294.36 619.05 301.88 624.4 308.43"/><polygon class="cls-7" points="619.05 301.88 649.95 294.36 617.3 308.84 619.05 301.88"/><path class="cls-3" d="M252.69,59.43c-.29.57-2.53,9.08-2.53,9.08L230.94,79.44Z"/><polygon class="cls-10" points="256.36 75.46 250.16 68.51 230.94 79.44 256.36 75.46"/><polygon class="cls-7" points="256.36 75.46 247.98 75 230.94 79.44 256.36 75.46"/><polygon class="cls-3" points="247.98 75 244.93 85.44 230.94 79.44 247.98 75"/><path class="cls-3" d="M31.78,267.85c.71.56,8.62,10,8.62,10l30.83,2.37Z"/><polygon class="cls-10" points="36.7 290.33 40.4 277.84 71.23 280.21 36.7 290.33"/><polygon class="cls-7" points="36.7 290.33 47.02 284.76 71.23 280.21 36.7 290.33"/><polygon class="cls-3" points="47.02 284.76 57.11 296.15 71.23 280.21 47.02 284.76"/><rect class="cls-1" x="194.51" y="174.46" width="382.86" height="208.08" rx="5.66" ry="5.66" transform="translate(771.88 557.01) rotate(180)"/><rect class="cls-7" x="187.74" y="164.99" width="382.86" height="208.08" rx="5.66" ry="5.66" transform="translate(758.34 538.05) rotate(180)"/><path class="cls-6" d="M193.36,179.45H565a5.62,5.62,0,0,1,5.62,5.62v188.5a0,0,0,0,1,0,0H187.74a0,0,0,0,1,0,0V185.07A5.62,5.62,0,0,1,193.36,179.45Z" transform="translate(758.34 553.02) rotate(180)"/><path class="cls-11" d="M212.45,172.1a2.27,2.27,0,1,0,2.27-2.27A2.27,2.27,0,0,0,212.45,172.1Z"/><path class="cls-12" d="M207.32,169.83a2.27,2.27,0,1,1-2.27,2.27A2.27,2.27,0,0,1,207.32,169.83Z"/><path class="cls-13" d="M199.92,169.83a2.27,2.27,0,1,1-2.27,2.27A2.27,2.27,0,0,1,199.92,169.83Z"/><path class="cls-14" d="M400,186.93H521.27a4.51,4.51,0,0,1,4.51,4.51h0a4.51,4.51,0,0,1-4.51,4.51H400a4.51,4.51,0,0,1-4.51-4.51h0A4.51,4.51,0,0,1,400,186.93Zm0,24.44H521.27a4.51,4.51,0,0,0,4.51-4.51h0a4.51,4.51,0,0,0-4.51-4.51H400a4.51,4.51,0,0,0-4.51,4.51h0A4.51,4.51,0,0,0,400,211.37Zm0,15.42H521.27a4.51,4.51,0,0,0,4.51-4.51h0a4.51,4.51,0,0,0-4.51-4.51H400a4.51,4.51,0,0,0-4.51,4.51h0A4.51,4.51,0,0,0,400,226.79Zm0,15.42H521.27a4.51,4.51,0,0,0,4.51-4.51h0a4.51,4.51,0,0,0-4.51-4.51H400a4.51,4.51,0,0,0-4.51,4.51h0A4.51,4.51,0,0,0,400,242.21Z"/><path class="cls-3" d="M211.69,295.16V295a4.44,4.44,0,0,1,4.43-4.45h84.61a4.44,4.44,0,0,1,4.44,4.45v.13a4.45,4.45,0,0,1-4.45,4.45H216.14A4.45,4.45,0,0,1,211.69,295.16Zm89,10.84H216.14a4.45,4.45,0,0,0-4.45,4.45v.13a4.44,4.44,0,0,0,4.45,4.44h84.58a4.44,4.44,0,0,0,4.45-4.44v-.13A4.45,4.45,0,0,0,300.72,306Zm-89,19.87V326a4.44,4.44,0,0,0,4.45,4.44h84.58a4.44,4.44,0,0,0,4.45-4.44v-.13a4.45,4.45,0,0,0-4.45-4.45H216.14A4.45,4.45,0,0,0,211.69,325.87Zm4.51,20h84.45a4.51,4.51,0,0,0,4.52-4.51h0a4.51,4.51,0,0,0-4.52-4.51H216.2a4.51,4.51,0,0,0-4.51,4.51h0A4.51,4.51,0,0,0,216.2,345.86Z"/><rect class="cls-3" x="463.79" y="287.95" width="83.19" height="61.63" rx="8.11" ry="8.11" transform="translate(1010.78 637.53) rotate(180)"/><rect class="cls-1" x="345.72" y="224.79" width="93.47" height="76.15" rx="5.65" ry="5.65"/><g class="cls-15"><rect class="cls-3" x="345.72" y="224.79" width="93.47" height="76.15" rx="5.65" ry="5.65"/><path class="cls-7" d="M371.49,291.75l45-23.53a7.76,7.76,0,0,1,7.83.36l41.88,27v7.73H371.17Z"/><path class="cls-7" d="M341.48,283.76l30.06-24.27a7.77,7.77,0,0,1,9.42-.28l59.64,42.64H339.67Z"/><circle class="cls-7" cx="403.88" cy="244.66" r="8.77"/></g><path class="cls-14" d="M393.28,313.66h11.05a3.11,3.11,0,0,1,3.11,3.11V346.3a3.11,3.11,0,0,1-3.11,3.11H393.28a3.11,3.11,0,0,1-3.11-3.11V316.77A3.11,3.11,0,0,1,393.28,313.66Zm26.22-10.93h11.37a3,3,0,0,1,2.95,3v40.77a3,3,0,0,1-2.95,3H419.5a3,3,0,0,1-2.95-3V305.69A3,3,0,0,1,419.5,302.73ZM363,305.81V345.2a4.22,4.22,0,0,0,4.21,4.21h8.85a4.22,4.22,0,0,0,4.22-4.21V305.81a4.2,4.2,0,0,0-4.21-4.21H367.2A4.21,4.21,0,0,0,363,305.81Zm-14.11-23H340a4.22,4.22,0,0,0-4.21,4.21V345.2a4.22,4.22,0,0,0,4.21,4.21h8.86a4.22,4.22,0,0,0,4.21-4.21V287.05A4.22,4.22,0,0,0,348.88,282.84Z"/><path class="cls-16" d="M496.26,333.67V303.86a3,3,0,0,1,4.65-2.51l22.41,14.72a3,3,0,0,1,0,5l-22.41,15.09A3,3,0,0,1,496.26,333.67Z"/><path class="cls-8" d="M599.63,419.62H139.68a3.18,3.18,0,0,1-3.18-3.18h0a3.18,3.18,0,0,1,3.18-3.19h460a3.18,3.18,0,0,1,3.18,3.19h0A3.18,3.18,0,0,1,599.63,419.62Z"/><rect class="cls-1" x="316.67" y="69.38" width="87.81" height="61.23" rx="9.45" ry="9.45"/><rect class="cls-16" x="311.1" y="65.84" width="87.81" height="61.23" rx="9.45" ry="9.45"/><path class="cls-7" d="M320.41,65.84H389.6a9.31,9.31,0,0,1,9.31,9.31v4.41a0,0,0,0,1,0,0H311.1a0,0,0,0,1,0,0V75.15A9.31,9.31,0,0,1,320.41,65.84Z"/><path class="cls-11" d="M320.92,73.2a1.42,1.42,0,1,1-1.42-1.42A1.42,1.42,0,0,1,320.92,73.2Z"/><path class="cls-12" d="M327.23,73.2a1.42,1.42,0,1,1-1.42-1.42A1.43,1.43,0,0,1,327.23,73.2Z"/><path class="cls-13" d="M333.53,73.2a1.42,1.42,0,1,1-1.42-1.42A1.42,1.42,0,0,1,333.53,73.2Z"/><rect class="cls-3" x="317.56" y="116.79" width="74.9" height="2.56" rx="0.87" ry="0.87" transform="translate(710.01 236.14) rotate(180)"/><rect class="cls-7" x="317.56" y="109.78" width="74.9" height="2.56" rx="0.87" ry="0.87" transform="translate(710.01 222.11) rotate(180)"/><rect class="cls-7" x="317.56" y="102.76" width="74.9" height="2.56" rx="0.87" ry="0.87" transform="translate(710.01 208.07) rotate(180)"/><path class="cls-7" d="M372,92A8,8,0,1,1,364,84,8,8,0,0,1,372,92ZM384,84a8,8,0,1,0,8,8.05A8,8,0,0,0,384,84Z"/><rect class="cls-1" x="122.04" y="187.59" width="87.81" height="61.23" rx="9.45" ry="9.45"/><rect class="cls-16" x="116.47" y="184.04" width="87.81" height="61.23" rx="9.45" ry="9.45"/><path class="cls-7" d="M125.78,184H195a9.31,9.31,0,0,1,9.31,9.31v4.41a0,0,0,0,1,0,0H116.47a0,0,0,0,1,0,0v-4.41a9.31,9.31,0,0,1,9.31-9.31Z"/><path class="cls-11" d="M126.29,191.41a1.42,1.42,0,1,1-1.42-1.42A1.42,1.42,0,0,1,126.29,191.41Z"/><path class="cls-12" d="M132.6,191.41a1.42,1.42,0,1,1-1.42-1.42A1.43,1.43,0,0,1,132.6,191.41Z"/><path class="cls-13" d="M138.9,191.41a1.42,1.42,0,1,1-1.42-1.42A1.42,1.42,0,0,1,138.9,191.41Z"/><rect class="cls-3" x="122.93" y="235" width="74.9" height="2.56" rx="0.87" ry="0.87" transform="translate(320.75 472.56) rotate(180)"/><rect class="cls-7" x="122.93" y="227.98" width="74.9" height="2.56" rx="0.87" ry="0.87" transform="translate(320.75 458.52) rotate(180)"/><rect class="cls-7" x="122.93" y="220.97" width="74.9" height="2.56" rx="0.87" ry="0.87" transform="translate(320.75 444.49) rotate(180)"/><path class="cls-7" d="M177.38,210.24a8,8,0,1,1-8-8A8,8,0,0,1,177.38,210.24Zm12-8a8,8,0,1,0,8,8A8,8,0,0,0,189.39,202.2Z"/><rect class="cls-1" x="348.23" y="352.46" width="87.81" height="61.23" rx="9.45" ry="9.45"/><rect class="cls-16" x="342.66" y="348.92" width="87.81" height="61.23" rx="9.45" ry="9.45"/><path class="cls-7" d="M352,348.92h69.19a9.31,9.31,0,0,1,9.31,9.31v4.41a0,0,0,0,1,0,0H342.66a0,0,0,0,1,0,0v-4.41A9.31,9.31,0,0,1,352,348.92Z"/><path class="cls-11" d="M352.48,356.28a1.42,1.42,0,1,1-1.42-1.42A1.42,1.42,0,0,1,352.48,356.28Z"/><path class="cls-12" d="M358.79,356.28a1.42,1.42,0,1,1-1.42-1.42A1.43,1.43,0,0,1,358.79,356.28Z"/><path class="cls-13" d="M365.09,356.28a1.42,1.42,0,1,1-1.42-1.42A1.42,1.42,0,0,1,365.09,356.28Z"/><rect class="cls-3" x="349.12" y="399.87" width="74.9" height="2.56" rx="0.87" ry="0.87" transform="translate(773.13 802.3) rotate(180)"/><rect class="cls-7" x="349.12" y="392.85" width="74.9" height="2.56" rx="0.87" ry="0.87" transform="translate(773.13 788.26) rotate(180)"/><rect class="cls-7" x="349.12" y="385.84" width="74.9" height="2.56" rx="0.87" ry="0.87" transform="translate(773.13 774.23) rotate(180)"/><path class="cls-7" d="M403.57,375.11a8,8,0,1,1-8-8A8,8,0,0,1,403.57,375.11Zm12-8a8,8,0,1,0,8,8A8,8,0,0,0,415.58,367.07Z"/><path class="cls-10" d="M170.08,366.44c-14-13.57-4.14-28.69-14-37.93-3.52-3.29-8.66-3.7-13.09-2.31-20.21,6.33-34.36,27.56-34.36,49.26,0,12.29,3.16,30.93,10.79,39.78h84.75c5.12-6.49,10.24-17.83,12.5-28S192.41,388.14,170.08,366.44Z"/><path class="cls-7" d="M135.63,369.77c-8.28-12.26-7.78-34.69,5.92-43.1-19.46,6.84-33,27.6-33,48.79,0,12.29,3.16,30.93,10.79,39.78h84.75c5.22-5.18,10.53-18.06,12.5-28C207.63,390.45,156.25,400.29,135.63,369.77Z"/><rect class="cls-7" x="537.28" y="338.6" width="64.31" height="74.66" rx="1.93" ry="1.93"/><rect class="cls-1" x="541.47" y="343.16" width="55.94" height="19.94" rx="1.93" ry="1.93"/><rect class="cls-1" x="541.47" y="365.96" width="55.94" height="19.94" rx="1.93" ry="1.93"/><rect class="cls-1" x="541.47" y="388.75" width="55.94" height="19.94" rx="1.93" ry="1.93"/><path class="cls-17" d="M581.31,399.63c2.53-6.16,5.07-12.39,6.11-19s.46-13.63-3-19.35a7.18,7.18,0,0,0-1.73-2.1,3.08,3.08,0,0,0-2.57-.62,4.2,4.2,0,0,0-2.37,2.41c-2.76,5.6-2,12.27-.48,18.32s3.83,12,4,18.25"/><g class="cls-18"><path class="cls-19" d="M582.15,398.6a.62.62,0,0,0,.62-.58,160.36,160.36,0,0,0-1.44-33.49.62.62,0,0,0-1.23.18,160,160,0,0,1,1.43,33.23.62.62,0,0,0,.58.66Z"/></g><path class="cls-20" d="M583.19,399.69c-1.5-4.3-1.16-9-1.33-13.52s-1-9.42-4.27-12.61a7.33,7.33,0,0,0-3.27-1.95,4.42,4.42,0,0,0-3.68.63c-1.41,1.05-1.89,2.95-2,4.7-.27,4.95,1.71,9.81,4.58,13.84s6.61,7.36,10.32,10.64"/><g class="cls-18"><path class="cls-19" d="M582.94,400.91a.64.64,0,0,0,.54-.14.62.62,0,0,0,.06-.88,43.27,43.27,0,0,1-10.09-23.66.62.62,0,0,0-.68-.55.61.61,0,0,0-.56.68A44.47,44.47,0,0,0,582.6,400.7.61.61,0,0,0,582.94,400.91Z"/></g><path class="cls-21" d="M582.63,400.11a15.16,15.16,0,0,0,6.24-4.3,36.92,36.92,0,0,0,7.84-12.48,13.71,13.71,0,0,0,1-4.66,6.13,6.13,0,0,0-1.59-4.4,5.89,5.89,0,0,0-6.7-.81,9.7,9.7,0,0,0-4.45,5.47,28.79,28.79,0,0,0-1.29,7.09q-.59,6.25-1.18,12.49"/><g class="cls-18"><path class="cls-19" d="M582.1,398.81a.6.6,0,0,0,.43-.17,35.69,35.69,0,0,0,10.37-19.08.62.62,0,0,0-.5-.72.61.61,0,0,0-.72.49,34.43,34.43,0,0,1-10,18.41.62.62,0,0,0,0,.88A.6.6,0,0,0,582.1,398.81Z"/></g><polygon class="cls-22" points="577.44 413.31 588.94 413.31 593.07 397.54 573.32 397.54 577.44 413.31"/><rect class="cls-8" x="572.48" y="395.89" width="21.42" height="5.18" transform="translate(1166.38 796.96) rotate(180)"/><path class="cls-8" d="M538,107.36A18.67,18.67,0,0,0,519.36,126a23.83,23.83,0,0,0,2.24,8.88c2.82,6.39,10.45,21.72,14.42,29.64a2.64,2.64,0,0,0,4.76-.09c3.61-7.89,10.55-23,13.68-29.55A20.58,20.58,0,0,0,556.7,126,18.67,18.67,0,0,0,538,107.36Zm0,27.52a8.85,8.85,0,1,1,8.85-8.85A8.85,8.85,0,0,1,538,134.88Z"/><path class="cls-23" d="M269.65,227.52H298a4,4,0,0,1,4,4v19.27a4,4,0,0,1-4,4H296l4.45,4.53-11.61-4.53H269.65a4,4,0,0,1-4-4V231.56A4,4,0,0,1,269.65,227.52Z"/><rect class="cls-6" x="262.89" y="225.39" width="36.44" height="27.35" rx="3.79" ry="3.79" transform="translate(562.23 478.14) rotate(180)"/><polyline class="cls-6" points="291.89 251.37 297.69 257.27 282.57 251.37"/><path class="cls-24" d="M295.38,234.57H266.85a1.06,1.06,0,1,1,0-2.12h28.53a1.06,1.06,0,0,1,0,2.12Zm1.06,4.5a1.06,1.06,0,0,0-1.06-1.07H266.85a1.07,1.07,0,1,0,0,2.13h28.53A1.05,1.05,0,0,0,296.44,239.07Zm0,5.56a1.06,1.06,0,0,0-1.06-1.07H266.85a1.07,1.07,0,1,0,0,2.13h28.53A1.06,1.06,0,0,0,296.44,244.63Z"/><path class="cls-23" d="M505.45,328.38H477.08a4,4,0,0,0-4,4v19.27a4,4,0,0,0,4,4h2.06l-4.46,4.53,11.62-4.53h19.15a4,4,0,0,0,4-4V332.42A4,4,0,0,0,505.45,328.38Z"/><rect class="cls-6" x="470.67" y="326.15" width="36.44" height="27.35" rx="3.79" ry="3.79"/><polyline class="cls-6" points="478.12 352.13 472.32 358.03 487.43 352.13"/><path class="cls-24" d="M473.56,334.27a1.07,1.07,0,0,1,1.07-1.07h28.53a1.07,1.07,0,0,1,0,2.13H474.63A1.06,1.06,0,0,1,473.56,334.27Zm1.07,6.62h28.53a1.07,1.07,0,0,0,0-2.13H474.63a1.07,1.07,0,1,0,0,2.13Zm0,5.56h28.53a1.07,1.07,0,0,0,0-2.13H474.63a1.07,1.07,0,1,0,0,2.13Z"/><path class="cls-7" d="M559.35,323.61l0-3.24c0-5-2-10.07-5.71-14.66a20,20,0,0,1-4.24-16.33,20.33,20.33,0,1,1,35.76,16.39,23.07,23.07,0,0,0-5.66,14.59l0,3.25Z"/><path class="cls-6" d="M572.69,322.62c0-.49,0-1,.06-1.45s4.63-15.89,2.89-19a2.38,2.38,0,0,0-1.44-1.2,3,3,0,0,0-2.18.33,3.6,3.6,0,0,0-2.79-1.47h0a3,3,0,0,0-2.63,1.51l-.35-.16a2.74,2.74,0,0,0-2.89.39c-2.1,1.78,2.64,19,2.64,19.43v1.64ZM564.79,303c.11-.08.25-.21.65,0a2.88,2.88,0,0,1,.38.22,3,3,0,0,0,.51,2.86,1.69,1.69,0,0,0,1.85.22,1.55,1.55,0,0,0,.91-1.51,3.7,3.7,0,0,0-.87-2.07,3.14,3.14,0,0,1,.28-.46c.13-.18.38-.47.64-.46a1.51,1.51,0,0,1,1.23.76,4.64,4.64,0,0,0-1,1.55,1.79,1.79,0,0,0,1.19,2.43,1.7,1.7,0,0,0,1.72-.41,3.34,3.34,0,0,0,.55-3,1.67,1.67,0,0,1,.72-.29c.05,0,.12.09.19.2,1.21,2.2-.87,10.91-2.82,17.18h-3.07C565.62,312.49,563.9,304.22,564.79,303Z"/><path class="cls-8" d="M557.27,325.29h0a2.68,2.68,0,0,0,2.67,2.67h19a2.67,2.67,0,0,0,2.67-2.67h0a2.66,2.66,0,0,0-2.67-2.67h-19A2.67,2.67,0,0,0,557.27,325.29Z"/><path class="cls-8" d="M557.27,330.63h0a2.68,2.68,0,0,0,2.67,2.68h19a2.67,2.67,0,0,0,2.67-2.68h0a2.67,2.67,0,0,0-2.67-2.67h-19A2.68,2.68,0,0,0,557.27,330.63Z"/><path class="cls-8" d="M557.27,336h0a2.68,2.68,0,0,0,2.67,2.67h19a2.67,2.67,0,0,0,2.67-2.67h0a2.66,2.66,0,0,0-2.67-2.67h-19A2.67,2.67,0,0,0,557.27,336Z"/><path class="cls-7" d="M135.94,203.48a4.66,4.66,0,1,0,4.66-4.66A4.66,4.66,0,0,0,135.94,203.48Z"/><circle class="cls-7" cx="651.79" cy="214.57" r="5.05"/><circle class="cls-7" cx="470.5" cy="80.41" r="4.87"/><path class="cls-7" d="M629.13,380a3.43,3.43,0,1,0,3.43-3.42A3.42,3.42,0,0,0,629.13,380Z"/><path class="cls-7" d="M12.53,356.63A3.43,3.43,0,1,0,16,353.2,3.42,3.42,0,0,0,12.53,356.63Z"/><circle class="cls-7" cx="241.26" cy="115.89" r="4.06"/><circle class="cls-7" cx="137.45" cy="103.79" r="3.48"/><circle class="cls-7" cx="405.9" cy="141.16" r="3.48"/><circle class="cls-7" cx="75.2" cy="393.57" r="3.48"/><circle class="cls-7" cx="616.08" cy="273.46" r="3.48"/><circle class="cls-7" cx="558.48" cy="144.64" r="3.48"/><path class="cls-7" d="M364.42,413.25l.33,0a1.36,1.36,0,0,0,1-1.65L328.28,260.66a1.36,1.36,0,1,0-2.64.65L363.1,412.22A1.36,1.36,0,0,0,364.42,413.25Z"/><path class="cls-7" d="M334.56,413.25l.33,0a1.36,1.36,0,0,0,1-1.65L298.42,260.66a1.36,1.36,0,1,0-2.64.65l37.46,150.91A1.36,1.36,0,0,0,334.56,413.25Z"/><path class="cls-7" d="M328.6,384.64l29.66-.1v2.72l-29.66.1Zm-4.76-19.21,29.67-.11V368l-29.66.11Zm-4.75-19.22,29.66-.1v2.72l-29.66.1ZM314.33,327l29.66-.11v2.72l-29.66.11Zm-4.76-19.22,29.67-.1v2.72l-29.67.1Zm-4.75-19.21,29.66-.11v2.72l-29.66.11Zm-4.76-19.22,29.66-.1V272l-29.66.1Z"/><rect class="cls-3" x="319.5" y="89.84" width="34.97" height="4.39" transform="translate(673.98 184.07) rotate(180)"/><g class="cls-25"><polyline class="cls-26" points="89.43 144.68 94.21 139.52 87.66 140.8"/><path class="cls-10" d="M71.72,145.88a9.77,9.77,0,0,0,10,9.48c5.55,0,10-4.24,10-9.48s-4.5-9.48-10-9.48S71.72,140.65,71.72,145.88Z"/><path class="cls-27" d="M79.84,150.42c2,0,4,.06,5.8-.07.57,0,1.07-1,.37-1.3a1.31,1.31,0,0,0,.72-.65.65.65,0,0,0-.35-.85c.69.17,1-1,.42-1.33a1.63,1.63,0,0,0,.58-1,1,1,0,0,0-.42-1,1.43,1.43,0,0,0-.71-.13l-2.47,0a6.17,6.17,0,0,0-.36-4c-.2-.35-.73-.78-1.15-.51s-.28.9-.26,1.3A4.59,4.59,0,0,1,79.77,145S79.86,148.6,79.84,150.42Z"/><rect class="cls-27" x="76.13" y="145.04" width="2.99" height="5.37"/></g><g class="cls-25"><path class="cls-10" d="M568.28,59.82a14.81,14.81,0,1,0-3.37,3.1L570.65,66Z"/><path class="cls-6" d="M550.45,46.54a3.62,3.62,0,0,1,5.12.06l.92.94,1-.94a3.62,3.62,0,0,1,5.08,5.16L559,55.23l0,0a3.6,3.6,0,0,1-2,1,3.64,3.64,0,0,1-3.14-1l-3.46-3.54A3.63,3.63,0,0,1,550.45,46.54Z"/></g><path class="cls-28" d="M641.72,327.14l2.72,7.15h11.37S655,365.22,655,371s4.77,45.8,4.77,45.8h6.59l-.69-50.43L675,340.52s7,34.63,9.94,40.43,18.56,35.87,18.56,35.87h6L694,350.49l-6.66-23-33.59-15.7-12,1.19"/><ellipse class="cls-3" cx="687.2" cy="431.98" rx="53.69" ry="5.66"/><path class="cls-29" d="M661.78,425.53a10.94,10.94,0,0,1-4.5,3.41c-2.4,1.07-7.49,1.57-4.66,2.52s6.12.37,7.79.1a34.57,34.57,0,0,1,5.26-.32c2.6,0,2.62-.17,2.27-3.1C667.46,424.1,663,423.25,661.78,425.53Z"/><path class="cls-30" d="M699,342s6.19-18.21-11.38-33.21c0,0-9.41,3.75-17,4.2a41.68,41.68,0,0,1-9-.19s-.5,16.18-.52,24.89Z"/><path class="cls-30" d="M659.73,372.22c-.34-8.14,8.49-7.08,11.74-1,6.73,12.57-2.48,41.53-3.7,55.26-1.27.49-3.39.87-4.66.29a3.22,3.22,0,0,1-1.35-1.5C662,408.45,660.09,380.92,659.73,372.22Z"/><path class="cls-30" d="M671.16,373.45c-1,3.33-12.28,6.82-11.37-5.28.41-5.36,1.49-35,1.7-37.85s.68-7,2.06-7.56c6.91-2.6,19.12,6.42,17.3,17.15C679.64,347.08,673.27,366.56,671.16,373.45Z"/><path class="cls-30" d="M700.52,375.57c.31,3.46-9.08,10.61-12.78-.94-1.64-5.13-8.66-35.42-9.54-38.14s-.64-8.36.45-9.36c5.42-5,17.65-.6,20,10C700.22,344.25,699.89,368.39,700.52,375.57Z"/><path class="cls-31" d="M652.15,243c.32-.34.64-.67.93-1,2.22-2.85,2.55-5.37,4.61-8.68a26.35,26.35,0,0,1,1.5-2.86,11.87,11.87,0,0,1,3.34-2.75c1-.5.14,1.62.14,1.62s.82-1.18,1.61-1.1c.31,0,.36,1.84.36,2.15a15.14,15.14,0,0,1-1.69,7.2,3.75,3.75,0,0,0-.57,1.63,3.64,3.64,0,0,0,1.94-1,2.35,2.35,0,0,1,2-.59,4.65,4.65,0,0,1-.39.85c-.88,1.65-1.86,3.41-3.55,4.21-1,.48-2.18.56-3.17,1.09-1.78.95-2.64,3.14-4.45,4"/><rect class="cls-32" x="658.96" y="228.86" width="7.69" height="14.17" rx="0.65" ry="0.65" transform="translate(142.39 -237.49) rotate(22.7)"/><rect class="cls-7" x="659.77" y="229.7" width="6.45" height="12.65" transform="translate(142.42 -237.55) rotate(22.7)"/><path class="cls-7" d="M668.41,254.47a41.86,41.86,0,0,0-8.6,1.45c-6.12,1.84-8.22,4.67-10.33,5.84,4.1-5.21,8.68-16.27,8.68-16.27S652.64,241,652,242s-23.8,28.18-23.07,32.57c.3,1.81,3,3.6,5.35,3.52,6.57-.22,14.2-2.61,22.2-5.23,3.51-1.15,4.59,1.33,4.59,1.33"/><path class="cls-33" d="M668.55,223.49c-1.54.44-2.36,2.44-2.89,3.81a21.52,21.52,0,0,0-1.16,5.14,7,7,0,0,0,.26,3.62,7.24,7.24,0,0,0,1,1.57,3.3,3.3,0,0,0,.72.77,1.12,1.12,0,0,0,1,.17,1.68,1.68,0,0,0,.81-1.25A33.32,33.32,0,0,1,672,228"/><path class="cls-31" d="M666.84,233.77c0-1-1.12-1.71-2.07-.64a6.68,6.68,0,0,0-1,3.82c0,1.49,1.1,1.78,2,2"/><path class="cls-7" d="M656.5,259.81c1.91-2.19,8-5.8,16.07-5.55,5.58.18,20.79,1.1,22.48,4.83.87,1.91,1.8,21.46.53,28.2-1,5.07-3.4,17.62-3.4,20.65s1.63,4.33.87,5.21c-1.7,2-13.33,2.8-18.79,2.8-4.86,0-13.14-1.3-13.56-2.86-.62-2.31.95-2.22,1.17-4.64s.82-18.15-.07-20.73c-1.61-4.65-2.39-12.22-3.67-15.66C657.16,269.45,654.59,262,656.5,259.81Z"/><path class="cls-10" d="M691.31,275.62c.58,1.21,4.51,7.53,4.51,7.53l.16.76a28.39,28.39,0,0,1-.4,3.38c-1,5.07-3.4,17.62-3.4,20.65s1.56,4.27.87,5.21c-1.34,1.82-23.27,5.9-22.19.83.09-.46,18.4-14.43,18.5-14.9.84-4,1.58-6.9,1.95-9.82C692.2,282.22,690.73,274.41,691.31,275.62Z"/><path class="cls-34" d="M668.16,247.27s0,6.36-.31,6.61a9.89,9.89,0,0,1-1.51.85s.89,5.53,2.28,5.12,10.53-5,10.53-5-1.3-.53-1.3-1,1.23-10.51,1.23-10.51"/><path class="cls-34" d="M674.51,224.17c-1.33.37-4.85-.36-5.82,1.09s-1.81,5-2.18,5.94c-.72,1.93-1.19,4-1.72,6-.68,2.59-1.81,7.34.73,9.5a3.35,3.35,0,0,0,2,1c1.2.21,2.4.46,3.6.68,1.86.33,3.92.72,5.76.12,2.47-.8,3.83-4.2,4.46-6.5l3.64-13.2Z"/><path class="cls-30" d="M667.93,262.33s-.53,24.81-1.54,39.9l3.65,5,2.5-6.3a192,192,0,0,0-2.37-38.47Z"/><path class="cls-30" d="M667.09,260.15l.09.34a6.72,6.72,0,0,0,.75,1.84h0l2.24.17s1.52-.79,1.72-1.65-2.49-2.26-2.49-2.26l-.33.13a4.78,4.78,0,0,0-2,1.4Z"/><path class="cls-6" d="M678,252.24a9.24,9.24,0,0,1,2.55,2.58c-1.15,2.64-3.75,7.32-6.62,9.45a13,13,0,0,0-4.54-5.68S677.2,257.2,678,252.24Z"/><path class="cls-6" d="M669.4,258.59a9.65,9.65,0,0,0-4.46,4.23,21.4,21.4,0,0,1,.61-7.86s1.83-2.34,2.47-2.39A12.23,12.23,0,0,0,669.4,258.59Z"/><path class="cls-31" d="M669.75,314c-2.78.42-3.8,1.45-5.36,3-.13.13-.27.29-.24.46s.3.32.52.36c1.29.21,1.5-.62,2.7-1.12l2.43-1"/><path class="cls-35" d="M660.33,293.77l9.83,31.5a1.13,1.13,0,0,1-1,1.58l-20.51,1.8a1.92,1.92,0,0,1-1.72-1.33l-10.56-31c-.27-.85.95-2.06,1.78-2.06l20.5-1.8A1.89,1.89,0,0,1,660.33,293.77Z"/><path class="cls-7" d="M659.66,294.59l9.69,31a1.13,1.13,0,0,1-1,1.58L647.8,329a1.93,1.93,0,0,1-1.72-1.33l-9.69-31a1.13,1.13,0,0,1,1-1.58l20.51-1.8A1.9,1.9,0,0,1,659.66,294.59Z"/><path class="cls-34" d="M677.56,311.78c-2.15.45-7.88,2.16-8.49,2.44a25.19,25.19,0,0,0-3.65,2.71c-2.16,2.16-1.06,3.17-1.91,6.1a1.88,1.88,0,0,0,0,.47c0,.31.41.57.83.28.23.38.89.15,1.22-.26,0,.29.4.47,1.06.11.36-.2.29-.18,1.12-.92a8.86,8.86,0,0,1,2.33-1.42,17.35,17.35,0,0,0,2.28-1c.87-.57,2.42-.71,3.19-3.19a2.52,2.52,0,0,1,1.19-1.2l3.51-2.2"/><path class="cls-7" d="M690.78,271.43c.91,3.25,4.71,25.8,4.71,25.8L674.11,312.7l1.78,4.68s25.57-8.59,27.59-14.46,1.92-32.38-5.18-41.68c-2.26-3-6.79-4.46-6.79-4.46"/><path class="cls-31" d="M668.86,319.9a11.85,11.85,0,0,0-1.69,1.54,14.68,14.68,0,0,1-1.53,1.73,15.81,15.81,0,0,1,1.35-1.89,4.31,4.31,0,0,1,.88-.77A10.13,10.13,0,0,1,668.86,319.9Z"/><path class="cls-31" d="M667.68,318.48a5.21,5.21,0,0,0-.95,1.09,7.78,7.78,0,0,0-.75,1.21,13.29,13.29,0,0,1-1.46,2.54c.38-.9.84-1.75,1.24-2.63a5.57,5.57,0,0,1,.84-1.23A4,4,0,0,1,667.68,318.48Z"/><path class="cls-31" d="M666.33,317.33a12.05,12.05,0,0,1-.88,1.12,4.18,4.18,0,0,0-.64,1.22c-.37.86-.66,1.75-1,2.65a8.14,8.14,0,0,1,.74-2.74,4.11,4.11,0,0,1,.75-1.23C665.66,318,666,317.7,666.33,317.33Z"/><path class="cls-30" d="M682.65,239.69c-.83-.49-1.47-1-2-.2-.29.42-.46,1-1,1.15a1,1,0,0,1-1.12-.79,2.91,2.91,0,0,1,.18-1.51c.34-1.08.68-2.16,1-3.24a4.92,4.92,0,0,0,.24-3.26,3.46,3.46,0,0,0-1-1.31,10.87,10.87,0,0,0-5-2.14,51.09,51.09,0,0,1-5.37-1.1,5.7,5.7,0,0,1-2-1,4.37,4.37,0,0,1-1.45-3.3,6.79,6.79,0,0,1,1-3.52,7,7,0,0,0,.54,1.22,4.41,4.41,0,0,1,1-1.53c.52,2.9,12.77,1.93,15.63,3.21,2,.89,3.62,1.47,3.56,4.69a1.21,1.21,0,0,0,.39.51c1.76,1.61,2.52,3.58,2.74,6.49.27,3.57-1.81,7.43-3.84,10.38a6.77,6.77,0,0,1-1.52,1.8,4,4,0,0,1-2.84.65c-.89-.17-2.63-.1-2.64-1,0-.65,1.36-1.8,1.74-2.31"/><path class="cls-34" d="M679.45,243.06a1.33,1.33,0,0,0,.23,1.07,1.35,1.35,0,0,0,1.45.2,3.85,3.85,0,0,0,2.44-3c.29-1.55-.54-3.09-2-2.69a2.1,2.1,0,0,0-1.34,2"/><path class="cls-31" d="M668.16,247.81l3.93.73a5.49,5.49,0,0,1-4,1.46"/><path class="cls-29" d="M710.35,425c-.15.81,1,3.28-1.06,5.09s-6.75,3.71-3.64,3.78a18.09,18.09,0,0,0,7.67-1.43c1.58-.78.32-2,2.28-2.63,2.59-.81,2-2.71.71-3.89C714.59,422.05,710.81,422.37,710.35,425Z"/><path class="cls-30" d="M688.9,378.07c-2.73-7.68,6.12-9,11.14-4.3,11.76,11.07,12.21,37.18,15.09,50.65a10.24,10.24,0,0,1-5.13,1.47,1.85,1.85,0,0,1-1.41-.71C703.82,409,691.81,386.28,688.9,378.07Z"/><path class="cls-36" d="M207.53,430.29s.26,7.24.07,9.75-4.65.76-5.12-.79-.32-13.39-.32-13.39"/><path class="cls-36" d="M195.62,437.62s.67,7.22.62,9.73-4.6,1-5.16-.49S190,433.5,190,433.5"/><path class="cls-37" d="M158.19,382l50.06,2q-1.49,24.33-2.77,48.67a19.24,19.24,0,0,0,.62,7.38h.07c.67,0,.37.18.55,1.38a.43.43,0,0,0,0,.05c1.89,3.39,5.77,5.36,9.59,6.36a1,1,0,0,1-.09.53,1.24,1.24,0,0,1,.33,1.53c-.25.53-3.16,1.16-7.05.58a18.37,18.37,0,0,1-4.29-1.38,6.71,6.71,0,0,1-1.56-1.15,5.48,5.48,0,0,1-1.45-.41l-.16.14-4.4-2.13s.6-2.8,1-4.26a2.53,2.53,0,0,1,.32-.68A205.09,205.09,0,0,1,191.47,409c.29,13.22,4,40.2,4.28,41.13a6.9,6.9,0,0,0,5.53,4.23c1.06.13,6.29,0,5.63,2.41-.16.57-2.91,1.68-6.85,1.79a18.72,18.72,0,0,1-4.46-.61,8.38,8.38,0,0,1-2.73-1.63l-.64.78-4.7-1.33s.06-1.24.15-2.73a6,6,0,0,1,1.13-2.85l0-2.71-2.62-.41s-4.61-17.31-6.89-23.23a51.76,51.76,0,0,1-2.55-7.4,53.9,53.9,0,0,1-.73-9.16,80.69,80.69,0,0,0-2.4-16.58,2.38,2.38,0,0,0-.41-1,2.55,2.55,0,0,0-1.7-.68c-6.71-.88-9.84.14-14-1.33-5.48-1.94-6-4.49-6.24-4.62A17.49,17.49,0,0,1,158.19,382Z"/><path class="cls-38" d="M231.62,322.16s4.36-3.08,4.52-4.37,3.19-6.53,4.16-7.57,6.09-2.81,7.18-3,7.34.38,6.56,1.23-4.82.54-5.6,1l-.78.47s.78,1.05.47,1.69,1.33,1.63.71,2.72.25,1-.31,2.15c-.92,1.88-3.27,2.92-3.89,2.41-.47,1.11-2.26,3.38-3.93,3.22s-5.75,3.66-5.75,3.66"/><path class="cls-38" d="M165.14,300.27c-.15,2.93.06,8-.78,8.79s-3.54.63-3.54.63,9.67,12.24,10.54,11.56,12.31-10,9.73-10.47-5.08-.38-5-1.71.15-2.67.22-4"/><path class="cls-39" d="M154.11,365.6s18.87,2.14,23.22,2.23,4.13-2.18,4.13-2.18c.22-4.78,1-16,1.93-19.87.84-3.57,1.21-4.88,1.94-8.27,1.63-7.54,1.55-9,3.27-18.27l-11.27-9.06s-1.17,3.46-5.89,3.52c-6.32.09-8.29-4.34-8.29-4.34l-15.37,10.21-1.45,24.84,1.84,20.45"/><path class="cls-38" d="M164.93,297.62a32.93,32.93,0,0,0,1.33,4.34c1,2.59,2.47,3.52,5.21,3.58l5.78.14c1.48,0,3.32.09,4.51-.95s1.21-2.76,1.47-4.19q.51-2.73.82-5.5a78.9,78.9,0,0,0,.51-10.87,7.44,7.44,0,0,0-.13-1.49,1,1,0,0,0-.24-.54,1.23,1.23,0,0,0-.7-.27,58.72,58.72,0,0,0-10.92-.7c-2.58.07-5.32.37-7.36,1.95s-3,4.17-3.91,6.62c-.14.39-.25.92.09,1.16"/><path class="cls-30" d="M188.66,383.86a71.35,71.35,0,0,0,21.49.51c-.93,2.67-3.21,6.08-4.08,9.83-2.86,12.4-3.86,29.05-4.59,39.35,0,0,1.38,2.64,5.79.63,6.59-16.28,18.1-49.27,18-56.43-.13-9.11-22.87-11.31-39.54-13.55"/><path class="cls-30" d="M159.61,365.62c-5.24,3.82,29,18.24,29,18.24a56.87,56.87,0,0,0,11.24,1.07,7.88,7.88,0,0,0,.84-2.12c.2-1,.09-2,.27-3a7,7,0,0,1,3.42-4.61,15.43,15.43,0,0,1,5.61-1.82c4.63-.75,12.73-.22,12.73-.22-10.31-7.6-31.4-8.59-41.22-9.22C179.67,367,160.36,365.07,159.61,365.62Z"/><path class="cls-30" d="M189.86,448.2c-.12,1.42-.11,4.12-.11,4.12l4.46,1.07.57-.75a8,8,0,0,0,2.62,1.43,17.53,17.53,0,0,0,4.21.4c3.69-.25,6.23-1.39,6.36-1.93.53-2.26-4.37-2-5.37-2.06a6.46,6.46,0,0,1-5.35-3.76c-.4-1.06-.17-1.3-.77-1.16a1.51,1.51,0,0,0-1,.67,2.65,2.65,0,0,1-2.82,1.21,3.28,3.28,0,0,1-1.69-1A1.84,1.84,0,0,0,189.86,448.2Z"/><path class="cls-30" d="M201.05,440.75c-.36,1.39-.81,4-.81,4l4.21,1.83.69-.65a7.82,7.82,0,0,0,2.34,1.85,17.51,17.51,0,0,0,4.08,1.12c3.67.39,6.37-.31,6.59-.82.91-2.13-4-2.69-4.94-2.94a6.47,6.47,0,0,1-4.63-4.62c-.22-1.11.06-1.31-.56-1.27a1.47,1.47,0,0,0-1.05.49,2.66,2.66,0,0,1-3,.71,3.21,3.21,0,0,1-1.5-1.24A1.84,1.84,0,0,0,201.05,440.75Z"/><path class="cls-30" d="M148.17,364.86a212.5,212.5,0,0,0,23.24.74c3,0,25.4,4.21,27.55,8,3.53,6.26-2.3,42.82-1.76,69,0,0-2.69,2.25-7.45.14-1.18-12.86-8.78-43.19-3.54-57.35-12.37,1.64-22.35,3.27-33.6-.46-2.63-.87-4.6-2.73-5.78-6.13S146.26,367.91,148.17,364.86Z"/><path class="cls-39" d="M177.33,310.18l3.22.19a24.82,24.82,0,0,1,6.67,1.26c3.06,1.13,5.21,4,7.7,6.2s14.82,14,17.14,14.41,22.65-13.5,22.65-13.5l5,5S217.61,344.1,211,344.13c-3.2,0-20.81-9.25-26.45-12.86Z"/><path class="cls-40" d="M211,340.22c4.53.26,25.32-15.62,27.73-17.48l1,1S217.61,344.1,211,344.13c-2.66,0-15.34-6.42-22.75-10.65l-1.92-1.11,1.15-6.86S206.16,340,211,340.22Z"/><path class="cls-8" d="M232.15,368.94H181.64l9.05-29.53a3.89,3.89,0,0,1,3.72-2.74h44.24a2.51,2.51,0,0,1,2.4,3.25Z"/><path class="cls-6" d="M232.79,368.94H183l9.06-29.53a3.87,3.87,0,0,1,3.71-2.74H240a2.52,2.52,0,0,1,2.41,3.25l-8.68,28.29A1,1,0,0,1,232.79,368.94Z"/><g class="cls-41"><path class="cls-42" d="M155.11,324.41c2.51,11.37,3,20.26,3.67,28.39,8.83,3.43,12.42,8.53,21.06,12.37,0,0,6.82-1.13,7.53,1.44.42,1.49-8,2.67-8,2.67-8,0-29.12-5.81-30.55-6.21s-5.59-27.22-5.75-41.79c0-2.07,0-4.31,1.34-5.93a7.8,7.8,0,0,1,2.61-1.92c5.63-2.88,9.8-3.67,16.11-4.07"/></g><path class="cls-38" d="M178.65,366.94c.94-1.2,2.67-1.37,4.2-1.34a31.66,31.66,0,0,1,3.37.27c.51.07,1.1.19,1.15.74s-2.47,0-3.8.39a68,68,0,0,0,7.82.21,2.22,2.22,0,0,1,.89.09.74.74,0,0,1,.51.69.91.91,0,0,1-.36.59,5.22,5.22,0,0,1-2.68,1.08,20.65,20.65,0,0,1-11.88-1.05"/><path class="cls-39" d="M155.66,324.2c.2,12.15,1.07,17.71.83,29.86,6.1,1.31,14.55,8.21,23.18,12.06a4.53,4.53,0,0,1-.28,3.16c-.66.24-29.14-6.69-31.4-8.78-2-1.88-4.74-24.65-4.9-39.22,0-2.07,0-4.31,1.34-5.93a7.8,7.8,0,0,1,2.61-1.92c5.63-2.88,9.8-3.67,16.11-4.07"/><path class="cls-43" d="M207.11,353.31c-.18,2.59,2.88,4.69,6.83,4.69s7.31-2.1,7.49-4.69-2.88-4.69-6.83-4.69S207.29,350.72,207.11,353.31Z"/><ellipse class="cls-8" cx="214.27" cy="353.31" rx="4.56" ry="2.61" transform="translate(-13.6 8.62) rotate(-2.23)"/><path class="cls-8" d="M172.26,290.76l0,.58a10.91,10.91,0,0,1,1.67-.15c.17.18.08.19.5,2.13.3,1.44,1.27,2.2,3.51,2.08,1.71-.1,1.94-1.8,2.26-2.54s.49-.82.75-.78.37.15.5.94.24,2.69,1.9,3.06a1.93,1.93,0,0,0,2.44-1.33c.8-1.83.8-1.81,1-1.94a2.65,2.65,0,0,0,.4-1.4c0-.46-.94-.69-1.95-.81a8.34,8.34,0,0,0-3.22,0c-.65.28-.67.58-1,.55s-.26-.35-.82-.78-3.25-.77-4.27-.9-2,0-2.11.42A13.7,13.7,0,0,1,172.26,290.76Zm9.81,1c.21-.56.63-.53,1.91-.45s1.82.07,2,.38a3.43,3.43,0,0,1-.33,2.37c-.56,1.32-1,1.86-2.05,1.73a1.94,1.94,0,0,1-1.65-2A7.31,7.31,0,0,1,182.07,291.77Zm-7.15-1.46c.25-.26,1.92,0,3.18.27s1.67.32,1.73.91a7.21,7.21,0,0,1-.37,2c-.29.95-.68,1.73-2.67,1.5-1.4-.17-1.92-.85-2.13-2.26A3.42,3.42,0,0,1,174.92,290.31Z"/><path class="cls-30" d="M160.32,286.74a21.67,21.67,0,0,1,.56-3,9.55,9.55,0,0,1,4.67-6.12,14.94,14.94,0,0,1,10.56-1.05c1.93.54,2.65,1.56,3.64,1.53a11.18,11.18,0,0,0,2.71-.89c7.55-2.71,6.28,4.68,5.48,6.71-.36.9-2.07,1.55-2.3,1.93a23.29,23.29,0,0,0-.35,3,1.59,1.59,0,0,1-.94,1.12s0-2.38-.08-2.71a3,3,0,0,0-1.11-2.23,7.09,7.09,0,0,0-2.72-.76,20.78,20.78,0,0,0-5.56.92c-1.41,1.21-1.78,4-2.17,5.6-.19.76-.38,1.27-.69,1.25-.23-2.23-1-2.29-2.34-1.52-.72.4-1.12,1.82-1.14,3a3.19,3.19,0,0,0,2.25,3.3c.53.11-1.07,3.16-1.82,3.93a2.82,2.82,0,0,1-1.7,1l-1.08.29a2.89,2.89,0,0,1-1.48.13c-.8-.23-1.22-1.07-1.58-1.82-.59-1.23-1.27-2.41-1.75-3.68A21.86,21.86,0,0,1,160.32,286.74Z"/><path class="cls-38" d="M346.42,248c5.12,3.29,11.87,9.21,17.48,9.85-.19,2.21-.37,4.37-.53,6-.88,10.49-11.72,51.37-11.72,51.37l3.5,40.59-6,.23-6.44-39.79s2.36-21.27,6.09-43.24c-2.63,3.33-12.2,13.31-13.57,15.15.72,6.06,6.1,35.25,6.1,35.25l-6.54,0s-9.48-36.64-9-40.47C330.84,270.77,343.11,252.57,346.42,248Z"/><path class="cls-44" d="M308.29,213.16a27.9,27.9,0,0,1,2.8,5.82,5.56,5.56,0,0,0,2.83,3c2.34,1.32,4.86,2.62,7.28,3.83l-.57,6.46c-4.83-3.51-9.2-6.78-9.27-6.82-4,1.15-7-2.38-7.85-4.81-.38-1.09.37-1.46.44-2,0-.26-.16-1.81-.09-2,.42-1.34,4,.18,3.74-.5a4.69,4.69,0,0,0-1.33-2.42c-1.68-1.38-2.94-2.87-2.9-3.38C303.45,209.54,307.9,212.66,308.29,213.16Z"/><path class="cls-30" d="M349.33,189.69c-2,2.81-.85,7-2.83,9.76-.8,1.12-2.05,2-2.5,3.24a3,3,0,0,0,4,3.75,3.19,3.19,0,0,1,.69-.27c.87-.18,1.58.65,2.27,1.22a3.64,3.64,0,0,0,3.06.82,4.65,4.65,0,0,0,2.86-2.88c1.56-3.6,1-7.73.23-11.57-.41-1.92-1.07-4.06-2.84-4.9"/><path class="cls-38" d="M306.83,217.62c-.07.41-.72.71-.38,1.61.76,2,3.42,4.93,7,4,.14.07,18.14,12.7,19.61,12.83s12.24-8.41,16.53-19.78c1-2.71,1-6-1.48-7.65a6.15,6.15,0,0,0-3.86,2.87c-2.52,3.88-10.16,16.8-11.64,17.18-1.68-1.35-10.14-4.69-16.91-8.3a4.72,4.72,0,0,1-2.52-2.52,23.19,23.19,0,0,0-2.53-4.82c-.34-.41-4.3-3-4.37-2.28,0,.42,1.09,1.65,2.59,2.8a3.85,3.85,0,0,1,1.19,2c.22.56-2.94-.71-3.32.39C306.68,216.13,306.86,217.41,306.83,217.62Z"/><path class="cls-7" d="M348.89,208.36a8.57,8.57,0,0,0-6.05,3.9,17.44,17.44,0,0,0-.93,1.7c-1.23,2.48-2.83,4.69-4.07,7.17a15.48,15.48,0,0,0,4.27,2.54,9.45,9.45,0,0,0,4.11.92,2.1,2.1,0,0,0,.71-.09,2.16,2.16,0,0,0,.78-.56c.48-.46,1-.93,1.4-1.41a4.26,4.26,0,0,0,1-1.37,4.52,4.52,0,0,0,0-2.28"/><g class="cls-18"><path class="cls-45" d="M345.79,215.17a.78.78,0,0,1,.35-.25.59.59,0,0,1,.66.36,1.55,1.55,0,0,1,.07.8,10.94,10.94,0,0,1-.76,3l-.15,5.45h0a9.66,9.66,0,0,1-3.84-.91c-.56-.27-1.17-.55-1.79-.86C341.24,219.81,343.55,217.4,345.79,215.17Z"/></g><path class="cls-38" d="M355.29,203.5s-.22,3.4-.77,3.58a12.87,12.87,0,0,1-2.25.48l-.65,7,9.49-.59,6.76-3s-6.5-2.81-6.5-3.48.75-4.39.75-4.39"/><path class="cls-30" d="M360.14,244.46s7.62,9.38,6,18c-.7,3.59-1.54,6.74-2.38,10.34-.12.52-1.83,8.08-1.55,8.12,0,0-17.71,2.86-33.92-4.25.08-.93.38-18.86,11-35.08A180.56,180.56,0,0,0,360.14,244.46Z"/><path class="cls-7" d="M341.92,222.67c-.16,2.49,1,4.12,2.74,6.38a76.44,76.44,0,0,1,.18,9.67c-.06,1.92-1,3.05-.29,3.27,2.52,2.62,12.18,5.42,17,2.57-.12-4.05,2.45-12.7,4.05-17.08.25-.67.47-1.24.66-1.68,1.42-3.3,4.42-14,3-14.64-.3-.13-.75-.29-1.28-.5-2.29-.92-5.66-2.44-5.66-2.44s-2.58,5.85-7.95,6.12c-2.79-1.45-2.21-5.09-2-6.78-1,.18-1.41.41-4.42,1-.93,1.11-.44,3.65-2.09,7.23C345.34,216.7,342.13,219.64,341.92,222.67Z"/><path class="cls-38" d="M349.74,189s-1.12,6.51-.3,10.05c.6,2.62,3.8,5.3,6.65,5.52,7.83.69,10.17-9.83,10.18-10.35s-11.12-6-11.12-6Z"/><path class="cls-30" d="M324.79,330c4.42-.18,8.8-2.08,10.74-2.17,1.59-.07,5.75,0,7-1.41s.22-5.38-1.6-5.58a7,7,0,0,1-1.07.44,13.86,13.86,0,0,1-5.15.63c-3,1.76-3.06,2.28-6.64,3.63a27.54,27.54,0,0,0-4.48,2.13C322.13,328.59,322.3,330.1,324.79,330Z"/><path class="cls-30" d="M342.74,360.26c3.86-.43,6.53-2.07,8.22-2.27,1.39-.17,4.91-.63,5.46-1.77.41-.85,0-4.41-1.63-4.46a5.84,5.84,0,0,1-.91.44,13.6,13.6,0,0,1-4.48.84c-2.58,1.64-2.58,2.07-5.65,3.4a26.09,26.09,0,0,0-3.83,2C338.66,359.33,340.57,360.51,342.74,360.26Z"/><path class="cls-38" d="M356.9,249.49l-1.72-3.62,19.32-8.44s-6.1-11.23-8.12-14.48c-2.22-3.57-4.08-6.72-3.2-10,.76-.51,11.78,5.68,11.89,6.18,1.25,5.79,7.82,18.94,7.14,21.86C381.42,244.3,356.9,249.49,356.9,249.49Z"/><path class="cls-7" d="M367.41,209.06s3.13.74,4.23,2.15,5.24,13.06,5.24,13.06a4.63,4.63,0,0,1-2.49,3.16,9.54,9.54,0,0,1-5.08,1s-2.51-3.94-4-5.81c-.93-1.17-1.55,1.06-1.55,1.06l-4.45-6.84Z"/><path class="cls-30" d="M369,210.36l.54-.25a4.35,4.35,0,0,0,2.29-1.93c.67-1.42,1.13-3.66.49-5.15a20.43,20.43,0,0,0-1.93-2.66,7.61,7.61,0,0,1-.89-4.39,27.69,27.69,0,0,0,.09-4.55c-.32-2.58-.82-5.05-2.63-6.85-2.89-2.88-9-5-12.67-2.37-.66.48-.82.89-1.67.9a6.16,6.16,0,0,0-2.92.58c-1.18.55-2.61,1.34-2.58,2.82a5.27,5.27,0,0,0,1.85,3.28,2.74,2.74,0,0,0,1.18.38c1.32.14,2.5-.63,3.79-.37a2.45,2.45,0,0,1,1.55,1c.42.62.29,1.42.79,2,.8.94,2.17,1,3.16,1.65a1.08,1.08,0,0,1,.41.41,1.06,1.06,0,0,1,.07.56l-.09,1.65c.54-.18.66-.91,1.12-1.24a1.18,1.18,0,0,1,1.48.23,2.57,2.57,0,0,1,.6,1.49,4.14,4.14,0,0,1-.47,1.94c-.44,1.09-1.48,2-2.19,1.2-.63.78-.14,2.21-.2,3.14-.05.74-.2,2.21-.93,2.63s-1.65,0-1.79,1.11a2.21,2.21,0,0,0,1.89,2.19,7.75,7.75,0,0,0,3.13-.26,4.89,4.89,0,0,1,3.12.12,9.45,9.45,0,0,0,1.67.93A2.72,2.72,0,0,0,369,210.36Z"/><path class="cls-38" d="M361.2,243.46s-4.22,2.15-5.06,2-1.66-.41-2.5-.46a4.63,4.63,0,0,0-3.38,1.29c-.73.69-.83.15-1.07,1.13-.35,1.48.7,2.73,1.5,3.75,3.4,4.34,7.12-1.65,7.23-1.87.23-.46,4-1.61,4-1.61"/><path class="cls-38" d="M352.34,251.67a5.08,5.08,0,0,1-3.1-2.38,8.89,8.89,0,0,1-.52-1.23,1.28,1.28,0,0,1-.1-.65,1.77,1.77,0,0,1,.73-1,2.14,2.14,0,0,1,1.28-.48c.71,0,1,.67,1.11,1.28a.24.24,0,0,0,.07.17c.07.07.19.06.31.05a2.13,2.13,0,0,1,1.3.18.73.73,0,0,1,.24,1.05c-.11.17-.28.37-.17.49a.42.42,0,0,0,.15.07,1.37,1.37,0,0,1,.85.7.45.45,0,0,1,0,.28.6.6,0,0,1-.13.21,3.5,3.5,0,0,1-.7.63"/><path class="cls-38" d="M356.31,245.61a18.4,18.4,0,0,1-1.93-.54,4.5,4.5,0,0,0-4.27.42.51.51,0,0,0-.23.27.39.39,0,0,0,.18.4,1.16,1.16,0,0,0,.45.12c.49.06,1.57-.18,1.92.2a5.51,5.51,0,0,0,1.89,1.43c.65.27,1.82.44,2.27-.27"/><rect class="cls-46" x="235.76" y="202.76" width="110.99" height="74.6" rx="4.86" ry="4.86" transform="translate(-28.2 39.05) rotate(-7.32)"/><rect class="cls-6" x="237.62" y="199.59" width="110.99" height="74.6" rx="4.86" ry="4.86" transform="translate(-27.79 39.26) rotate(-7.32)"/><rect class="cls-39" x="251.48" y="259.31" width="4.83" height="12.14" transform="translate(-31.73 34.5) rotate(-7.32)"/><rect class="cls-7" x="261.61" y="247.31" width="4.83" height="22.79" transform="translate(-30.8 35.74) rotate(-7.32)"/><rect class="cls-39" x="272.56" y="248.27" width="4.83" height="20.44" transform="translate(-30.68 37.13) rotate(-7.32)"/><rect class="cls-8" x="282.63" y="235.4" width="4.83" height="31.97" transform="translate(-29.7 38.35) rotate(-7.32)"/><g class="cls-47"><rect class="cls-48" x="261.62" y="247.48" width="2.22" height="22.79" transform="matrix(0.99, -0.13, 0.13, 0.99, -30.83, 35.57)"/></g><g class="cls-47"><rect class="cls-48" x="251.49" y="259.48" width="2.22" height="12.14" transform="translate(-31.77 34.34) rotate(-7.32)"/></g><g class="cls-49"><rect class="cls-48" x="282.65" y="235.56" width="2.22" height="31.97" transform="matrix(0.99, -0.13, 0.13, 0.99, -29.73, 38.19)"/></g><g class="cls-47"><rect class="cls-48" x="272.57" y="248.44" width="2.22" height="20.44" transform="translate(-30.72 36.97) rotate(-7.32)"/></g><polygon class="cls-50" points="292.45 269.92 249.53 275.43 244.19 233.81 244.84 233.73 250.1 274.69 292.37 269.26 292.45 269.92"/><polygon class="cls-50" points="251.25 253.87 250.75 253.44 260.68 241.92 271.37 242.84 281.02 228.86 281.56 229.24 271.69 243.53 260.96 242.61 251.25 253.87"/><polygon class="cls-50" points="282.68 230.98 279.11 228.34 283.07 226.72 282.68 230.98"/><rect class="cls-8" x="294.63" y="252.97" width="3.32" height="3.32" transform="translate(-30.02 39.81) rotate(-7.32)"/><rect class="cls-39" x="295.37" y="258.74" width="3.32" height="3.32" transform="translate(-30.75 39.95) rotate(-7.32)"/><rect class="cls-51" x="299.63" y="259.17" width="10.52" height="1.89" transform="translate(-30.65 40.95) rotate(-7.32)"/><rect class="cls-51" x="298.89" y="253.4" width="10.52" height="1.89" transform="translate(-29.92 40.81) rotate(-7.32)"/><rect class="cls-8" x="314" y="250.48" width="3.32" height="3.32" transform="translate(-29.54 42.26) rotate(-7.32)"/><rect class="cls-39" x="314.74" y="256.25" width="3.32" height="3.32" transform="translate(-30.27 42.4) rotate(-7.32)"/><rect class="cls-51" x="319" y="256.68" width="10.52" height="1.89" transform="translate(-30.17 43.4) rotate(-7.32)"/><rect class="cls-51" x="318.26" y="250.91" width="10.52" height="1.89" transform="translate(-29.44 43.26) rotate(-7.32)"/><rect class="cls-8" x="331.44" y="248.24" width="3.32" height="3.32" transform="translate(-29.12 44.46) rotate(-7.32)"/><rect class="cls-39" x="332.18" y="254.01" width="3.32" height="3.32" transform="translate(-29.85 44.6) rotate(-7.32)"/><rect class="cls-51" x="336.45" y="254.67" width="6.93" height="1.89" transform="translate(-29.79 45.38) rotate(-7.32)"/><rect class="cls-51" x="335.71" y="248.9" width="6.93" height="1.89" transform="translate(-29.06 45.23) rotate(-7.32)"/><rect class="cls-51" x="290.87" y="218.61" width="47.65" height="0.87" transform="translate(-25.34 41.87) rotate(-7.32)"/><rect class="cls-51" x="241.79" y="211.12" width="95.63" height="1.98" transform="translate(-24.66 38.61) rotate(-7.32)"/><rect class="cls-51" x="291.07" y="221.29" width="47.79" height="0.87" transform="translate(-25.68 41.92) rotate(-7.32)"/><rect class="cls-51" x="290.38" y="215.95" width="47.79" height="0.87" transform="translate(-25 41.79) rotate(-7.32)"/><rect class="cls-51" x="291.41" y="223.96" width="47.79" height="0.87" transform="translate(-26.01 41.99) rotate(-7.32)"/><rect class="cls-51" x="291.76" y="226.64" width="47.79" height="0.87" transform="translate(-26.35 42.05) rotate(-7.32)"/><rect class="cls-51" x="292.1" y="229.31" width="47.79" height="0.87" transform="translate(-26.69 42.12) rotate(-7.32)"/><rect class="cls-51" x="292.44" y="231.98" width="47.79" height="0.87" transform="translate(-27.03 42.18) rotate(-7.32)"/><rect class="cls-51" x="292.78" y="234.65" width="47.79" height="0.87" transform="translate(-27.36 42.25) rotate(-7.32)"/><rect class="cls-51" x="293.13" y="237.32" width="47.79" height="0.87" transform="translate(-27.7 42.31) rotate(-7.32)"/><rect class="cls-51" x="299.3" y="239.62" width="41.94" height="0.87" transform="matrix(0.99, -0.13, 0.13, 0.99, -27.97, 42.75)"/><path class="cls-8" d="M338.59,193.44l-100.44,12.9a4.87,4.87,0,0,0-4.21,5.45l.55,4.22,110.08-14.14-.54-4.22A4.86,4.86,0,0,0,338.59,193.44Z"/><path class="cls-7" d="M329.85,199.33a1.4,1.4,0,1,1-1.57-1.21A1.4,1.4,0,0,1,329.85,199.33Z"/><path class="cls-7" d="M335.52,198.6a1.4,1.4,0,1,1-1.57-1.21A1.4,1.4,0,0,1,335.52,198.6Z"/><path class="cls-7" d="M341.19,197.88a1.4,1.4,0,1,1-1.57-1.22A1.4,1.4,0,0,1,341.19,197.88Z"/><path class="cls-3" d="M547.19,244.63a37.18,37.18,0,1,0-2.51,13.49A37,37,0,0,0,547.19,244.63Zm-15.38,0a21.58,21.58,0,0,1-1.53,8A21.84,21.84,0,0,1,510,266.5a5.12,5.12,0,0,1-.56,0,21.85,21.85,0,1,1,19.48-32.78A21.57,21.57,0,0,1,531.81,244.63Z"/><path class="cls-1" d="M510,281.87V266.5a5.12,5.12,0,0,1-.56,0,21.84,21.84,0,0,1-14.17-38L485,217a37.23,37.23,0,0,0,25,64.86Z"/><path class="cls-8" d="M547.19,244.63a37.09,37.09,0,0,0-5.1-18.83l-13.22,7.89a21.83,21.83,0,0,1,1.41,19l14.4,5.46A37.3,37.3,0,0,0,547.19,244.63Z"/><path class="cls-7" d="M542.09,225.8A37.24,37.24,0,0,0,485,217l10.24,11.47a21.85,21.85,0,0,1,33.65,5.21Z"/></g></g></svg>