<svg width="2421" height="1039" viewBox="0 0 2421 1039" fill="none" xmlns="http://www.w3.org/2000/svg">
<g filter="url(#filter0_d)">
<rect x="19" y="19.1396" width="1860.4" height="1000" rx="16" fill="white"/>
<g filter="url(#filter1_i)">
<rect x="124.412" y="63.2988" width="1709.4" height="911.681" rx="8" fill="#E4E4E4"/>
</g>
<g filter="url(#filter2_i)">
<rect x="37.5186" y="482.103" width="72.6496" height="72.6496" rx="36.3248" fill="white"/>
</g>
<g filter="url(#filter3_d)">
<rect x="57.4604" y="504.895" width="31.339" height="31.339" rx="3" fill="white"/>
</g>
<g filter="url(#filter4_i)">
<path d="M124.412 71.2988C124.412 66.8805 127.994 63.2988 132.412 63.2988H279.683V974.98H132.412C127.994 974.98 124.412 971.398 124.412 966.98V71.2988Z" fill="url(#paint0_linear)"/>
</g>
<rect x="308.174" y="91.7891" width="1497.15" height="91.1681" rx="8" fill="white"/>
<rect x="308.174" y="486.375" width="1497.15" height="68.3761" rx="8" fill="white"/>
<rect x="308.174" y="577.544" width="1497.15" height="116.809" rx="8" fill="white"/>
<g filter="url(#filter5_d)">
<rect x="335.239" y="111.732" width="696.581" height="51.2821" rx="8" fill="white"/>
</g>
<rect x="308.174" y="204.324" width="296.296" height="259.259" rx="8" fill="white"/>
<rect x="702.76" y="204.324" width="296.296" height="259.259" rx="8" fill="white"/>
<rect x="1111.59" y="204.324" width="296.296" height="259.259" rx="8" fill="white"/>
<rect x="1509.03" y="204.324" width="296.296" height="259.259" rx="8" fill="white"/>
<rect x="339.513" y="610.308" width="51.2821" height="51.2821" rx="24" fill="#E3E3E3"/>
<rect x="433.529" y="627.401" width="176.282" height="17.094" rx="4" fill="#E3E3E3"/>
<rect x="830.965" y="627.401" width="176.282" height="17.094" rx="4" fill="#E3E3E3"/>
<rect x="1547.49" y="627.401" width="176.282" height="17.094" rx="4" fill="#E3E3E3"/>
<rect x="830.965" y="767.003" width="176.282" height="17.094" rx="4" fill="#E3E3E3"/>
<rect x="830.965" y="906.604" width="176.282" height="17.094" rx="4" fill="#E3E3E3"/>
<rect x="820.994" y="767.003" width="176.282" height="17.094" rx="4" fill="#E3E3E3"/>
<rect x="820.994" y="906.604" width="176.282" height="17.094" rx="4" fill="#E3E3E3"/>
<rect x="308.174" y="717.146" width="1497.15" height="116.809" rx="8" fill="white"/>
<rect x="339.513" y="749.908" width="51.2821" height="51.2821" rx="24" fill="#3076FF"/>
<rect x="167.148" y="91.7891" width="68.3761" height="68.3761" rx="34.188" fill="white"/>
<rect x="184.242" y="343.926" width="34.188" height="34.188" rx="17.094" fill="white"/>
<rect x="184.242" y="420.85" width="34.188" height="34.188" rx="17.094" fill="white"/>
<rect x="184.242" y="497.771" width="34.188" height="34.188" rx="17.094" fill="white"/>
<rect x="184.242" y="574.695" width="34.188" height="34.188" rx="17.094" fill="white"/>
<rect x="184.242" y="651.618" width="34.188" height="34.188" rx="17.094" fill="white"/>
<rect x="184.242" y="728.541" width="34.188" height="34.188" rx="17.094" fill="white"/>
<rect x="433.529" y="767.003" width="176.282" height="17.094" rx="4" fill="#E3E3E3"/>
<rect x="1547.49" y="767.003" width="176.282" height="17.094" rx="4" fill="#E3E3E3"/>
<rect x="308.174" y="856.747" width="1497.15" height="116.809" rx="8" fill="white"/>
<rect x="339.513" y="889.51" width="51.2821" height="51.2821" rx="24" fill="#E3E3E3"/>
<rect x="433.529" y="906.604" width="176.282" height="17.094" rx="4" fill="#E3E3E3"/>
<rect x="1385.1" y="117.43" width="186.61" height="39.886" rx="4" fill="#2684FF"/>
<rect x="1602.12" y="117.93" width="145.724" height="38.886" rx="3.5" stroke="#66C7FE"/>
<rect x="845.212" y="509.168" width="148.148" height="22.792" rx="2" fill="#E9E9E9"/>
<rect x="466.293" y="509.168" width="112.536" height="22.792" rx="2" fill="#E9E9E9"/>
<rect x="339.513" y="509.168" width="94.0171" height="22.792" rx="2" fill="#E9E9E9"/>
<rect x="1222.7" y="507.743" width="148.148" height="22.792" rx="2" fill="#E9E9E9"/>
<rect x="1208.46" y="627.401" width="176.282" height="17.094" rx="4" fill="#E3E3E3"/>
<rect x="1168.57" y="624.553" width="22.792" height="22.792" rx="11.396" fill="#66FEA3"/>
<rect x="1547.49" y="906.604" width="176.282" height="17.094" rx="4" fill="#E3E3E3"/>
<rect x="830.965" y="906.604" width="176.282" height="17.094" rx="4" fill="#E3E3E3"/>
<rect x="830.965" y="767.003" width="176.282" height="17.094" rx="4" fill="#E3E3E3"/>
<rect x="1208.46" y="767.003" width="176.282" height="17.094" rx="4" fill="#E3E3E3"/>
<rect x="1168.57" y="764.153" width="22.792" height="22.792" rx="11.396" fill="#F266FE"/>
<rect x="1208.46" y="906.604" width="176.282" height="17.094" rx="4" fill="#E3E3E3"/>
<rect x="1168.57" y="903.754" width="22.792" height="22.792" rx="11.396" fill="#FE66B8"/>
<rect x="1561.73" y="509.168" width="148.148" height="22.792" rx="2" fill="#E9E9E9"/>
<rect x="444.925" y="830.867" width="968.661" height="54.1311" rx="27.0655" transform="rotate(-45 444.925 830.867)" fill="url(#paint1_linear)" fill-opacity="0.5"/>
<rect x="749.77" y="959.072" width="968.661" height="54.1311" rx="27.0655" transform="rotate(-45 749.77 959.072)" fill="url(#paint2_linear)" fill-opacity="0.5"/>
</g>
<g filter="url(#filter6_d)">
<g clip-path="url(#clip0)">
<rect x="2079.11" y="535.734" width="294.475" height="16.4559" rx="8.22797" transform="rotate(-45 2079.11 535.734)" fill="url(#paint3_linear)" fill-opacity="0.5"/>
<rect x="2171.78" y="574.708" width="294.475" height="16.4559" rx="8.22797" transform="rotate(-45 2171.78 574.708)" fill="url(#paint4_linear)" fill-opacity="0.5"/>
<rect x="1940" y="19" width="463.063" height="1000" rx="12" fill="white"/>
<g filter="url(#filter7_i)">
<rect x="1946" y="26" width="451" height="980" rx="12" fill="white"/>
</g>
<rect x="2094.25" y="124.604" width="152.757" height="152.757" rx="76.3784" stroke="#4285F4" stroke-width="4"/>
<rect x="1994.05" y="329.811" width="353.153" height="401.802" rx="8" fill="white"/>
<rect x="1991.45" y="753.233" width="353.153" height="145.045" rx="8" fill="white"/>
<rect x="2014.88" y="842.423" width="312.613" height="39.6396" rx="4" fill="#2684FF"/>
<rect x="2015.38" y="779.86" width="311.613" height="39.5405" rx="3.5" stroke="#66C7FE"/>
<rect x="2025.59" y="405.486" width="291.892" height="45.045" rx="2" fill="#E9E9E9"/>
<rect x="2025.59" y="473.054" width="291.892" height="45.9459" rx="2" fill="#E9E9E9"/>
<rect x="2025.59" y="541.522" width="291.892" height="45.9459" rx="2" fill="#E9E9E9"/>
<rect x="2025.59" y="609.99" width="291.892" height="45.9459" rx="2" fill="#E9E9E9"/>
</g>
</g>
<defs>
<filter id="filter0_d" x="0" y="0.139648" width="1898.4" height="1038" filterUnits="userSpaceOnUse" color-interpolation-filters="sRGB">
<feFlood flood-opacity="0" result="BackgroundImageFix"/>
<feColorMatrix in="SourceAlpha" type="matrix" values="0 0 0 0 0 0 0 0 0 0 0 0 0 0 0 0 0 0 127 0"/>
<feOffset/>
<feGaussianBlur stdDeviation="9.5"/>
<feColorMatrix type="matrix" values="0 0 0 0 0 0 0 0 0 0 0 0 0 0 0 0 0 0 0.25 0"/>
<feBlend mode="normal" in2="BackgroundImageFix" result="effect1_dropShadow"/>
<feBlend mode="normal" in="SourceGraphic" in2="effect1_dropShadow" result="shape"/>
</filter>
<filter id="filter1_i" x="124.412" y="63.2988" width="1709.4" height="911.681" filterUnits="userSpaceOnUse" color-interpolation-filters="sRGB">
<feFlood flood-opacity="0" result="BackgroundImageFix"/>
<feBlend mode="normal" in="SourceGraphic" in2="BackgroundImageFix" result="shape"/>
<feColorMatrix in="SourceAlpha" type="matrix" values="0 0 0 0 0 0 0 0 0 0 0 0 0 0 0 0 0 0 127 0" result="hardAlpha"/>
<feOffset/>
<feGaussianBlur stdDeviation="5"/>
<feComposite in2="hardAlpha" operator="arithmetic" k2="-1" k3="1"/>
<feColorMatrix type="matrix" values="0 0 0 0 0 0 0 0 0 0 0 0 0 0 0 0 0 0 0.5 0"/>
<feBlend mode="normal" in2="shape" result="effect1_innerShadow"/>
</filter>
<filter id="filter2_i" x="37.5186" y="482.103" width="72.6496" height="76.6496" filterUnits="userSpaceOnUse" color-interpolation-filters="sRGB">
<feFlood flood-opacity="0" result="BackgroundImageFix"/>
<feBlend mode="normal" in="SourceGraphic" in2="BackgroundImageFix" result="shape"/>
<feColorMatrix in="SourceAlpha" type="matrix" values="0 0 0 0 0 0 0 0 0 0 0 0 0 0 0 0 0 0 127 0" result="hardAlpha"/>
<feOffset dy="4"/>
<feGaussianBlur stdDeviation="2"/>
<feComposite in2="hardAlpha" operator="arithmetic" k2="-1" k3="1"/>
<feColorMatrix type="matrix" values="0 0 0 0 0 0 0 0 0 0 0 0 0 0 0 0 0 0 0.25 0"/>
<feBlend mode="normal" in2="shape" result="effect1_innerShadow"/>
</filter>
<filter id="filter3_d" x="50.4604" y="497.895" width="45.339" height="45.339" filterUnits="userSpaceOnUse" color-interpolation-filters="sRGB">
<feFlood flood-opacity="0" result="BackgroundImageFix"/>
<feColorMatrix in="SourceAlpha" type="matrix" values="0 0 0 0 0 0 0 0 0 0 0 0 0 0 0 0 0 0 127 0"/>
<feOffset/>
<feGaussianBlur stdDeviation="3.5"/>
<feColorMatrix type="matrix" values="0 0 0 0 0 0 0 0 0 0 0 0 0 0 0 0 0 0 0.1 0"/>
<feBlend mode="normal" in2="BackgroundImageFix" result="effect1_dropShadow"/>
<feBlend mode="normal" in="SourceGraphic" in2="effect1_dropShadow" result="shape"/>
</filter>
<filter id="filter4_i" x="124.412" y="63.2988" width="155.271" height="914.681" filterUnits="userSpaceOnUse" color-interpolation-filters="sRGB">
<feFlood flood-opacity="0" result="BackgroundImageFix"/>
<feBlend mode="normal" in="SourceGraphic" in2="BackgroundImageFix" result="shape"/>
<feColorMatrix in="SourceAlpha" type="matrix" values="0 0 0 0 0 0 0 0 0 0 0 0 0 0 0 0 0 0 127 0" result="hardAlpha"/>
<feOffset dy="4"/>
<feGaussianBlur stdDeviation="1.5"/>
<feComposite in2="hardAlpha" operator="arithmetic" k2="-1" k3="1"/>
<feColorMatrix type="matrix" values="0 0 0 0 0 0 0 0 0 0 0 0 0 0 0 0 0 0 0.25 0"/>
<feBlend mode="normal" in2="shape" result="effect1_innerShadow"/>
</filter>
<filter id="filter5_d" x="328.239" y="104.732" width="710.581" height="65.2821" filterUnits="userSpaceOnUse" color-interpolation-filters="sRGB">
<feFlood flood-opacity="0" result="BackgroundImageFix"/>
<feColorMatrix in="SourceAlpha" type="matrix" values="0 0 0 0 0 0 0 0 0 0 0 0 0 0 0 0 0 0 127 0"/>
<feOffset/>
<feGaussianBlur stdDeviation="3.5"/>
<feColorMatrix type="matrix" values="0 0 0 0 0 0 0 0 0 0 0 0 0 0 0 0 0 0 0.07 0"/>
<feBlend mode="normal" in2="BackgroundImageFix" result="effect1_dropShadow"/>
<feBlend mode="normal" in="SourceGraphic" in2="effect1_dropShadow" result="shape"/>
</filter>
<filter id="filter6_d" x="1923" y="2" width="497.294" height="1034" filterUnits="userSpaceOnUse" color-interpolation-filters="sRGB">
<feFlood flood-opacity="0" result="BackgroundImageFix"/>
<feColorMatrix in="SourceAlpha" type="matrix" values="0 0 0 0 0 0 0 0 0 0 0 0 0 0 0 0 0 0 127 0"/>
<feOffset/>
<feGaussianBlur stdDeviation="8.5"/>
<feColorMatrix type="matrix" values="0 0 0 0 0 0 0 0 0 0 0 0 0 0 0 0 0 0 0.25 0"/>
<feBlend mode="normal" in2="BackgroundImageFix" result="effect1_dropShadow"/>
<feBlend mode="normal" in="SourceGraphic" in2="effect1_dropShadow" result="shape"/>
</filter>
<filter id="filter7_i" x="1946" y="26" width="451" height="980" filterUnits="userSpaceOnUse" color-interpolation-filters="sRGB">
<feFlood flood-opacity="0" result="BackgroundImageFix"/>
<feBlend mode="normal" in="SourceGraphic" in2="BackgroundImageFix" result="shape"/>
<feColorMatrix in="SourceAlpha" type="matrix" values="0 0 0 0 0 0 0 0 0 0 0 0 0 0 0 0 0 0 127 0" result="hardAlpha"/>
<feOffset/>
<feGaussianBlur stdDeviation="2.5"/>
<feComposite in2="hardAlpha" operator="arithmetic" k2="-1" k3="1"/>
<feColorMatrix type="matrix" values="0 0 0 0 0 0 0 0 0 0 0 0 0 0 0 0 0 0 0.5 0"/>
<feBlend mode="normal" in2="shape" result="effect1_innerShadow"/>
</filter>
<linearGradient id="paint0_linear" x1="202.047" y1="63.2988" x2="202.047" y2="974.98" gradientUnits="userSpaceOnUse">
<stop stop-color="#2684FF"/>
<stop offset="1" stop-color="#26CBFF"/>
</linearGradient>
<linearGradient id="paint1_linear" x1="1469.15" y1="852.189" x2="436.698" y2="839.094" gradientUnits="userSpaceOnUse">
<stop stop-color="white"/>
<stop offset="1" stop-color="white" stop-opacity="0.43"/>
</linearGradient>
<linearGradient id="paint2_linear" x1="1774" y1="980.394" x2="741.543" y2="967.299" gradientUnits="userSpaceOnUse">
<stop stop-color="white"/>
<stop offset="1" stop-color="white" stop-opacity="0.43"/>
</linearGradient>
<linearGradient id="paint3_linear" x1="2390.48" y1="542.216" x2="2076.61" y2="538.235" gradientUnits="userSpaceOnUse">
<stop stop-color="white"/>
<stop offset="1" stop-color="white" stop-opacity="0.43"/>
</linearGradient>
<linearGradient id="paint4_linear" x1="2483.15" y1="581.19" x2="2169.28" y2="577.209" gradientUnits="userSpaceOnUse">
<stop stop-color="white"/>
<stop offset="1" stop-color="white" stop-opacity="0.43"/>
</linearGradient>
<clipPath id="clip0">
<rect width="463.294" height="1000" fill="white" transform="translate(1940 19)"/>
</clipPath>
</defs>
</svg>
