<svg width="3840" height="1320" viewBox="0 0 3840 1320" fill="none" xmlns="http://www.w3.org/2000/svg">
<g clip-path="url(#clip0)">
<path d="M4681.1 -460.379C3240.16 851.907 683.265 1094.54 -415.067 1051.83C-950.814 1210.94 -2047.31 1526.17 -2147.32 1514.24C-2247.32 1502.31 103.902 2240.48 1292.02 2611.05L4463.49 3122.36L4924.98 1620.96C5444.08 380.395 6122.03 -1772.66 4681.1 -460.379Z" fill="#253858" fill-opacity="0.25"/>
<path d="M4754.31 1223.17C2841.17 1595 530.861 472.908 -385.149 -134.615C-925.517 -277.242 -2026.06 -578.042 -2105.29 -640.225C-2184.51 -702.409 -559.824 1150.57 262.425 2084.83L2705.73 4170.49L3880.54 3127.89C4968.94 2338.06 6667.46 851.346 4754.31 1223.17Z" fill="#253858" fill-opacity="0.25"/>
<path d="M4854.02 -81.1C3136.95 840.894 597.917 453.735 -456.968 144.906C-1015.33 168.794 -2155.58 207.593 -2249.68 171.676C-2343.77 135.76 -242.999 1424.14 819.148 2072.81L3770.71 3340.87L4583.85 1996.99C5389.35 920.129 6571.08 -1003.09 4854.02 -81.1Z" fill="#253858"/>
</g>
<defs>
<clipPath id="clip0">
<rect width="3840" height="1320" fill="white"/>
</clipPath>
</defs>
</svg>
