<svg width="928" height="334" viewBox="0 0 928 334" fill="none" xmlns="http://www.w3.org/2000/svg">
<path d="M250.21 201.887H221.958L216.587 218H199.453L228.564 139.797H243.496L272.769 218H255.635L250.21 201.887ZM226.309 188.835H245.859L236.03 159.562L226.309 188.835ZM338.833 195.441L349.36 139.797H365.42L348.071 218H331.851L319.121 165.686L306.392 218H290.171L272.822 139.797H288.882L299.463 195.334L312.354 139.797H325.996L338.833 195.441ZM421.226 184.108H390.288V205.056H426.597V218H374.175V139.797H426.489V152.849H390.288V171.486H421.226V184.108ZM476.602 197.482C476.602 194.439 475.527 192.111 473.379 190.5C471.23 188.853 467.363 187.134 461.777 185.344C456.191 183.518 451.769 181.727 448.511 179.973C439.631 175.174 435.19 168.711 435.19 160.583C435.19 156.358 436.372 152.598 438.735 149.304C441.134 145.974 444.554 143.378 448.994 141.516C453.47 139.654 458.483 138.723 464.033 138.723C469.619 138.723 474.596 139.743 478.965 141.784C483.333 143.789 486.717 146.636 489.116 150.324C491.551 154.012 492.769 158.202 492.769 162.893H476.655C476.655 159.312 475.527 156.537 473.271 154.567C471.016 152.562 467.847 151.56 463.765 151.56C459.826 151.56 456.764 152.401 454.58 154.084C452.396 155.731 451.304 157.915 451.304 160.637C451.304 163.179 452.575 165.31 455.117 167.028C457.695 168.747 461.473 170.358 466.45 171.862C475.617 174.619 482.295 178.039 486.484 182.121C490.674 186.203 492.769 191.288 492.769 197.375C492.769 204.143 490.208 209.46 485.088 213.327C479.967 217.159 473.075 219.074 464.409 219.074C458.394 219.074 452.915 217.982 447.974 215.798C443.032 213.578 439.255 210.552 436.641 206.721C434.062 202.889 432.773 198.449 432.773 193.4H448.94C448.94 202.03 454.097 206.345 464.409 206.345C468.241 206.345 471.23 205.575 473.379 204.035C475.527 202.46 476.602 200.275 476.602 197.482ZM567.964 180.671C567.964 188.369 566.603 195.119 563.882 200.92C561.16 206.721 557.257 211.197 552.173 214.348C547.124 217.499 541.323 219.074 534.771 219.074C528.289 219.074 522.507 217.517 517.422 214.401C512.337 211.286 508.398 206.846 505.605 201.081C502.812 195.28 501.398 188.62 501.362 181.101V177.233C501.362 169.535 502.741 162.767 505.498 156.931C508.291 151.058 512.212 146.564 517.261 143.449C522.345 140.298 528.146 138.723 534.663 138.723C541.18 138.723 546.963 140.298 552.012 143.449C557.096 146.564 561.017 151.058 563.774 156.931C566.567 162.767 567.964 169.517 567.964 177.18V180.671ZM551.636 177.126C551.636 168.926 550.168 162.696 547.231 158.435C544.295 154.174 540.106 152.043 534.663 152.043C529.256 152.043 525.085 154.156 522.148 158.381C519.212 162.57 517.726 168.729 517.69 176.857V180.671C517.69 188.656 519.159 194.851 522.095 199.255C525.031 203.659 529.256 205.861 534.771 205.861C540.177 205.861 544.331 203.749 547.231 199.523C550.132 195.262 551.6 189.068 551.636 180.939V177.126ZM600.728 139.797L620.815 196.516L640.796 139.797H661.958V218H645.791V196.623L647.402 159.724L626.294 218H615.229L594.175 159.777L595.786 196.623V218H579.673V139.797H600.728ZM723.081 184.108H692.144V205.056H728.452V218H676.03V139.797H728.345V152.849H692.144V171.486H723.081V184.108ZM60.5625 311.312L69.75 262.75H83.7656L68.625 331H54.4688L43.3594 285.344L32.25 331H18.0938L2.95312 262.75H16.9688L26.2031 311.219L37.4531 262.75H49.3594L60.5625 311.312ZM132.469 301.422H105.469V319.703H137.156V331H91.4062V262.75H137.062V274.141H105.469V290.406H132.469V301.422ZM145.406 331V262.75H169.312C177.594 262.75 183.875 264.344 188.156 267.531C192.438 270.688 194.578 275.328 194.578 281.453C194.578 284.797 193.719 287.75 192 290.312C190.281 292.844 187.891 294.703 184.828 295.891C188.328 296.766 191.078 298.531 193.078 301.188C195.109 303.844 196.125 307.094 196.125 310.938C196.125 317.5 194.031 322.469 189.844 325.844C185.656 329.219 179.688 330.938 171.938 331H145.406ZM159.469 301.281V319.703H171.516C174.828 319.703 177.406 318.922 179.25 317.359C181.125 315.766 182.062 313.578 182.062 310.797C182.062 304.547 178.828 301.375 172.359 301.281H159.469ZM159.469 291.344H169.875C176.969 291.219 180.516 288.391 180.516 282.859C180.516 279.766 179.609 277.547 177.797 276.203C176.016 274.828 173.188 274.141 169.312 274.141H159.469V291.344ZM227.859 312.625C227.859 309.469 228.734 306.547 230.484 303.859C232.266 301.172 235.516 298.188 240.234 294.906C238.203 292.188 236.609 289.641 235.453 287.266C234.297 284.859 233.719 282.359 233.719 279.766C233.719 274.453 235.391 270.141 238.734 266.828C242.109 263.484 246.641 261.812 252.328 261.812C257.422 261.812 261.594 263.328 264.844 266.359C268.125 269.391 269.766 273.172 269.766 277.703C269.766 283.141 267.016 287.938 261.516 292.094L256.266 295.891L268.031 309.578C269.875 305.953 270.797 301.953 270.797 297.578H282.328C282.328 306.453 280.281 313.641 276.188 319.141L286.406 331H271.031L267.516 326.969C262.484 330.281 256.703 331.938 250.172 331.938C243.422 331.938 238.016 330.172 233.953 326.641C229.891 323.078 227.859 318.406 227.859 312.625ZM250.828 321.062C254.078 321.062 257.156 320.156 260.062 318.344L246.609 302.781L245.625 303.484C242.844 305.859 241.453 308.656 241.453 311.875C241.453 314.594 242.312 316.812 244.031 318.531C245.781 320.219 248.047 321.062 250.828 321.062ZM245.859 279.578C245.859 281.922 247.234 284.875 249.984 288.438L253.594 286.047C255.438 284.859 256.703 283.703 257.391 282.578C258.109 281.453 258.469 280.109 258.469 278.547C258.469 276.984 257.891 275.625 256.734 274.469C255.578 273.312 254.094 272.734 252.281 272.734C250.344 272.734 248.781 273.359 247.594 274.609C246.438 275.859 245.859 277.516 245.859 279.578ZM335.906 262.75L353.438 312.25L370.875 262.75H389.344V331H375.234V312.344L376.641 280.141L358.219 331H348.562L330.188 280.188L331.594 312.344V331H317.531V262.75H335.906ZM457.688 298.422C457.688 305.141 456.5 311.031 454.125 316.094C451.75 321.156 448.344 325.062 443.906 327.812C439.5 330.562 434.438 331.938 428.719 331.938C423.062 331.938 418.016 330.578 413.578 327.859C409.141 325.141 405.703 321.266 403.266 316.234C400.828 311.172 399.594 305.359 399.562 298.797V295.422C399.562 288.703 400.766 282.797 403.172 277.703C405.609 272.578 409.031 268.656 413.438 265.938C417.875 263.188 422.938 261.812 428.625 261.812C434.312 261.812 439.359 263.188 443.766 265.938C448.203 268.656 451.625 272.578 454.031 277.703C456.469 282.797 457.688 288.688 457.688 295.375V298.422ZM443.438 295.328C443.438 288.172 442.156 282.734 439.594 279.016C437.031 275.297 433.375 273.438 428.625 273.438C423.906 273.438 420.266 275.281 417.703 278.969C415.141 282.625 413.844 288 413.812 295.094V298.422C413.812 305.391 415.094 310.797 417.656 314.641C420.219 318.484 423.906 320.406 428.719 320.406C433.438 320.406 437.062 318.562 439.594 314.875C442.125 311.156 443.406 305.75 443.438 298.656V295.328ZM467.906 331V262.75H491.812C500.094 262.75 506.375 264.344 510.656 267.531C514.938 270.688 517.078 275.328 517.078 281.453C517.078 284.797 516.219 287.75 514.5 290.312C512.781 292.844 510.391 294.703 507.328 295.891C510.828 296.766 513.578 298.531 515.578 301.188C517.609 303.844 518.625 307.094 518.625 310.938C518.625 317.5 516.531 322.469 512.344 325.844C508.156 329.219 502.188 330.938 494.438 331H467.906ZM481.969 301.281V319.703H494.016C497.328 319.703 499.906 318.922 501.75 317.359C503.625 315.766 504.562 313.578 504.562 310.797C504.562 304.547 501.328 301.375 494.859 301.281H481.969ZM481.969 291.344H492.375C499.469 291.219 503.016 288.391 503.016 282.859C503.016 279.766 502.109 277.547 500.297 276.203C498.516 274.828 495.688 274.141 491.812 274.141H481.969V291.344ZM544.172 331H530.109V262.75H544.172V331ZM571.312 319.703H601.172V331H557.25V262.75H571.312V319.703ZM650.344 301.422H623.344V319.703H655.031V331H609.281V262.75H654.938V274.141H623.344V290.406H650.344V301.422ZM725.719 316.938H701.062L696.375 331H681.422L706.828 262.75H719.859L745.406 331H730.453L725.719 316.938ZM704.859 305.547H721.922L713.344 280L704.859 305.547ZM765.844 306.953V331H751.781V262.75H778.406C783.531 262.75 788.031 263.688 791.906 265.562C795.812 267.438 798.812 270.109 800.906 273.578C803 277.016 804.047 280.938 804.047 285.344C804.047 292.031 801.75 297.312 797.156 301.188C792.594 305.031 786.266 306.953 778.172 306.953H765.844ZM765.844 295.562H778.406C782.125 295.562 784.953 294.688 786.891 292.938C788.859 291.188 789.844 288.688 789.844 285.438C789.844 282.094 788.859 279.391 786.891 277.328C784.922 275.266 782.203 274.203 778.734 274.141H765.844V295.562ZM827.812 306.953V331H813.75V262.75H840.375C845.5 262.75 850 263.688 853.875 265.562C857.781 267.438 860.781 270.109 862.875 273.578C864.969 277.016 866.016 280.938 866.016 285.344C866.016 292.031 863.719 297.312 859.125 301.188C854.562 305.031 848.234 306.953 840.141 306.953H827.812ZM827.812 295.562H840.375C844.094 295.562 846.922 294.688 848.859 292.938C850.828 291.188 851.812 288.688 851.812 285.438C851.812 282.094 850.828 279.391 848.859 277.328C846.891 275.266 844.172 274.203 840.703 274.141H827.812V295.562ZM911.109 313.094C911.109 310.438 910.172 308.406 908.297 307C906.422 305.562 903.047 304.062 898.172 302.5C893.297 300.906 889.438 299.344 886.594 297.812C878.844 293.625 874.969 287.984 874.969 280.891C874.969 277.203 876 273.922 878.062 271.047C880.156 268.141 883.141 265.875 887.016 264.25C890.922 262.625 895.297 261.812 900.141 261.812C905.016 261.812 909.359 262.703 913.172 264.484C916.984 266.234 919.938 268.719 922.031 271.938C924.156 275.156 925.219 278.812 925.219 282.906H911.156C911.156 279.781 910.172 277.359 908.203 275.641C906.234 273.891 903.469 273.016 899.906 273.016C896.469 273.016 893.797 273.75 891.891 275.219C889.984 276.656 889.031 278.562 889.031 280.938C889.031 283.156 890.141 285.016 892.359 286.516C894.609 288.016 897.906 289.422 902.25 290.734C910.25 293.141 916.078 296.125 919.734 299.688C923.391 303.25 925.219 307.688 925.219 313C925.219 318.906 922.984 323.547 918.516 326.922C914.047 330.266 908.031 331.938 900.469 331.938C895.219 331.938 890.438 330.984 886.125 329.078C881.812 327.141 878.516 324.5 876.234 321.156C873.984 317.812 872.859 313.938 872.859 309.531H886.969C886.969 317.062 891.469 320.828 900.469 320.828C903.812 320.828 906.422 320.156 908.297 318.812C910.172 317.438 911.109 315.531 911.109 313.094Z" fill="#777777"/>
<path d="M218.789 64.3906L216.84 64.8402L220.754 64.7624L218.789 64.3906ZM230.273 3.6875V1.6875H228.616L228.308 3.31572L230.273 3.6875ZM247.793 3.6875L249.746 4.12065L250.285 1.6875H247.793V3.6875ZM228.867 89V91H230.472L230.82 89.4332L228.867 89ZM211.172 89L209.229 89.4729L209.6 91H211.172V89ZM197.285 31.9297L199.228 31.4568H195.342L197.285 31.9297ZM183.398 89V91H184.97L185.342 89.4729L183.398 89ZM165.703 89L163.751 89.4332L164.098 91H165.703V89ZM146.777 3.6875V1.6875H144.285L144.825 4.12065L146.777 3.6875ZM164.297 3.6875L166.262 3.31319L165.952 1.6875H164.297V3.6875ZM175.84 64.2734L173.875 64.6477L177.788 64.7256L175.84 64.2734ZM189.902 3.6875V1.6875H188.313L187.954 3.2353L189.902 3.6875ZM204.785 3.6875L206.734 3.23792L206.376 1.6875H204.785V3.6875ZM220.754 64.7624L232.239 4.05928L228.308 3.31572L216.824 64.0188L220.754 64.7624ZM230.273 5.6875H247.793V1.6875H230.273V5.6875ZM245.84 3.25435L226.915 88.5668L230.82 89.4332L249.746 4.12065L245.84 3.25435ZM228.867 87H211.172V91H228.867V87ZM213.115 88.5271L199.228 31.4568L195.342 32.4025L209.229 89.4729L213.115 88.5271ZM195.342 31.4568L181.455 88.5271L185.342 89.4729L199.228 32.4025L195.342 31.4568ZM183.398 87H165.703V91H183.398V87ZM167.656 88.5668L148.73 3.25435L144.825 4.12065L163.751 89.4332L167.656 88.5668ZM146.777 5.6875H164.297V1.6875H146.777V5.6875ZM162.332 4.06181L173.875 64.6477L177.805 63.8991L166.262 3.31319L162.332 4.06181ZM177.788 64.7256L191.851 4.1397L187.954 3.2353L173.892 63.8212L177.788 64.7256ZM189.902 5.6875H204.785V1.6875H189.902V5.6875ZM202.836 4.13708L216.84 64.8402L220.738 63.941L206.734 3.23792L202.836 4.13708ZM308.672 52.0273V54.0273H310.672V52.0273H308.672ZM274.922 52.0273V50.0273H272.922V52.0273H274.922ZM274.922 74.8789H272.922V76.8789H274.922V74.8789ZM314.531 74.8789H316.531V72.8789H314.531V74.8789ZM314.531 89V91H316.531V89H314.531ZM257.344 89H255.344V91H257.344V89ZM257.344 3.6875V1.6875H255.344V3.6875H257.344ZM314.414 3.6875H316.414V1.6875H314.414V3.6875ZM314.414 17.9258V19.9258H316.414V17.9258H314.414ZM274.922 17.9258V15.9258H272.922V17.9258H274.922ZM274.922 38.2578H272.922V40.2578H274.922V38.2578ZM308.672 38.2578H310.672V36.2578H308.672V38.2578ZM308.672 50.0273H274.922V54.0273H308.672V50.0273ZM272.922 52.0273V74.8789H276.922V52.0273H272.922ZM274.922 76.8789H314.531V72.8789H274.922V76.8789ZM312.531 74.8789V89H316.531V74.8789H312.531ZM314.531 87H257.344V91H314.531V87ZM259.344 89V3.6875H255.344V89H259.344ZM257.344 5.6875H314.414V1.6875H257.344V5.6875ZM312.414 3.6875V17.9258H316.414V3.6875H312.414ZM314.414 15.9258H274.922V19.9258H314.414V15.9258ZM272.922 17.9258V38.2578H276.922V17.9258H272.922ZM274.922 40.2578H308.672V36.2578H274.922V40.2578ZM306.672 38.2578V52.0273H310.672V38.2578H306.672ZM421.699 60.582L423.694 60.7263L423.849 58.582H421.699V60.582ZM411.504 82.2617L410.2 80.7452L410.195 80.7494L411.504 82.2617ZM361.523 79.1562L359.997 80.4485L360.004 80.4572L361.523 79.1562ZM356.484 21.9102L354.669 21.0706L356.484 21.9102ZM368.848 7.55469L369.902 9.25416L369.905 9.25206L368.848 7.55469ZM421.816 32.6328V34.6328H424.023L423.807 32.437L421.816 32.6328ZM404.238 32.6328L402.244 32.7884L402.388 34.6328H404.238V32.6328ZM399.609 20.6797L398.228 22.1259L398.239 22.1364L398.25 22.1468L399.609 20.6797ZM374.414 23.2578L372.771 22.117L372.769 22.1202L374.414 23.2578ZM369.961 42.7695L367.961 42.7518L367.961 42.7607V42.7695H369.961ZM374.121 69.4297L372.445 70.5213L372.452 70.532L374.121 69.4297ZM399.492 72.125L400.851 73.5921L400.852 73.5913L399.492 72.125ZM404.121 60.582V58.582H402.266L402.127 60.4321L404.121 60.582ZM419.704 60.4377C419.073 69.1661 415.872 75.8679 410.2 80.7453L412.808 83.7782C419.401 78.1087 422.997 70.3574 423.694 60.7263L419.704 60.4377ZM410.195 80.7494C404.546 85.6377 397.003 88.1719 387.363 88.1719V92.1719C397.724 92.1719 406.274 89.4326 412.813 83.7741L410.195 80.7494ZM387.363 88.1719C376.924 88.1719 368.899 84.6942 363.043 77.8553L360.004 80.4572C366.726 88.3058 375.927 92.1719 387.363 92.1719V88.1719ZM363.05 77.864C357.194 70.9464 354.148 61.34 354.148 48.8047H350.148C350.148 61.9725 353.353 72.6005 359.997 80.4485L363.05 77.864ZM354.148 48.8047V43.5898H350.148V48.8047H354.148ZM354.148 43.5898C354.148 35.6219 355.552 28.691 358.3 22.7497L354.669 21.0706C351.636 27.6293 350.148 35.1515 350.148 43.5898H354.148ZM358.3 22.7497C361.042 16.82 364.914 12.3492 369.902 9.25416L367.793 5.85522C362.079 9.40082 357.708 14.5003 354.669 21.0706L358.3 22.7497ZM369.905 9.25206C374.942 6.11343 380.816 4.51562 387.598 4.51562V0.515625C380.16 0.515625 373.535 2.2772 367.79 5.85731L369.905 9.25206ZM387.598 4.51562C397.073 4.51562 404.496 7.04525 410.068 11.9297L412.705 8.92184C406.246 3.25944 397.81 0.515625 387.598 0.515625V4.51562ZM410.068 11.9297C415.629 16.8043 418.928 23.6972 419.826 32.8286L423.807 32.437C422.83 22.5059 419.176 14.5942 412.705 8.92184L410.068 11.9297ZM421.816 30.6328H404.238V34.6328H421.816V30.6328ZM406.232 32.4773C405.783 26.7237 404.147 22.1568 400.969 19.2126L398.25 22.1468C400.385 24.1244 401.834 27.5263 402.244 32.7884L406.232 32.4773ZM400.991 19.2335C397.854 16.2374 393.255 14.9297 387.598 14.9297V18.9297C392.722 18.9297 396.13 20.1219 398.228 22.1259L400.991 19.2335ZM387.598 14.9297C381.19 14.9297 376.132 17.2779 372.771 22.117L376.057 24.3986C378.556 20.8003 382.287 18.9297 387.598 18.9297V14.9297ZM372.769 22.1202C369.537 26.793 368.04 33.7843 367.961 42.7518L371.961 42.7872C372.038 34.0985 373.509 28.082 376.059 24.3954L372.769 22.1202ZM367.961 42.7695V49.2148H371.961V42.7695H367.961ZM367.961 49.2148C367.961 58.5487 369.349 65.768 372.445 70.5213L375.797 68.3381C373.346 64.5758 371.961 58.3185 371.961 49.2148H367.961ZM372.452 70.532C375.706 75.4572 380.815 77.8164 387.363 77.8164V73.8164C381.88 73.8164 378.162 71.9178 375.79 68.3274L372.452 70.532ZM387.363 77.8164C393.051 77.8164 397.678 76.5325 400.851 73.5921L398.133 70.6579C395.994 72.6394 392.535 73.8164 387.363 73.8164V77.8164ZM400.852 73.5913C404.047 70.628 405.703 66.2207 406.115 60.732L402.127 60.4321C401.758 65.334 400.328 68.622 398.132 70.6587L400.852 73.5913ZM404.121 62.582H421.699V58.582H404.121V62.582ZM464.824 57.7695L466.604 56.8578L466.047 55.7695H464.824V57.7695ZM450.82 57.7695V55.7695H448.82V57.7695H450.82ZM450.82 89V91H452.82V89H450.82ZM433.242 89H431.242V91H433.242V89ZM433.242 3.6875V1.6875H431.242V3.6875H433.242ZM492.656 44.0586L490.979 42.9686L490.977 42.9728L492.656 44.0586ZM481.23 53.3164L480.409 51.4928L478.465 52.3682L479.463 54.2522L481.23 53.3164ZM499.688 88.1797H501.688V87.6829L501.455 87.2439L499.688 88.1797ZM499.688 89V91H501.688V89H499.688ZM480.82 89L479.04 89.9118L479.598 91H480.82V89ZM450.82 43.5312H448.82V45.5312H450.82V43.5312ZM475.254 40.1914L476.608 41.6637L476.614 41.6579L476.62 41.6519L475.254 40.1914ZM475.43 21.3828L474.003 22.7849L474.009 22.791L474.015 22.797L475.43 21.3828ZM450.82 17.9258V15.9258H448.82V17.9258H450.82ZM464.824 55.7695H450.82V59.7695H464.824V55.7695ZM448.82 57.7695V89H452.82V57.7695H448.82ZM450.82 87H433.242V91H450.82V87ZM435.242 89V3.6875H431.242V89H435.242ZM433.242 5.6875H464.941V1.6875H433.242V5.6875ZM464.941 5.6875C474.749 5.6875 482.006 7.87551 486.992 11.9712L489.531 8.88033C483.58 3.99168 475.29 1.6875 464.941 1.6875V5.6875ZM486.992 11.9712C491.922 16.0208 494.465 21.7577 494.465 29.4688H498.465C498.465 20.7736 495.539 13.8152 489.531 8.88033L486.992 11.9712ZM494.465 29.4688C494.465 34.9985 493.261 39.4591 490.979 42.9686L494.333 45.1486C497.13 40.8456 498.465 35.5796 498.465 29.4688H494.465ZM490.977 42.9728C488.727 46.452 485.253 49.3115 480.409 51.4928L482.052 55.14C487.443 52.712 491.585 49.3996 494.336 45.1444L490.977 42.9728ZM479.463 54.2522L497.92 89.1155L501.455 87.2439L482.998 52.3806L479.463 54.2522ZM497.688 88.1797V89H501.688V88.1797H497.688ZM499.688 87H480.82V91H499.688V87ZM482.6 88.0882L466.604 56.8578L463.044 58.6813L479.04 89.9118L482.6 88.0882ZM450.82 45.5312H465V41.5312H450.82V45.5312ZM465 45.5312C469.741 45.5312 473.706 44.3316 476.608 41.6637L473.9 38.7191C471.958 40.5043 469.087 41.5312 465 41.5312V45.5312ZM476.62 41.6519C479.523 38.9368 480.887 35.26 480.887 30.875H476.887C476.887 34.3806 475.829 36.9147 473.888 38.7309L476.62 41.6519ZM480.887 30.875C480.887 26.453 479.608 22.7323 476.844 19.9686L474.015 22.797C475.861 24.6427 476.887 27.2501 476.887 30.875H480.887ZM476.856 19.9807C474.07 17.1469 469.956 15.9258 464.941 15.9258V19.9258C469.38 19.9258 472.258 21.0094 474.003 22.7849L476.856 19.9807ZM464.941 15.9258H450.82V19.9258H464.941V15.9258ZM448.82 17.9258V43.5312H452.82V17.9258H448.82ZM561.211 52.0273V54.0273H563.211V52.0273H561.211ZM527.461 52.0273V50.0273H525.461V52.0273H527.461ZM527.461 74.8789H525.461V76.8789H527.461V74.8789ZM567.07 74.8789H569.07V72.8789H567.07V74.8789ZM567.07 89V91H569.07V89H567.07ZM509.883 89H507.883V91H509.883V89ZM509.883 3.6875V1.6875H507.883V3.6875H509.883ZM566.953 3.6875H568.953V1.6875H566.953V3.6875ZM566.953 17.9258V19.9258H568.953V17.9258H566.953ZM527.461 17.9258V15.9258H525.461V17.9258H527.461ZM527.461 38.2578H525.461V40.2578H527.461V38.2578ZM561.211 38.2578H563.211V36.2578H561.211V38.2578ZM561.211 50.0273H527.461V54.0273H561.211V50.0273ZM525.461 52.0273V74.8789H529.461V52.0273H525.461ZM527.461 76.8789H567.07V72.8789H527.461V76.8789ZM565.07 74.8789V89H569.07V74.8789H565.07ZM567.07 87H509.883V91H567.07V87ZM511.883 89V3.6875H507.883V89H511.883ZM509.883 5.6875H566.953V1.6875H509.883V5.6875ZM564.953 3.6875V17.9258H568.953V3.6875H564.953ZM566.953 15.9258H527.461V19.9258H566.953V15.9258ZM525.461 17.9258V38.2578H529.461V17.9258H525.461ZM527.461 40.2578H561.211V36.2578H527.461V40.2578ZM559.211 38.2578V52.0273H563.211V38.2578H559.211ZM625.547 71.4219L627.442 70.7837L626.984 69.4219H625.547V71.4219ZM594.727 71.4219V69.4219H593.285L592.829 70.7894L594.727 71.4219ZM588.867 89V91H590.309L590.765 89.6325L588.867 89ZM570.176 89L568.301 88.3023L567.297 91H570.176V89ZM601.934 3.6875V1.6875H600.544L600.059 2.98977L601.934 3.6875ZM618.223 3.6875L620.096 2.98638L619.61 1.6875H618.223V3.6875ZM650.156 89V91H653.04L652.029 88.2989L650.156 89ZM631.465 89L629.569 89.6381L630.028 91H631.465V89ZM599.473 57.1836L597.575 56.5532L596.701 59.1836H599.473V57.1836ZM620.801 57.1836V59.1836H623.582L622.697 56.547L620.801 57.1836ZM610.078 25.25L611.974 24.6134L610.068 18.9359L608.18 24.6196L610.078 25.25ZM625.547 69.4219H594.727V73.4219H625.547V69.4219ZM592.829 70.7894L586.97 88.3675L590.765 89.6325L596.624 72.0543L592.829 70.7894ZM588.867 87H570.176V91H588.867V87ZM572.05 89.6977L603.808 4.38523L600.059 2.98977L568.301 88.3023L572.05 89.6977ZM601.934 5.6875H618.223V1.6875H601.934V5.6875ZM616.35 4.38862L648.283 89.7011L652.029 88.2989L620.096 2.98638L616.35 4.38862ZM650.156 87H631.465V91H650.156V87ZM633.36 88.3619L627.442 70.7837L623.651 72.06L629.569 89.6381L633.36 88.3619ZM599.473 59.1836H620.801V55.1836H599.473V59.1836ZM622.697 56.547L611.974 24.6134L608.182 25.8866L618.905 57.8202L622.697 56.547ZM608.18 24.6196L597.575 56.5532L601.371 57.814L611.976 25.8804L608.18 24.6196ZM715.312 17.9258V19.9258H717.312V17.9258H715.312ZM689.18 17.9258V15.9258H687.18V17.9258H689.18ZM689.18 89V91H691.18V89H689.18ZM671.602 89H669.602V91H671.602V89ZM671.602 17.9258H673.602V15.9258H671.602V17.9258ZM645.82 17.9258H643.82V19.9258H645.82V17.9258ZM645.82 3.6875V1.6875H643.82V3.6875H645.82ZM715.312 3.6875H717.312V1.6875H715.312V3.6875ZM715.312 15.9258H689.18V19.9258H715.312V15.9258ZM687.18 17.9258V89H691.18V17.9258H687.18ZM689.18 87H671.602V91H689.18V87ZM673.602 89V17.9258H669.602V89H673.602ZM671.602 15.9258H645.82V19.9258H671.602V15.9258ZM647.82 17.9258V3.6875H643.82V17.9258H647.82ZM645.82 5.6875H715.312V1.6875H645.82V5.6875ZM713.312 3.6875V17.9258H717.312V3.6875H713.312ZM776.719 52.0273V54.0273H778.719V52.0273H776.719ZM742.969 52.0273V50.0273H740.969V52.0273H742.969ZM742.969 74.8789H740.969V76.8789H742.969V74.8789ZM782.578 74.8789H784.578V72.8789H782.578V74.8789ZM782.578 89V91H784.578V89H782.578ZM725.391 89H723.391V91H725.391V89ZM725.391 3.6875V1.6875H723.391V3.6875H725.391ZM782.461 3.6875H784.461V1.6875H782.461V3.6875ZM782.461 17.9258V19.9258H784.461V17.9258H782.461ZM742.969 17.9258V15.9258H740.969V17.9258H742.969ZM742.969 38.2578H740.969V40.2578H742.969V38.2578ZM776.719 38.2578H778.719V36.2578H776.719V38.2578ZM776.719 50.0273H742.969V54.0273H776.719V50.0273ZM740.969 52.0273V74.8789H744.969V52.0273H740.969ZM742.969 76.8789H782.578V72.8789H742.969V76.8789ZM780.578 74.8789V89H784.578V74.8789H780.578ZM782.578 87H725.391V91H782.578V87ZM727.391 89V3.6875H723.391V89H727.391ZM725.391 5.6875H782.461V1.6875H725.391V5.6875ZM780.461 3.6875V17.9258H784.461V3.6875H780.461ZM782.461 15.9258H742.969V19.9258H782.461V15.9258ZM740.969 17.9258V38.2578H744.969V17.9258H740.969ZM742.969 40.2578H776.719V36.2578H742.969V40.2578ZM774.719 38.2578V52.0273H778.719V38.2578H774.719ZM250.21 201.887L252.105 201.249L251.647 199.887H250.21V201.887ZM221.958 201.887V199.887H220.516L220.061 201.254L221.958 201.887ZM216.587 218V220H218.028L218.484 218.632L216.587 218ZM199.453 218L197.579 217.302L196.575 220H199.453V218ZM228.564 139.797V137.797H227.175L226.69 139.099L228.564 139.797ZM243.496 139.797L245.369 139.096L244.883 137.797H243.496V139.797ZM272.769 218V220H275.653L274.642 217.299L272.769 218ZM255.635 218L253.739 218.638L254.198 220H255.635V218ZM226.309 188.835L224.411 188.205L223.537 190.835H226.309V188.835ZM245.859 188.835V190.835H248.641L247.755 188.198L245.859 188.835ZM236.03 159.562L237.926 158.926L236.02 153.248L234.132 158.932L236.03 159.562ZM250.21 199.887H221.958V203.887H250.21V199.887ZM220.061 201.254L214.69 217.368L218.484 218.632L223.855 202.519L220.061 201.254ZM216.587 216H199.453V220H216.587V216ZM201.327 218.698L230.439 140.495L226.69 139.099L197.579 217.302L201.327 218.698ZM228.564 141.797H243.496V137.797H228.564V141.797ZM241.623 140.498L270.895 218.701L274.642 217.299L245.369 139.096L241.623 140.498ZM272.769 216H255.635V220H272.769V216ZM257.53 217.362L252.105 201.249L248.314 202.525L253.739 218.638L257.53 217.362ZM226.309 190.835H245.859V186.835H226.309V190.835ZM247.755 188.198L237.926 158.926L234.134 160.199L243.963 189.472L247.755 188.198ZM234.132 158.932L224.411 188.205L228.207 189.465L237.928 160.193L234.132 158.932ZM338.833 195.441L336.884 195.891L340.798 195.813L338.833 195.441ZM349.36 139.797V137.797H347.703L347.395 139.425L349.36 139.797ZM365.42 139.797L367.372 140.23L367.912 137.797H365.42V139.797ZM348.071 218V220H349.676L350.024 218.433L348.071 218ZM331.851 218L329.907 218.473L330.279 220H331.851V218ZM319.121 165.686L321.064 165.213H317.178L319.121 165.686ZM306.392 218V220H307.963L308.335 218.473L306.392 218ZM290.171 218L288.218 218.433L288.566 220H290.171V218ZM272.822 139.797V137.797H270.33L270.87 140.23L272.822 139.797ZM288.882 139.797L290.846 139.423L290.537 137.797H288.882V139.797ZM299.463 195.334L297.498 195.708L301.411 195.786L299.463 195.334ZM312.354 139.797V137.797H310.765L310.405 139.345L312.354 139.797ZM325.996 139.797L327.945 139.347L327.587 137.797H325.996V139.797ZM340.798 195.813L351.325 140.169L347.395 139.425L336.868 195.07L340.798 195.813ZM349.36 141.797H365.42V137.797H349.36V141.797ZM363.467 139.364L346.119 217.567L350.024 218.433L367.372 140.23L363.467 139.364ZM348.071 216H331.851V220H348.071V216ZM333.794 217.527L321.064 165.213L317.178 166.158L329.907 218.473L333.794 217.527ZM317.178 165.213L304.448 217.527L308.335 218.473L321.064 166.158L317.178 165.213ZM306.392 216H290.171V220H306.392V216ZM292.123 217.567L274.775 139.364L270.87 140.23L288.218 218.433L292.123 217.567ZM272.822 141.797H288.882V137.797H272.822V141.797ZM286.917 140.171L297.498 195.708L301.428 194.96L290.846 139.423L286.917 140.171ZM301.411 195.786L314.302 140.249L310.405 139.345L297.515 194.882L301.411 195.786ZM312.354 141.797H325.996V137.797H312.354V141.797ZM324.047 140.246L336.884 195.891L340.782 194.992L327.945 139.347L324.047 140.246ZM421.226 184.108V186.108H423.226V184.108H421.226ZM390.288 184.108V182.108H388.288V184.108H390.288ZM390.288 205.056H388.288V207.056H390.288V205.056ZM426.597 205.056H428.597V203.056H426.597V205.056ZM426.597 218V220H428.597V218H426.597ZM374.175 218H372.175V220H374.175V218ZM374.175 139.797V137.797H372.175V139.797H374.175ZM426.489 139.797H428.489V137.797H426.489V139.797ZM426.489 152.849V154.849H428.489V152.849H426.489ZM390.288 152.849V150.849H388.288V152.849H390.288ZM390.288 171.486H388.288V173.486H390.288V171.486ZM421.226 171.486H423.226V169.486H421.226V171.486ZM421.226 182.108H390.288V186.108H421.226V182.108ZM388.288 184.108V205.056H392.288V184.108H388.288ZM390.288 207.056H426.597V203.056H390.288V207.056ZM424.597 205.056V218H428.597V205.056H424.597ZM426.597 216H374.175V220H426.597V216ZM376.175 218V139.797H372.175V218H376.175ZM374.175 141.797H426.489V137.797H374.175V141.797ZM424.489 139.797V152.849H428.489V139.797H424.489ZM426.489 150.849H390.288V154.849H426.489V150.849ZM388.288 152.849V171.486H392.288V152.849H388.288ZM390.288 173.486H421.226V169.486H390.288V173.486ZM419.226 171.486V184.108H423.226V171.486H419.226ZM473.379 190.5L472.162 192.087L472.17 192.094L472.179 192.1L473.379 190.5ZM461.777 185.344L461.156 187.245L461.167 187.248L461.777 185.344ZM448.511 179.973L447.56 181.732L447.563 181.734L448.511 179.973ZM438.735 149.304L437.113 148.135L437.11 148.138L438.735 149.304ZM448.994 141.516L448.226 139.669L448.221 139.671L448.994 141.516ZM478.965 141.784L478.118 143.596L478.131 143.602L478.965 141.784ZM489.116 150.324L487.44 151.415L487.447 151.426L489.116 150.324ZM492.769 162.893V164.893H494.769V162.893H492.769ZM476.655 162.893H474.655V164.893H476.655V162.893ZM473.271 154.567L471.943 156.062L471.949 156.068L471.956 156.074L473.271 154.567ZM454.58 154.084L455.784 155.681L455.793 155.675L455.801 155.668L454.58 154.084ZM455.117 167.028L453.997 168.685L454.008 168.692L455.117 167.028ZM466.45 171.862L465.872 173.777L465.874 173.778L466.45 171.862ZM485.088 213.327L486.286 214.929L486.293 214.923L485.088 213.327ZM447.974 215.798L447.154 217.622L447.165 217.627L447.974 215.798ZM436.641 206.721L434.981 207.837L434.988 207.848L436.641 206.721ZM432.773 193.4V191.4H430.773V193.4H432.773ZM448.94 193.4H450.94V191.4H448.94V193.4ZM473.379 204.035L474.544 205.661L474.553 205.654L474.562 205.648L473.379 204.035ZM478.602 197.482C478.602 193.905 477.303 190.943 474.579 188.9L472.179 192.1C473.752 193.279 474.602 194.972 474.602 197.482H478.602ZM474.596 188.913C472.153 187.04 467.998 185.237 462.388 183.439L461.167 187.248C466.729 189.031 470.308 190.666 472.162 192.087L474.596 188.913ZM462.399 183.443C456.868 181.635 452.571 179.887 449.459 178.212L447.563 181.734C450.968 183.567 455.515 185.4 461.156 187.245L462.399 183.443ZM449.461 178.213C441.043 173.664 437.19 167.788 437.19 160.583H433.19C433.19 169.635 438.218 176.685 447.56 181.732L449.461 178.213ZM437.19 160.583C437.19 156.757 438.252 153.409 440.36 150.47L437.11 148.138C434.492 151.787 433.19 155.958 433.19 160.583H437.19ZM440.358 150.473C442.507 147.49 445.608 145.104 449.768 143.36L448.221 139.671C443.5 141.651 439.762 144.457 437.113 148.135L440.358 150.473ZM449.762 143.362C453.962 141.615 458.709 140.723 464.033 140.723V136.723C458.257 136.723 452.978 137.692 448.226 139.669L449.762 143.362ZM464.033 140.723C469.373 140.723 474.054 141.697 478.118 143.596L479.811 139.972C475.139 137.789 469.866 136.723 464.033 136.723V140.723ZM478.131 143.602C482.188 145.464 485.266 148.073 487.44 151.415L490.793 149.234C488.168 145.199 484.479 142.114 479.799 139.967L478.131 143.602ZM487.447 151.426C489.653 154.767 490.769 158.568 490.769 162.893H494.769C494.769 157.835 493.45 153.258 490.785 149.222L487.447 151.426ZM492.769 160.893H476.655V164.893H492.769V160.893ZM478.655 162.893C478.655 158.858 477.363 155.484 474.587 153.061L471.956 156.074C473.692 157.589 474.655 159.766 474.655 162.893H478.655ZM474.6 153.073C471.866 150.642 468.162 149.56 463.765 149.56V153.56C467.531 153.56 470.165 154.482 471.943 156.062L474.6 153.073ZM463.765 149.56C459.568 149.56 456.016 150.453 453.359 152.5L455.801 155.668C457.513 154.349 460.084 153.56 463.765 153.56V149.56ZM453.376 152.487C450.694 154.51 449.304 157.284 449.304 160.637H453.304C453.304 158.547 454.098 156.952 455.784 155.681L453.376 152.487ZM449.304 160.637C449.304 163.986 451.035 166.683 453.997 168.685L456.237 165.371C454.115 163.937 453.304 162.372 453.304 160.637H449.304ZM454.008 168.692C456.823 170.569 460.815 172.249 465.872 173.777L467.029 169.948C462.131 168.468 458.567 166.925 456.227 165.364L454.008 168.692ZM465.874 173.778C474.907 176.494 481.232 179.795 485.089 183.554L487.88 180.689C483.358 176.283 476.327 172.745 467.026 169.947L465.874 173.778ZM485.089 183.554C488.874 187.242 490.769 191.803 490.769 197.375H494.769C494.769 190.773 492.473 185.164 487.88 180.689L485.089 183.554ZM490.769 197.375C490.769 203.555 488.471 208.265 483.883 211.731L486.293 214.923C491.945 210.654 494.769 204.73 494.769 197.375H490.769ZM483.89 211.726C479.219 215.22 472.794 217.074 464.409 217.074V221.074C473.355 221.074 480.716 219.097 486.286 214.928L483.89 211.726ZM464.409 217.074C458.64 217.074 453.441 216.028 448.782 213.969L447.165 217.627C452.389 219.936 458.147 221.074 464.409 221.074V217.074ZM448.793 213.974C444.131 211.879 440.666 209.072 438.293 205.594L434.988 207.848C437.843 212.032 441.933 215.277 447.154 217.622L448.793 213.974ZM438.3 205.604C435.965 202.134 434.773 198.09 434.773 193.4H430.773C430.773 198.808 432.16 203.645 434.981 207.837L438.3 205.604ZM432.773 195.4H448.94V191.4H432.773V195.4ZM446.94 193.4C446.94 198.126 448.369 202.002 451.524 204.642C454.611 207.225 459.023 208.345 464.409 208.345V204.345C459.483 204.345 456.161 203.307 454.091 201.575C452.09 199.9 450.94 197.304 450.94 193.4H446.94ZM464.409 208.345C468.478 208.345 471.934 207.531 474.544 205.661L472.214 202.41C470.527 203.619 468.003 204.345 464.409 204.345V208.345ZM474.562 205.648C477.252 203.675 478.602 200.876 478.602 197.482H474.602C474.602 199.674 473.802 201.244 472.196 202.422L474.562 205.648ZM552.173 214.348L551.119 212.648L551.114 212.651L552.173 214.348ZM505.605 201.081L503.803 201.949L503.806 201.953L505.605 201.081ZM501.362 181.101L499.362 181.101L499.362 181.11L501.362 181.101ZM505.498 156.931L503.692 156.072L503.69 156.076L505.498 156.931ZM517.261 143.449L518.311 145.151L518.314 145.149L517.261 143.449ZM552.012 143.449L550.953 145.146L550.96 145.15L550.967 145.155L552.012 143.449ZM563.774 156.931L561.964 157.781L561.967 157.787L561.97 157.794L563.774 156.931ZM522.148 158.381L523.786 159.529L523.791 159.522L522.148 158.381ZM517.69 176.857L515.69 176.849V176.857H517.69ZM522.095 199.255L523.759 198.145L522.095 199.255ZM547.231 199.523L548.88 200.655L548.885 200.649L547.231 199.523ZM551.636 180.939L553.636 180.948V180.939H551.636ZM565.964 180.671C565.964 188.134 564.645 194.584 562.071 200.07L565.692 201.769C568.561 195.655 569.964 188.605 569.964 180.671H565.964ZM562.071 200.07C559.502 205.546 555.851 209.715 551.119 212.648L553.226 216.048C558.664 212.678 562.819 207.895 565.692 201.769L562.071 200.07ZM551.114 212.651C546.414 215.584 540.988 217.074 534.771 217.074V221.074C541.659 221.074 547.834 219.413 553.232 216.044L551.114 212.651ZM534.771 217.074C528.625 217.074 523.21 215.602 518.467 212.696L516.377 216.107C521.803 219.431 527.954 221.074 534.771 221.074V217.074ZM518.467 212.696C513.733 209.796 510.044 205.656 507.405 200.209L503.806 201.953C506.752 208.036 510.942 212.777 516.377 216.107L518.467 212.696ZM507.407 200.213C504.763 194.722 503.397 188.363 503.362 181.091L499.362 181.11C499.399 188.877 500.862 195.839 503.803 201.949L507.407 200.213ZM503.362 181.101V177.233H499.362V181.101H503.362ZM503.362 177.233C503.362 169.774 504.697 163.308 507.306 157.785L503.69 156.076C500.784 162.227 499.362 169.296 499.362 177.233H503.362ZM507.304 157.79C509.948 152.23 513.621 148.045 518.311 145.151L516.211 141.747C510.802 145.084 506.634 149.886 503.692 156.072L507.304 157.79ZM518.314 145.149C523.054 142.212 528.484 140.723 534.663 140.723V136.723C527.808 136.723 521.636 138.385 516.207 141.749L518.314 145.149ZM534.663 140.723C540.842 140.723 546.251 142.212 550.953 145.146L553.071 141.753C547.674 138.385 541.518 136.723 534.663 136.723V140.723ZM550.967 145.155C555.689 148.048 559.358 152.23 561.964 157.781L565.585 156.081C562.677 149.887 558.504 145.081 553.057 141.744L550.967 145.155ZM561.97 157.794C564.613 163.316 565.964 169.761 565.964 177.18H569.964C569.964 169.273 568.522 162.219 565.578 156.067L561.97 157.794ZM565.964 177.18V180.671H569.964V177.18H565.964ZM553.636 177.126C553.636 168.739 552.143 162.038 548.878 157.3L545.585 159.569C548.192 163.353 549.636 169.113 549.636 177.126H553.636ZM548.878 157.3C545.546 152.465 540.723 150.043 534.663 150.043V154.043C539.488 154.043 543.044 155.882 545.585 159.569L548.878 157.3ZM534.663 150.043C528.641 150.043 523.838 152.445 520.506 157.24L523.791 159.522C526.331 155.866 529.872 154.043 534.663 154.043V150.043ZM520.511 157.233C517.239 161.9 515.727 168.534 515.69 176.849L519.69 176.866C519.725 168.925 521.185 163.24 523.786 159.529L520.511 157.233ZM515.69 176.857V180.671H519.69V176.857H515.69ZM515.69 180.671C515.69 188.863 517.19 195.504 520.431 200.364L523.759 198.145C521.127 194.197 519.69 188.449 519.69 180.671H515.69ZM520.431 200.364C523.756 205.352 528.621 207.861 534.771 207.861V203.861C529.891 203.861 526.306 201.966 523.759 198.145L520.431 200.364ZM534.771 207.861C540.793 207.861 545.583 205.459 548.88 200.655L545.583 198.392C543.079 202.039 539.561 203.861 534.771 203.861V207.861ZM548.885 200.649C552.104 195.919 553.599 189.263 553.636 180.948L549.636 180.931C549.601 188.872 548.159 194.606 545.578 198.398L548.885 200.649ZM553.636 180.939V177.126H549.636V180.939H553.636ZM600.728 139.797L602.613 139.129L602.141 137.797H600.728V139.797ZM620.815 196.516L618.93 197.183L620.82 202.521L622.702 197.18L620.815 196.516ZM640.796 139.797V137.797H639.38L638.91 139.132L640.796 139.797ZM661.958 139.797H663.958V137.797H661.958V139.797ZM661.958 218V220H663.958V218H661.958ZM645.791 218H643.791V220H645.791V218ZM645.791 196.623L643.793 196.536L643.791 196.579V196.623H645.791ZM647.402 159.724L649.4 159.811L645.522 159.043L647.402 159.724ZM626.294 218V220H627.697L628.174 218.681L626.294 218ZM615.229 218L613.349 218.68L613.826 220H615.229V218ZM594.175 159.777L596.056 159.097L592.177 159.865L594.175 159.777ZM595.786 196.623H597.786V196.579L597.784 196.536L595.786 196.623ZM595.786 218V220H597.786V218H595.786ZM579.673 218H577.673V220H579.673V218ZM579.673 139.797V137.797H577.673V139.797H579.673ZM598.842 140.465L618.93 197.183L622.701 195.848L602.613 139.129L598.842 140.465ZM622.702 197.18L642.682 140.461L638.91 139.132L618.929 195.851L622.702 197.18ZM640.796 141.797H661.958V137.797H640.796V141.797ZM659.958 139.797V218H663.958V139.797H659.958ZM661.958 216H645.791V220H661.958V216ZM647.791 218V196.623H643.791V218H647.791ZM647.789 196.71L649.4 159.811L645.404 159.636L643.793 196.536L647.789 196.71ZM645.522 159.043L624.413 217.319L628.174 218.681L649.283 160.405L645.522 159.043ZM626.294 216H615.229V220H626.294V216ZM617.11 217.32L596.056 159.097L592.294 160.457L613.349 218.68L617.11 217.32ZM592.177 159.865L593.788 196.71L597.784 196.536L596.173 159.69L592.177 159.865ZM593.786 196.623V218H597.786V196.623H593.786ZM595.786 216H579.673V220H595.786V216ZM581.673 218V139.797H577.673V218H581.673ZM579.673 141.797H600.728V137.797H579.673V141.797ZM723.081 184.108V186.108H725.081V184.108H723.081ZM692.144 184.108V182.108H690.144V184.108H692.144ZM692.144 205.056H690.144V207.056H692.144V205.056ZM728.452 205.056H730.452V203.056H728.452V205.056ZM728.452 218V220H730.452V218H728.452ZM676.03 218H674.03V220H676.03V218ZM676.03 139.797V137.797H674.03V139.797H676.03ZM728.345 139.797H730.345V137.797H728.345V139.797ZM728.345 152.849V154.849H730.345V152.849H728.345ZM692.144 152.849V150.849H690.144V152.849H692.144ZM692.144 171.486H690.144V173.486H692.144V171.486ZM723.081 171.486H725.081V169.486H723.081V171.486ZM723.081 182.108H692.144V186.108H723.081V182.108ZM690.144 184.108V205.056H694.144V184.108H690.144ZM692.144 207.056H728.452V203.056H692.144V207.056ZM726.452 205.056V218H730.452V205.056H726.452ZM728.452 216H676.03V220H728.452V216ZM678.03 218V139.797H674.03V218H678.03ZM676.03 141.797H728.345V137.797H676.03V141.797ZM726.345 139.797V152.849H730.345V139.797H726.345ZM728.345 150.849H692.144V154.849H728.345V150.849ZM690.144 152.849V171.486H694.144V152.849H690.144ZM692.144 173.486H723.081V169.486H692.144V173.486ZM721.081 171.486V184.108H725.081V171.486H721.081ZM60.5625 311.312L58.6137 311.762L62.5276 311.684L60.5625 311.312ZM69.75 262.75V260.75H68.0929L67.7849 262.378L69.75 262.75ZM83.7656 262.75L85.7182 263.183L86.2579 260.75H83.7656V262.75ZM68.625 331V333H70.2299L70.5775 331.433L68.625 331ZM54.4688 331L52.5255 331.473L52.897 333H54.4688V331ZM43.3594 285.344L45.3027 284.871H41.4161L43.3594 285.344ZM32.25 331V333H33.8217L34.1933 331.473L32.25 331ZM18.0938 331L16.1412 331.433L16.4888 333H18.0938V331ZM2.95312 262.75V260.75H0.460821L1.00059 263.183L2.95312 262.75ZM16.9688 262.75L18.9334 262.376L18.6237 260.75H16.9688V262.75ZM26.2031 311.219L24.2385 311.593L28.1513 311.671L26.2031 311.219ZM37.4531 262.75V260.75H35.8642L35.5049 262.298L37.4531 262.75ZM49.3594 262.75L51.3082 262.3L50.9505 260.75H49.3594V262.75ZM62.5276 311.684L71.7151 263.122L67.7849 262.378L58.5974 310.941L62.5276 311.684ZM69.75 264.75H83.7656V260.75H69.75V264.75ZM81.8131 262.317L66.6725 330.567L70.5775 331.433L85.7182 263.183L81.8131 262.317ZM68.625 329H54.4688V333H68.625V329ZM56.412 330.527L45.3027 284.871L41.4161 285.817L52.5255 331.473L56.412 330.527ZM41.4161 284.871L30.3067 330.527L34.1933 331.473L45.3027 285.817L41.4161 284.871ZM32.25 329H18.0938V333H32.25V329ZM20.0463 330.567L4.90566 262.317L1.00059 263.183L16.1412 331.433L20.0463 330.567ZM2.95312 264.75H16.9688V260.75H2.95312V264.75ZM15.0041 263.124L24.2385 311.593L28.1678 310.844L18.9334 262.376L15.0041 263.124ZM28.1513 311.671L39.4013 263.202L35.5049 262.298L24.2549 310.767L28.1513 311.671ZM37.4531 264.75H49.3594V260.75H37.4531V264.75ZM47.4106 263.2L58.6137 311.762L62.5113 310.863L51.3082 262.3L47.4106 263.2ZM132.469 301.422V303.422H134.469V301.422H132.469ZM105.469 301.422V299.422H103.469V301.422H105.469ZM105.469 319.703H103.469V321.703H105.469V319.703ZM137.156 319.703H139.156V317.703H137.156V319.703ZM137.156 331V333H139.156V331H137.156ZM91.4062 331H89.4062V333H91.4062V331ZM91.4062 262.75V260.75H89.4062V262.75H91.4062ZM137.062 262.75H139.062V260.75H137.062V262.75ZM137.062 274.141V276.141H139.062V274.141H137.062ZM105.469 274.141V272.141H103.469V274.141H105.469ZM105.469 290.406H103.469V292.406H105.469V290.406ZM132.469 290.406H134.469V288.406H132.469V290.406ZM132.469 299.422H105.469V303.422H132.469V299.422ZM103.469 301.422V319.703H107.469V301.422H103.469ZM105.469 321.703H137.156V317.703H105.469V321.703ZM135.156 319.703V331H139.156V319.703H135.156ZM137.156 329H91.4062V333H137.156V329ZM93.4062 331V262.75H89.4062V331H93.4062ZM91.4062 264.75H137.062V260.75H91.4062V264.75ZM135.062 262.75V274.141H139.062V262.75H135.062ZM137.062 272.141H105.469V276.141H137.062V272.141ZM103.469 274.141V290.406H107.469V274.141H103.469ZM105.469 292.406H132.469V288.406H105.469V292.406ZM130.469 290.406V301.422H134.469V290.406H130.469ZM145.406 331H143.406V333H145.406V331ZM145.406 262.75V260.75H143.406V262.75H145.406ZM188.156 267.531L186.962 269.135L186.969 269.141L188.156 267.531ZM192 290.312L193.655 291.436L193.661 291.427L192 290.312ZM184.828 295.891L184.105 294.026L178.232 296.303L184.343 297.831L184.828 295.891ZM193.078 301.188L191.48 302.391L191.485 302.396L191.489 302.402L193.078 301.188ZM171.938 331V333H171.946L171.954 333L171.938 331ZM159.469 301.281V299.281H157.469V301.281H159.469ZM159.469 319.703H157.469V321.703H159.469V319.703ZM179.25 317.359L180.543 318.885L180.545 318.883L179.25 317.359ZM172.359 301.281L172.388 299.281L172.374 299.281H172.359V301.281ZM159.469 291.344H157.469V293.344H159.469V291.344ZM169.875 291.344V293.344H169.893L169.91 293.343L169.875 291.344ZM177.797 276.203L176.575 277.786L176.59 277.798L176.606 277.81L177.797 276.203ZM159.469 274.141V272.141H157.469V274.141H159.469ZM147.406 331V262.75H143.406V331H147.406ZM145.406 264.75H169.312V260.75H145.406V264.75ZM169.312 264.75C177.386 264.75 183.169 266.312 186.962 269.135L189.351 265.927C184.581 262.376 177.802 260.75 169.312 260.75V264.75ZM186.969 269.141C190.657 271.86 192.578 275.853 192.578 281.453H196.578C196.578 274.803 194.218 269.515 189.343 265.921L186.969 269.141ZM192.578 281.453C192.578 284.435 191.818 286.993 190.339 289.198L193.661 291.427C195.619 288.507 196.578 285.159 196.578 281.453H192.578ZM190.345 289.189C188.872 291.359 186.818 292.974 184.105 294.026L185.551 297.755C188.963 296.432 191.691 294.328 193.655 291.436L190.345 289.189ZM184.343 297.831C187.439 298.605 189.78 300.132 191.48 302.391L194.676 299.984C192.376 296.93 189.217 294.926 185.313 293.95L184.343 297.831ZM191.489 302.402C193.215 304.659 194.125 307.464 194.125 310.938H198.125C198.125 306.723 197.004 303.028 194.667 299.973L191.489 302.402ZM194.125 310.938C194.125 317.042 192.201 321.375 188.589 324.287L191.099 327.401C195.861 323.563 198.125 317.958 198.125 310.938H194.125ZM188.589 324.287C184.878 327.277 179.414 328.94 171.921 329L171.954 333C179.961 332.935 186.434 331.16 191.099 327.401L188.589 324.287ZM171.938 329H145.406V333H171.938V329ZM157.469 301.281V319.703H161.469V301.281H157.469ZM159.469 321.703H171.516V317.703H159.469V321.703ZM171.516 321.703C175.126 321.703 178.224 320.851 180.543 318.885L177.957 315.834C176.589 316.993 174.53 317.703 171.516 317.703V321.703ZM180.545 318.883C182.929 316.857 184.062 314.079 184.062 310.797H180.062C180.062 313.077 179.321 314.674 177.955 315.835L180.545 318.883ZM184.062 310.797C184.062 307.343 183.165 304.389 181.037 302.303C178.922 300.228 175.916 299.333 172.388 299.281L172.33 303.281C175.271 303.324 177.117 304.061 178.236 305.158C179.343 306.244 180.062 308 180.062 310.797H184.062ZM172.359 299.281H159.469V303.281H172.359V299.281ZM159.469 293.344H169.875V289.344H159.469V293.344ZM169.91 293.343C173.665 293.277 176.838 292.498 179.102 290.693C181.456 288.816 182.516 286.086 182.516 282.859H178.516C178.516 285.164 177.802 286.614 176.609 287.565C175.326 288.588 173.179 289.285 169.84 289.344L169.91 293.343ZM182.516 282.859C182.516 279.385 181.483 276.446 178.988 274.597L176.606 277.81C177.736 278.647 178.516 280.146 178.516 282.859H182.516ZM179.019 274.62C176.713 272.84 173.342 272.141 169.312 272.141V276.141C173.033 276.141 175.318 276.816 176.575 277.786L179.019 274.62ZM169.312 272.141H159.469V276.141H169.312V272.141ZM157.469 274.141V291.344H161.469V274.141H157.469ZM230.484 303.859L228.817 302.754L228.813 302.761L228.808 302.768L230.484 303.859ZM240.234 294.906L241.376 296.548L243.075 295.367L241.837 293.709L240.234 294.906ZM235.453 287.266L233.65 288.132L233.655 288.141L235.453 287.266ZM238.734 266.828L240.142 268.249L240.142 268.249L238.734 266.828ZM264.844 266.359L263.48 267.822L263.487 267.828L264.844 266.359ZM261.516 292.094L262.688 293.714L262.705 293.702L262.721 293.689L261.516 292.094ZM256.266 295.891L255.094 294.27L253.331 295.545L254.749 297.194L256.266 295.891ZM268.031 309.578L266.515 310.882L268.461 313.146L269.814 310.485L268.031 309.578ZM270.797 297.578V295.578H268.797V297.578H270.797ZM282.328 297.578H284.328V295.578H282.328V297.578ZM276.188 319.141L274.583 317.946L273.626 319.232L274.672 320.446L276.188 319.141ZM286.406 331V333H290.77L287.921 329.694L286.406 331ZM271.031 331L269.524 332.315L270.122 333H271.031V331ZM267.516 326.969L269.023 325.654L267.875 324.338L266.416 325.298L267.516 326.969ZM233.953 326.641L232.634 328.144L232.641 328.15L233.953 326.641ZM260.062 318.344L261.121 320.041L263.104 318.804L261.576 317.036L260.062 318.344ZM246.609 302.781L248.122 301.473L246.93 300.094L245.447 301.154L246.609 302.781ZM245.625 303.484L244.463 301.857L244.392 301.907L244.326 301.963L245.625 303.484ZM244.031 318.531L242.617 319.945L242.63 319.958L242.643 319.971L244.031 318.531ZM249.984 288.438L248.401 289.66L249.538 291.132L251.089 290.105L249.984 288.438ZM253.594 286.047L252.511 284.365L252.5 284.372L252.489 284.379L253.594 286.047ZM257.391 282.578L255.705 281.501L255.694 281.518L255.684 281.535L257.391 282.578ZM247.594 274.609L246.144 273.232L246.135 273.242L246.126 273.251L247.594 274.609ZM229.859 312.625C229.859 309.863 230.618 307.319 232.16 304.951L228.808 302.768C226.851 305.775 225.859 309.075 225.859 312.625H229.859ZM232.151 304.964C233.724 302.592 236.728 299.78 241.376 296.548L239.093 293.264C234.303 296.595 230.807 299.752 228.817 302.754L232.151 304.964ZM241.837 293.709C239.861 291.064 238.34 288.625 237.251 286.39L233.655 288.141C234.879 290.656 236.546 293.311 238.632 296.103L241.837 293.709ZM237.256 286.399C236.226 284.255 235.719 282.051 235.719 279.766H231.719C231.719 282.668 232.368 285.463 233.65 288.132L237.256 286.399ZM235.719 279.766C235.719 274.912 237.227 271.136 240.142 268.249L237.327 265.407C233.554 269.145 231.719 273.994 231.719 279.766H235.719ZM240.142 268.249C243.07 265.348 247.057 263.812 252.328 263.812V259.812C246.225 259.812 241.148 261.621 237.327 265.407L240.142 268.249ZM252.328 263.812C256.995 263.812 260.654 265.187 263.48 267.822L266.208 264.897C262.533 261.47 257.849 259.812 252.328 259.812V263.812ZM263.487 267.828C266.351 270.475 267.766 273.721 267.766 277.703H271.766C271.766 272.623 269.899 268.306 266.201 264.89L263.487 267.828ZM267.766 277.703C267.766 282.349 265.457 286.608 260.31 290.498L262.721 293.689C268.574 289.267 271.766 283.932 271.766 277.703H267.766ZM260.344 290.473L255.094 294.27L257.438 297.511L262.688 293.714L260.344 290.473ZM254.749 297.194L266.515 310.882L269.548 308.274L257.782 294.587L254.749 297.194ZM269.814 310.485C271.811 306.558 272.797 302.244 272.797 297.578H268.797C268.797 301.662 267.939 305.348 266.249 308.671L269.814 310.485ZM270.797 299.578H282.328V295.578H270.797V299.578ZM280.328 297.578C280.328 306.15 278.353 312.881 274.583 317.946L277.792 320.335C282.209 314.4 284.328 306.756 284.328 297.578H280.328ZM274.672 320.446L284.891 332.306L287.921 329.694L277.703 317.835L274.672 320.446ZM286.406 329H271.031V333H286.406V329ZM272.539 329.685L269.023 325.654L266.008 328.283L269.524 332.315L272.539 329.685ZM266.416 325.298C261.739 328.378 256.347 329.938 250.172 329.938V333.938C257.06 333.938 263.23 332.185 268.615 328.639L266.416 325.298ZM250.172 329.938C243.777 329.938 238.878 328.272 235.265 325.131L232.641 328.15C237.153 332.072 243.066 333.938 250.172 333.938V329.938ZM235.272 325.137C231.675 321.983 229.859 317.876 229.859 312.625H225.859C225.859 318.937 228.106 324.173 232.634 328.144L235.272 325.137ZM250.828 323.062C254.473 323.062 257.915 322.04 261.121 320.041L259.004 316.647C256.397 318.272 253.683 319.062 250.828 319.062V323.062ZM261.576 317.036L248.122 301.473L245.096 304.089L258.549 319.652L261.576 317.036ZM245.447 301.154L244.463 301.857L246.787 305.112L247.772 304.409L245.447 301.154ZM244.326 301.963C241.168 304.661 239.453 307.988 239.453 311.875H243.453C243.453 309.325 244.52 307.058 246.924 305.005L244.326 301.963ZM239.453 311.875C239.453 315.055 240.477 317.806 242.617 319.945L245.445 317.117C244.148 315.819 243.453 314.132 243.453 311.875H239.453ZM242.643 319.971C244.82 322.07 247.61 323.062 250.828 323.062V319.062C248.484 319.062 246.743 318.367 245.42 317.092L242.643 319.971ZM243.859 279.578C243.859 282.618 245.594 286.023 248.401 289.66L251.568 287.215C248.875 283.727 247.859 281.226 247.859 279.578H243.859ZM251.089 290.105L254.698 287.714L252.489 284.379L248.88 286.77L251.089 290.105ZM254.677 287.728C256.627 286.472 258.181 285.119 259.097 283.621L255.684 281.535C255.225 282.287 254.248 283.246 252.511 284.365L254.677 287.728ZM259.076 283.655C260.033 282.157 260.469 280.425 260.469 278.547H256.469C256.469 279.794 256.186 280.749 255.705 281.501L259.076 283.655ZM260.469 278.547C260.469 276.427 259.66 274.566 258.149 273.055L255.32 275.883C256.121 276.684 256.469 277.542 256.469 278.547H260.469ZM258.149 273.055C256.575 271.481 254.561 270.734 252.281 270.734V274.734C253.626 274.734 254.581 275.144 255.32 275.883L258.149 273.055ZM252.281 270.734C249.87 270.734 247.757 271.533 246.144 273.232L249.044 275.987C249.805 275.185 250.817 274.734 252.281 274.734V270.734ZM246.126 273.251C244.558 274.946 243.859 277.124 243.859 279.578H247.859C247.859 277.907 248.317 276.773 249.062 275.967L246.126 273.251ZM335.906 262.75L337.792 262.082L337.32 260.75H335.906V262.75ZM353.438 312.25L351.552 312.918L353.443 318.255L355.324 312.915L353.438 312.25ZM370.875 262.75V260.75H369.459L368.989 262.085L370.875 262.75ZM389.344 262.75H391.344V260.75H389.344V262.75ZM389.344 331V333H391.344V331H389.344ZM375.234 331H373.234V333H375.234V331ZM375.234 312.344L373.236 312.256L373.234 312.3V312.344H375.234ZM376.641 280.141L378.639 280.228L374.76 279.46L376.641 280.141ZM358.219 331V333H359.621L360.099 331.681L358.219 331ZM348.562 331L346.682 331.68L347.159 333H348.562V331ZM330.188 280.188L332.068 279.507L328.189 280.275L330.188 280.188ZM331.594 312.344H333.594V312.3L333.592 312.256L331.594 312.344ZM331.594 331V333H333.594V331H331.594ZM317.531 331H315.531V333H317.531V331ZM317.531 262.75V260.75H315.531V262.75H317.531ZM334.021 263.418L351.552 312.918L355.323 311.582L337.792 262.082L334.021 263.418ZM355.324 312.915L372.761 263.415L368.989 262.085L351.551 311.585L355.324 312.915ZM370.875 264.75H389.344V260.75H370.875V264.75ZM387.344 262.75V331H391.344V262.75H387.344ZM389.344 329H375.234V333H389.344V329ZM377.234 331V312.344H373.234V331H377.234ZM377.232 312.431L378.639 280.228L374.643 280.053L373.236 312.256L377.232 312.431ZM374.76 279.46L356.338 330.319L360.099 331.681L378.521 280.822L374.76 279.46ZM358.219 329H348.562V333H358.219V329ZM350.443 330.32L332.068 279.507L328.307 280.868L346.682 331.68L350.443 330.32ZM328.189 280.275L329.596 312.431L333.592 312.256L332.186 280.1L328.189 280.275ZM329.594 312.344V331H333.594V312.344H329.594ZM331.594 329H317.531V333H331.594V329ZM319.531 331V262.75H315.531V331H319.531ZM317.531 264.75H335.906V260.75H317.531V264.75ZM443.906 327.812L442.853 326.112L442.847 326.116L443.906 327.812ZM403.266 316.234L401.464 317.102L401.466 317.106L403.266 316.234ZM399.562 298.797L397.562 298.797L397.563 298.806L399.562 298.797ZM403.172 277.703L401.366 276.844L401.363 276.849L403.172 277.703ZM413.438 265.938L414.488 267.64L414.491 267.638L413.438 265.938ZM443.766 265.938L442.707 267.634L442.714 267.639L442.721 267.643L443.766 265.938ZM454.031 277.703L452.221 278.553L452.224 278.56L452.227 278.566L454.031 277.703ZM417.703 278.969L419.341 280.117L419.346 280.11L417.703 278.969ZM413.812 295.094L411.812 295.085V295.094H413.812ZM439.594 314.875L441.243 316.007L441.247 316L439.594 314.875ZM443.438 298.656L445.438 298.665V298.656H443.438ZM455.688 298.422C455.688 304.905 454.542 310.496 452.314 315.244L455.936 316.943C458.458 311.567 459.688 305.376 459.688 298.422H455.688ZM452.314 315.244C450.092 319.982 446.937 323.581 442.853 326.112L444.96 329.513C449.75 326.544 453.408 322.33 455.936 316.943L452.314 315.244ZM442.847 326.116C438.79 328.648 434.102 329.938 428.719 329.938V333.938C434.773 333.938 440.21 332.477 444.965 329.509L442.847 326.116ZM428.719 329.938C423.398 329.938 418.719 328.663 414.623 326.154L412.533 329.565C417.312 332.493 422.727 333.938 428.719 333.938V329.938ZM414.623 326.154C410.536 323.65 407.349 320.076 405.066 315.362L401.466 317.106C404.057 322.455 407.745 326.631 412.533 329.565L414.623 326.154ZM405.068 315.367C402.779 310.613 401.593 305.102 401.562 298.787L397.563 298.806C397.595 305.616 398.877 311.73 401.464 317.102L405.068 315.367ZM401.562 298.797V295.422H397.562V298.797H401.562ZM401.562 295.422C401.562 288.942 402.722 283.337 404.98 278.557L401.363 276.849C398.809 282.256 397.562 288.464 397.562 295.422H401.562ZM404.978 278.562C407.267 273.75 410.441 270.137 414.488 267.64L412.387 264.235C407.622 267.176 403.952 271.406 401.366 276.844L404.978 278.562ZM414.491 267.638C418.584 265.101 423.275 263.812 428.625 263.812V259.812C422.6 259.812 417.166 261.274 412.384 264.237L414.491 267.638ZM428.625 263.812C433.975 263.812 438.648 265.101 442.707 267.634L444.825 264.241C440.071 261.274 434.65 259.812 428.625 259.812V263.812ZM442.721 267.643C446.796 270.139 449.965 273.749 452.221 278.553L455.842 276.853C453.285 271.407 449.611 267.173 444.81 264.232L442.721 267.643ZM452.227 278.566C454.514 283.345 455.688 288.932 455.688 295.375H459.688C459.688 288.443 458.423 282.248 455.835 276.84L452.227 278.566ZM455.688 295.375V298.422H459.688V295.375H455.688ZM445.438 295.328C445.438 287.985 444.132 282.077 441.241 277.881L437.947 280.15C440.181 283.392 441.438 288.359 441.438 295.328H445.438ZM441.241 277.881C438.282 273.588 433.992 271.438 428.625 271.438V275.438C432.758 275.438 435.78 277.006 437.947 280.15L441.241 277.881ZM428.625 271.438C423.291 271.438 419.019 273.57 416.061 277.827L419.346 280.11C421.512 276.992 424.522 275.438 428.625 275.438V271.438ZM416.065 277.821C413.168 281.955 411.845 287.805 411.813 295.085L415.812 295.103C415.843 288.195 417.113 283.295 419.341 280.117L416.065 277.821ZM411.812 295.094V298.422H415.812V295.094H411.812ZM411.812 298.422C411.812 305.598 413.126 311.45 415.992 315.75L419.32 313.531C417.062 310.144 415.812 305.184 415.812 298.422H411.812ZM415.992 315.75C418.944 320.177 423.271 322.406 428.719 322.406V318.406C424.542 318.406 421.494 316.791 419.32 313.531L415.992 315.75ZM428.719 322.406C434.054 322.406 438.315 320.272 441.243 316.007L437.945 313.743C435.81 316.853 432.821 318.406 428.719 318.406V322.406ZM441.247 316C444.098 311.813 445.405 305.946 445.437 298.665L441.438 298.647C441.407 305.554 440.152 310.5 437.94 313.75L441.247 316ZM445.438 298.656V295.328H441.438V298.656H445.438ZM467.906 331H465.906V333H467.906V331ZM467.906 262.75V260.75H465.906V262.75H467.906ZM510.656 267.531L509.462 269.135L509.469 269.141L510.656 267.531ZM514.5 290.312L516.155 291.436L516.161 291.427L514.5 290.312ZM507.328 295.891L506.605 294.026L500.732 296.303L506.843 297.831L507.328 295.891ZM515.578 301.188L513.98 302.391L513.985 302.396L513.989 302.402L515.578 301.188ZM494.438 331V333H494.446L494.454 333L494.438 331ZM481.969 301.281V299.281H479.969V301.281H481.969ZM481.969 319.703H479.969V321.703H481.969V319.703ZM501.75 317.359L503.043 318.885L503.045 318.883L501.75 317.359ZM494.859 301.281L494.888 299.281L494.874 299.281H494.859V301.281ZM481.969 291.344H479.969V293.344H481.969V291.344ZM492.375 291.344V293.344H492.393L492.41 293.343L492.375 291.344ZM500.297 276.203L499.075 277.786L499.09 277.798L499.106 277.81L500.297 276.203ZM481.969 274.141V272.141H479.969V274.141H481.969ZM469.906 331V262.75H465.906V331H469.906ZM467.906 264.75H491.812V260.75H467.906V264.75ZM491.812 264.75C499.886 264.75 505.669 266.312 509.462 269.135L511.851 265.927C507.081 262.376 500.302 260.75 491.812 260.75V264.75ZM509.469 269.141C513.157 271.86 515.078 275.853 515.078 281.453H519.078C519.078 274.803 516.718 269.515 511.843 265.921L509.469 269.141ZM515.078 281.453C515.078 284.435 514.318 286.993 512.839 289.198L516.161 291.427C518.119 288.507 519.078 285.159 519.078 281.453H515.078ZM512.845 289.189C511.372 291.359 509.318 292.974 506.605 294.026L508.051 297.755C511.463 296.432 514.191 294.328 516.155 291.436L512.845 289.189ZM506.843 297.831C509.939 298.605 512.28 300.132 513.98 302.391L517.176 299.984C514.876 296.93 511.717 294.926 507.813 293.95L506.843 297.831ZM513.989 302.402C515.715 304.659 516.625 307.464 516.625 310.938H520.625C520.625 306.723 519.504 303.028 517.167 299.973L513.989 302.402ZM516.625 310.938C516.625 317.042 514.701 321.375 511.089 324.287L513.599 327.401C518.361 323.563 520.625 317.958 520.625 310.938H516.625ZM511.089 324.287C507.378 327.277 501.914 328.94 494.421 329L494.454 333C502.461 332.935 508.934 331.16 513.599 327.401L511.089 324.287ZM494.438 329H467.906V333H494.438V329ZM479.969 301.281V319.703H483.969V301.281H479.969ZM481.969 321.703H494.016V317.703H481.969V321.703ZM494.016 321.703C497.626 321.703 500.724 320.851 503.043 318.885L500.457 315.834C499.089 316.993 497.03 317.703 494.016 317.703V321.703ZM503.045 318.883C505.429 316.857 506.562 314.079 506.562 310.797H502.562C502.562 313.077 501.821 314.674 500.455 315.835L503.045 318.883ZM506.562 310.797C506.562 307.343 505.665 304.389 503.537 302.303C501.422 300.228 498.416 299.333 494.888 299.281L494.83 303.281C497.771 303.324 499.617 304.061 500.736 305.158C501.843 306.244 502.562 308 502.562 310.797H506.562ZM494.859 299.281H481.969V303.281H494.859V299.281ZM481.969 293.344H492.375V289.344H481.969V293.344ZM492.41 293.343C496.165 293.277 499.338 292.498 501.602 290.693C503.956 288.816 505.016 286.086 505.016 282.859H501.016C501.016 285.164 500.302 286.614 499.109 287.565C497.826 288.588 495.679 289.285 492.34 289.344L492.41 293.343ZM505.016 282.859C505.016 279.385 503.983 276.446 501.488 274.597L499.106 277.81C500.236 278.647 501.016 280.146 501.016 282.859H505.016ZM501.519 274.62C499.213 272.84 495.842 272.141 491.812 272.141V276.141C495.533 276.141 497.818 276.816 499.075 277.786L501.519 274.62ZM491.812 272.141H481.969V276.141H491.812V272.141ZM479.969 274.141V291.344H483.969V274.141H479.969ZM544.172 331V333H546.172V331H544.172ZM530.109 331H528.109V333H530.109V331ZM530.109 262.75V260.75H528.109V262.75H530.109ZM544.172 262.75H546.172V260.75H544.172V262.75ZM544.172 329H530.109V333H544.172V329ZM532.109 331V262.75H528.109V331H532.109ZM530.109 264.75H544.172V260.75H530.109V264.75ZM542.172 262.75V331H546.172V262.75H542.172ZM571.312 319.703H569.312V321.703H571.312V319.703ZM601.172 319.703H603.172V317.703H601.172V319.703ZM601.172 331V333H603.172V331H601.172ZM557.25 331H555.25V333H557.25V331ZM557.25 262.75V260.75H555.25V262.75H557.25ZM571.312 262.75H573.312V260.75H571.312V262.75ZM571.312 321.703H601.172V317.703H571.312V321.703ZM599.172 319.703V331H603.172V319.703H599.172ZM601.172 329H557.25V333H601.172V329ZM559.25 331V262.75H555.25V331H559.25ZM557.25 264.75H571.312V260.75H557.25V264.75ZM569.312 262.75V319.703H573.312V262.75H569.312ZM650.344 301.422V303.422H652.344V301.422H650.344ZM623.344 301.422V299.422H621.344V301.422H623.344ZM623.344 319.703H621.344V321.703H623.344V319.703ZM655.031 319.703H657.031V317.703H655.031V319.703ZM655.031 331V333H657.031V331H655.031ZM609.281 331H607.281V333H609.281V331ZM609.281 262.75V260.75H607.281V262.75H609.281ZM654.938 262.75H656.938V260.75H654.938V262.75ZM654.938 274.141V276.141H656.938V274.141H654.938ZM623.344 274.141V272.141H621.344V274.141H623.344ZM623.344 290.406H621.344V292.406H623.344V290.406ZM650.344 290.406H652.344V288.406H650.344V290.406ZM650.344 299.422H623.344V303.422H650.344V299.422ZM621.344 301.422V319.703H625.344V301.422H621.344ZM623.344 321.703H655.031V317.703H623.344V321.703ZM653.031 319.703V331H657.031V319.703H653.031ZM655.031 329H609.281V333H655.031V329ZM611.281 331V262.75H607.281V331H611.281ZM609.281 264.75H654.938V260.75H609.281V264.75ZM652.938 262.75V274.141H656.938V262.75H652.938ZM654.938 272.141H623.344V276.141H654.938V272.141ZM621.344 274.141V290.406H625.344V274.141H621.344ZM623.344 292.406H650.344V288.406H623.344V292.406ZM648.344 290.406V301.422H652.344V290.406H648.344ZM725.719 316.938L727.614 316.299L727.156 314.938H725.719V316.938ZM701.062 316.938V314.938H699.621L699.165 316.305L701.062 316.938ZM696.375 331V333H697.817L698.272 331.632L696.375 331ZM681.422 331L679.548 330.302L678.543 333H681.422V331ZM706.828 262.75V260.75H705.439L704.954 262.052L706.828 262.75ZM719.859 262.75L721.732 262.049L721.246 260.75H719.859V262.75ZM745.406 331V333H748.29L747.279 330.299L745.406 331ZM730.453 331L728.558 331.638L729.016 333H730.453V331ZM704.859 305.547L702.961 304.917L702.088 307.547H704.859V305.547ZM721.922 305.547V307.547H724.703L723.818 304.91L721.922 305.547ZM713.344 280L715.24 279.363L713.333 273.686L711.446 279.37L713.344 280ZM725.719 314.938H701.062V318.938H725.719V314.938ZM699.165 316.305L694.478 330.368L698.272 331.632L702.96 317.57L699.165 316.305ZM696.375 329H681.422V333H696.375V329ZM683.296 331.698L708.702 263.448L704.954 262.052L679.548 330.302L683.296 331.698ZM706.828 264.75H719.859V260.75H706.828V264.75ZM717.986 263.451L743.533 331.701L747.279 330.299L721.732 262.049L717.986 263.451ZM745.406 329H730.453V333H745.406V329ZM732.349 330.362L727.614 316.299L723.823 317.576L728.558 331.638L732.349 330.362ZM704.859 307.547H721.922V303.547H704.859V307.547ZM723.818 304.91L715.24 279.363L711.448 280.637L720.026 306.184L723.818 304.91ZM711.446 279.37L702.961 304.917L706.757 306.177L715.242 280.63L711.446 279.37ZM765.844 306.953V304.953H763.844V306.953H765.844ZM765.844 331V333H767.844V331H765.844ZM751.781 331H749.781V333H751.781V331ZM751.781 262.75V260.75H749.781V262.75H751.781ZM791.906 265.562L791.035 267.363L791.041 267.366L791.906 265.562ZM800.906 273.578L799.194 274.612L799.198 274.619L800.906 273.578ZM797.156 301.188L798.445 302.717L798.446 302.716L797.156 301.188ZM765.844 295.562H763.844V297.562H765.844V295.562ZM786.891 292.938L785.562 291.443L785.556 291.448L785.55 291.453L786.891 292.938ZM778.734 274.141L778.77 272.141L778.752 272.141H778.734V274.141ZM765.844 274.141V272.141H763.844V274.141H765.844ZM763.844 306.953V331H767.844V306.953H763.844ZM765.844 329H751.781V333H765.844V329ZM753.781 331V262.75H749.781V331H753.781ZM751.781 264.75H778.406V260.75H751.781V264.75ZM778.406 264.75C783.286 264.75 787.479 265.642 791.035 267.363L792.777 263.762C788.584 261.733 783.776 260.75 778.406 260.75V264.75ZM791.041 267.366C794.621 269.084 797.316 271.5 799.194 274.612L802.619 272.545C800.309 268.719 797.004 265.791 792.772 263.759L791.041 267.366ZM799.198 274.619C801.083 277.713 802.047 281.269 802.047 285.344H806.047C806.047 280.606 804.917 276.318 802.614 272.538L799.198 274.619ZM802.047 285.344C802.047 291.517 799.956 296.21 795.867 299.659L798.446 302.716C803.544 298.415 806.047 292.546 806.047 285.344H802.047ZM795.868 299.658C791.777 303.105 785.963 304.953 778.172 304.953V308.953C786.569 308.953 793.411 306.958 798.445 302.717L795.868 299.658ZM778.172 304.953H765.844V308.953H778.172V304.953ZM765.844 297.562H778.406V293.562H765.844V297.562ZM778.406 297.562C782.412 297.562 785.796 296.621 788.231 294.422L785.55 291.453C784.11 292.754 781.838 293.562 778.406 293.562V297.562ZM788.219 294.432C790.712 292.216 791.844 289.114 791.844 285.438H787.844C787.844 288.261 787.006 290.159 785.562 291.443L788.219 294.432ZM791.844 285.438C791.844 281.674 790.722 278.445 788.337 275.947L785.444 278.709C786.997 280.336 787.844 282.513 787.844 285.438H791.844ZM788.337 275.947C785.922 273.417 782.65 272.211 778.77 272.141L778.698 276.14C781.757 276.195 783.921 277.114 785.444 278.709L788.337 275.947ZM778.734 272.141H765.844V276.141H778.734V272.141ZM763.844 274.141V295.562H767.844V274.141H763.844ZM827.812 306.953V304.953H825.812V306.953H827.812ZM827.812 331V333H829.812V331H827.812ZM813.75 331H811.75V333H813.75V331ZM813.75 262.75V260.75H811.75V262.75H813.75ZM853.875 265.562L853.004 267.363L853.01 267.366L853.875 265.562ZM862.875 273.578L861.163 274.612L861.167 274.619L862.875 273.578ZM859.125 301.188L860.414 302.717L860.415 302.716L859.125 301.188ZM827.812 295.562H825.812V297.562H827.812V295.562ZM848.859 292.938L847.531 291.443L847.525 291.448L847.519 291.453L848.859 292.938ZM840.703 274.141L840.739 272.141L840.721 272.141H840.703V274.141ZM827.812 274.141V272.141H825.812V274.141H827.812ZM825.812 306.953V331H829.812V306.953H825.812ZM827.812 329H813.75V333H827.812V329ZM815.75 331V262.75H811.75V331H815.75ZM813.75 264.75H840.375V260.75H813.75V264.75ZM840.375 264.75C845.255 264.75 849.447 265.642 853.004 267.363L854.746 263.762C850.553 261.733 845.745 260.75 840.375 260.75V264.75ZM853.01 267.366C856.59 269.084 859.284 271.5 861.163 274.612L864.587 272.545C862.278 268.719 858.972 265.791 854.74 263.759L853.01 267.366ZM861.167 274.619C863.052 277.713 864.016 281.269 864.016 285.344H868.016C868.016 280.606 866.886 276.318 864.583 272.538L861.167 274.619ZM864.016 285.344C864.016 291.517 861.924 296.21 857.835 299.659L860.415 302.716C865.513 298.415 868.016 292.546 868.016 285.344H864.016ZM857.836 299.658C853.745 303.105 847.931 304.953 840.141 304.953V308.953C848.537 308.953 855.38 306.958 860.414 302.717L857.836 299.658ZM840.141 304.953H827.812V308.953H840.141V304.953ZM827.812 297.562H840.375V293.562H827.812V297.562ZM840.375 297.562C844.38 297.562 847.765 296.621 850.2 294.422L847.519 291.453C846.079 292.754 843.807 293.562 840.375 293.562V297.562ZM850.188 294.432C852.681 292.216 853.812 289.114 853.812 285.438H849.812C849.812 288.261 848.975 290.159 847.531 291.443L850.188 294.432ZM853.812 285.438C853.812 281.674 852.691 278.445 850.306 275.947L847.413 278.709C848.966 280.336 849.812 282.513 849.812 285.438H853.812ZM850.306 275.947C847.891 273.417 844.618 272.211 840.739 272.141L840.667 276.14C843.725 276.195 845.89 277.114 847.413 278.709L850.306 275.947ZM840.703 272.141H827.812V276.141H840.703V272.141ZM825.812 274.141V295.562H829.812V274.141H825.812ZM908.297 307L907.08 308.587L907.088 308.594L907.097 308.6L908.297 307ZM898.172 302.5L897.55 304.401L897.561 304.405L898.172 302.5ZM886.594 297.812L885.643 299.572L885.646 299.573L886.594 297.812ZM878.062 271.047L876.44 269.878L876.437 269.881L878.062 271.047ZM887.016 264.25L886.247 262.403L886.242 262.406L887.016 264.25ZM913.172 264.484L912.325 266.296L912.338 266.302L913.172 264.484ZM922.031 271.938L920.355 273.028L920.362 273.039L922.031 271.938ZM925.219 282.906V284.906H927.219V282.906H925.219ZM911.156 282.906H909.156V284.906H911.156V282.906ZM908.203 275.641L906.874 277.135L906.881 277.141L906.888 277.147L908.203 275.641ZM891.891 275.219L893.095 276.816L893.103 276.809L893.111 276.803L891.891 275.219ZM892.359 286.516L891.239 288.173L891.25 288.18L892.359 286.516ZM902.25 290.734L901.672 292.649L901.674 292.65L902.25 290.734ZM918.516 326.922L919.714 328.523L919.721 328.518L918.516 326.922ZM886.125 329.078L885.305 330.902L885.316 330.907L886.125 329.078ZM876.234 321.156L874.575 322.273L874.582 322.283L876.234 321.156ZM872.859 309.531V307.531H870.859V309.531H872.859ZM886.969 309.531H888.969V307.531H886.969V309.531ZM908.297 318.812L909.462 320.438L909.471 320.432L909.48 320.425L908.297 318.812ZM913.109 313.094C913.109 309.904 911.948 307.238 909.497 305.4L907.097 308.6C908.396 309.574 909.109 310.971 909.109 313.094H913.109ZM909.514 305.413C907.344 303.75 903.681 302.166 898.782 300.595L897.561 304.405C902.412 305.959 905.499 307.375 907.08 308.587L909.514 305.413ZM898.793 300.599C893.974 299.023 890.239 297.504 887.542 296.052L885.646 299.573C888.636 301.184 892.62 302.789 897.55 304.401L898.793 300.599ZM887.544 296.053C880.256 292.115 876.969 287.061 876.969 280.891H872.969C872.969 288.908 877.431 295.135 885.643 299.572L887.544 296.053ZM876.969 280.891C876.969 277.603 877.88 274.733 879.688 272.213L876.437 269.881C874.12 273.111 872.969 276.804 872.969 280.891H876.969ZM879.685 272.216C881.529 269.657 884.194 267.602 887.789 266.094L886.242 262.406C882.087 264.148 878.784 266.624 876.44 269.878L879.685 272.216ZM887.784 266.097C891.414 264.586 895.523 263.812 900.141 263.812V259.812C895.071 259.812 890.43 260.664 886.247 262.403L887.784 266.097ZM900.141 263.812C904.769 263.812 908.817 264.657 912.325 266.296L914.018 262.672C909.902 260.749 905.262 259.812 900.141 259.812V263.812ZM912.338 266.302C915.839 267.909 918.486 270.156 920.355 273.028L923.708 270.847C921.389 267.282 918.13 264.559 914.006 262.667L912.338 266.302ZM920.362 273.039C922.258 275.911 923.219 279.179 923.219 282.906H927.219C927.219 278.446 926.055 274.402 923.7 270.836L920.362 273.039ZM925.219 280.906H911.156V284.906H925.219V280.906ZM913.156 282.906C913.156 279.328 912.008 276.307 909.518 274.134L906.888 277.147C908.336 278.412 909.156 280.235 909.156 282.906H913.156ZM909.532 274.146C907.085 271.971 903.784 271.016 899.906 271.016V275.016C903.153 275.016 905.384 275.811 906.874 277.135L909.532 274.146ZM899.906 271.016C896.211 271.016 893.048 271.802 890.67 273.634L893.111 276.803C894.546 275.698 896.727 275.016 899.906 275.016V271.016ZM890.686 273.622C888.282 275.435 887.031 277.931 887.031 280.938H891.031C891.031 279.194 891.687 277.878 893.095 276.816L890.686 273.622ZM887.031 280.938C887.031 283.964 888.601 286.389 891.239 288.173L893.48 284.859C891.681 283.643 891.031 282.349 891.031 280.938H887.031ZM891.25 288.18C893.737 289.838 897.249 291.312 901.672 292.649L902.828 288.82C898.564 287.531 895.482 286.193 893.469 284.852L891.25 288.18ZM901.674 292.65C909.54 295.015 915.015 297.881 918.339 301.12L921.13 298.255C917.141 294.369 910.96 291.266 902.826 288.819L901.674 292.65ZM918.339 301.12C921.591 304.289 923.219 308.202 923.219 313H927.219C927.219 307.173 925.19 302.211 921.13 298.255L918.339 301.12ZM923.219 313C923.219 318.319 921.247 322.352 917.31 325.326L919.721 328.518C924.721 324.741 927.219 319.493 927.219 313H923.219ZM917.317 325.321C913.299 328.328 907.751 329.938 900.469 329.938V333.938C908.312 333.938 914.795 332.204 919.714 328.523L917.317 325.321ZM900.469 329.938C895.466 329.938 890.964 329.03 886.934 327.249L885.316 330.907C889.911 332.938 894.972 333.938 900.469 333.938V329.938ZM886.945 327.254C882.911 325.442 879.927 323.02 877.887 320.029L874.582 322.283C877.104 325.98 880.714 328.84 885.305 330.902L886.945 327.254ZM877.894 320.04C875.886 317.057 874.859 313.578 874.859 309.531H870.859C870.859 314.297 872.082 318.568 874.575 322.273L877.894 320.04ZM872.859 311.531H886.969V307.531H872.859V311.531ZM884.969 309.531C884.969 313.708 886.234 317.172 889.06 319.538C891.819 321.846 895.739 322.828 900.469 322.828V318.828C896.199 318.828 893.369 317.927 891.627 316.47C889.954 315.07 888.969 312.886 888.969 309.531H884.969ZM900.469 322.828C904.05 322.828 907.125 322.113 909.462 320.438L907.132 317.187C905.718 318.2 903.575 318.828 900.469 318.828V322.828ZM909.48 320.425C911.897 318.653 913.109 316.132 913.109 313.094H909.109C909.109 314.93 908.447 316.222 907.114 317.2L909.48 320.425Z" fill="#777777"/>
</svg>
